WIPSHDC-All-Traditional-Sans-Heavy.ufo
<glyph name="uni3A90" format="2">
  <advance width="1000" height="1000"/>
  <unicode hex="3A90"/>
  <note>
cid04265
</note>
  <outline>
    <contour>
      <point x="450" y="418" type="curve"/>
      <point x="396" y="363" type="line"/>
      <point x="425" y="346"/>
      <point x="457" y="321"/>
      <point x="473" y="303" type="curve"/>
      <point x="528" y="359" type="line"/>
      <point x="511" y="377"/>
      <point x="479" y="401"/>
    </contour>
    <contour>
      <point x="520" y="212" type="line"/>
      <point x="520" y="318" type="line"/>
      <point x="197" y="318" type="line"/>
      <point x="197" y="212" type="line"/>
    </contour>
    <contour>
      <point x="406" y="276" type="curve" smooth="yes"/>
      <point x="406" y="408" type="line"/>
      <point x="299" y="408" type="line"/>
      <point x="299" y="279" type="line" smooth="yes"/>
      <point x="299" y="198"/>
      <point x="281" y="79"/>
      <point x="150" y="-1" type="curve"/>
      <point x="173" y="-21"/>
      <point x="210" y="-63"/>
      <point x="226" y="-88" type="curve"/>
      <point x="380" y="13"/>
      <point x="406" y="167"/>
    </contour>
    <contour>
      <point x="399" y="203" type="curve"/>
      <point x="322" y="148" type="line"/>
      <point x="362" y="106"/>
      <point x="417" y="42"/>
      <point x="447" y="3" type="curve"/>
      <point x="533" y="90" type="line"/>
      <point x="497" y="124"/>
      <point x="438" y="174"/>
    </contour>
    <contour>
      <point x="518" y="424" type="line"/>
      <point x="518" y="671" type="line"/>
      <point x="123" y="671" type="line"/>
      <point x="123" y="565" type="line"/>
      <point x="391" y="565" type="line"/>
      <point x="391" y="530" type="line"/>
      <point x="123" y="530" type="line"/>
      <point x="123" y="424" type="line"/>
    </contour>
    <contour>
      <point x="220" y="765" type="curve"/>
      <point x="74" y="807" type="line"/>
      <point x="74" y="499" type="line" smooth="yes"/>
      <point x="74" y="351"/>
      <point x="70" y="140"/>
      <point x="14" y="-14" type="curve"/>
      <point x="45" y="-26"/>
      <point x="95" y="-64"/>
      <point x="114" y="-89" type="curve"/>
      <point x="184" y="86"/>
      <point x="193" y="340"/>
      <point x="193" y="497" type="curve" smooth="yes"/>
      <point x="193" y="747" type="line"/>
      <point x="211" y="750"/>
      <point x="219" y="756"/>
    </contour>
    <contour>
      <point x="524" y="747" type="curve"/>
      <point x="430" y="841" type="line"/>
      <point x="348" y="816"/>
      <point x="214" y="797"/>
      <point x="94" y="788" type="curve"/>
      <point x="108" y="762"/>
      <point x="123" y="717"/>
      <point x="128" y="690" type="curve"/>
      <point x="256" y="696"/>
      <point x="409" y="714"/>
    </contour>
    <contour>
      <point x="848" y="380" type="line"/>
      <point x="848" y="504" type="line"/>
      <point x="541" y="504" type="line"/>
      <point x="541" y="380" type="line"/>
    </contour>
    <contour>
      <point x="876" y="508" type="line"/>
      <point x="853" y="504" type="line"/>
      <point x="828" y="504" type="line"/>
      <point x="828" y="482" type="line"/>
      <point x="796" y="266"/>
      <point x="670" y="101"/>
      <point x="475" y="22" type="curve"/>
      <point x="502" y="-6"/>
      <point x="537" y="-61"/>
      <point x="552" y="-96" type="curve"/>
      <point x="775" y="8"/>
      <point x="922" y="215"/>
      <point x="961" y="481" type="curve"/>
    </contour>
    <contour>
      <point x="675" y="380" type="curve"/>
      <point x="555" y="351" type="line"/>
      <point x="619" y="143"/>
      <point x="722" y="-14"/>
      <point x="902" y="-96" type="curve"/>
      <point x="921" y="-62"/>
      <point x="961" y="-10"/>
      <point x="990" y="16" type="curve"/>
      <point x="828" y="79"/>
      <point x="724" y="215"/>
    </contour>
    <contour>
      <point x="975" y="604" type="line"/>
      <point x="975" y="728" type="line"/>
      <point x="709" y="728" type="line"/>
      <point x="709" y="604" type="line"/>
    </contour>
    <contour>
      <point x="789" y="453" type="line"/>
      <point x="789" y="854" type="line"/>
      <point x="656" y="854" type="line"/>
      <point x="656" y="453" type="line"/>
    </contour>
  </outline>
</glyph>
<glyph name="uni3B39" format="2">
  <advance width="1000" height="1000"/>
  <unicode hex="3B39"/>
  <note>
cid04444
</note>
  <outline>
    <contour>
      <point x="336" y="690" type="line"/>
      <point x="336" y="821" type="line"/>
      <point x="133" y="821" type="line"/>
      <point x="133" y="690" type="line"/>
    </contour>
    <contour>
      <point x="305" y="465" type="line"/>
      <point x="305" y="596" type="line"/>
      <point x="124" y="596" type="line"/>
      <point x="124" y="465" type="line"/>
    </contour>
    <contour>
      <point x="305" y="233" type="line"/>
      <point x="305" y="367" type="line"/>
      <point x="124" y="367" type="line"/>
      <point x="124" y="233" type="line"/>
    </contour>
    <contour>
      <point x="193" y="455" type="curve" smooth="yes"/>
      <point x="193" y="821" type="line"/>
      <point x="71" y="821" type="line"/>
      <point x="71" y="455" type="line" smooth="yes"/>
      <point x="71" y="309"/>
      <point x="68" y="106"/>
      <point x="19" y="-31" type="curve"/>
      <point x="50" y="-42"/>
      <point x="106" y="-72"/>
      <point x="130" y="-92" type="curve"/>
      <point x="185" y="58"/>
      <point x="193" y="295"/>
    </contour>
    <contour>
      <point x="373" y="52" type="curve" smooth="yes"/>
      <point x="373" y="821" type="line"/>
      <point x="245" y="821" type="line"/>
      <point x="245" y="54" type="line" smooth="yes"/>
      <point x="245" y="43"/>
      <point x="242" y="39"/>
      <point x="232" y="39" type="curve" smooth="yes"/>
      <point x="222" y="39"/>
      <point x="195" y="39"/>
      <point x="172" y="40" type="curve"/>
      <point x="188" y="5"/>
      <point x="203" y="-57"/>
      <point x="206" y="-94" type="curve"/>
      <point x="262" y="-94"/>
      <point x="301" y="-90"/>
      <point x="333" y="-67" type="curve" smooth="yes"/>
      <point x="366" y="-44"/>
      <point x="373" y="-6"/>
    </contour>
    <contour>
      <point x="877" y="110" type="line"/>
      <point x="877" y="226" type="line"/>
      <point x="430" y="226" type="line"/>
      <point x="430" y="110" type="line"/>
    </contour>
    <contour>
      <point x="978" y="268" type="line"/>
      <point x="978" y="391" type="line"/>
      <point x="396" y="391" type="line"/>
      <point x="396" y="268" type="line"/>
    </contour>
    <contour>
      <point x="920" y="78" type="line"/>
      <point x="920" y="549" type="line"/>
      <point x="438" y="549" type="line"/>
      <point x="438" y="433" type="line"/>
      <point x="789" y="433" type="line"/>
      <point x="789" y="78" type="line"/>
    </contour>
    <contour>
      <point x="727" y="44" type="curve" smooth="yes"/>
      <point x="727" y="484" type="line"/>
      <point x="588" y="484" type="line"/>
      <point x="588" y="47" type="line" smooth="yes"/>
      <point x="588" y="35"/>
      <point x="583" y="31"/>
      <point x="569" y="31" type="curve" smooth="yes"/>
      <point x="556" y="31"/>
      <point x="508" y="31"/>
      <point x="471" y="33" type="curve"/>
      <point x="488" y="-3"/>
      <point x="505" y="-58"/>
      <point x="510" y="-95" type="curve"/>
      <point x="581" y="-95"/>
      <point x="634" y="-93"/>
      <point x="675" y="-73" type="curve" smooth="yes"/>
      <point x="716" y="-53"/>
      <point x="727" y="-19"/>
    </contour>
    <contour>
      <point x="946" y="756" type="curve"/>
      <point x="843" y="856" type="line"/>
      <point x="749" y="820"/>
      <point x="596" y="791"/>
      <point x="456" y="776" type="curve"/>
      <point x="471" y="748"/>
      <point x="489" y="699"/>
      <point x="494" y="669" type="curve"/>
      <point x="643" y="683"/>
      <point x="816" y="710"/>
    </contour>
    <contour>
      <point x="592" y="773" type="curve"/>
      <point x="457" y="805" type="line"/>
      <point x="439" y="725"/>
      <point x="405" y="638"/>
      <point x="365" y="583" type="curve"/>
      <point x="397" y="566"/>
      <point x="455" y="529"/>
      <point x="481" y="507" type="curve"/>
      <point x="523" y="572"/>
      <point x="567" y="677"/>
    </contour>
    <contour>
      <point x="709" y="694" type="curve"/>
      <point x="595" y="663" type="line"/>
      <point x="610" y="623"/>
      <point x="622" y="569"/>
      <point x="623" y="534" type="curve"/>
      <point x="744" y="569" type="line"/>
      <point x="740" y="604"/>
      <point x="726" y="656"/>
    </contour>
    <contour>
      <point x="877" y="741" type="curve"/>
      <point x="766" y="688" type="line"/>
      <point x="801" y="634"/>
      <point x="841" y="560"/>
      <point x="858" y="513" type="curve"/>
      <point x="974" y="575" type="line"/>
      <point x="954" y="621"/>
      <point x="914" y="690"/>
    </contour>
  </outline>
</glyph>
<glyph name="uni40D7" format="2">
  <advance width="1000" height="1000"/>
  <unicode hex="40D7"/>
  <note>
cid05986
</note>
  <outline>
    <contour>
      <point x="588" y="221" type="curve"/>
      <point x="535" y="133" type="line"/>
      <point x="592" y="97"/>
      <point x="651" y="49"/>
      <point x="679" y="16" type="curve"/>
      <point x="734" y="115" type="line"/>
      <point x="705" y="145"/>
      <point x="645" y="188"/>
    </contour>
    <contour>
      <point x="710" y="357" type="curve"/>
      <point x="610" y="404" type="line"/>
      <point x="595" y="359"/>
      <point x="571" y="302"/>
      <point x="552" y="267" type="curve"/>
      <point x="631" y="226" type="line"/>
      <point x="653" y="260"/>
      <point x="684" y="311"/>
    </contour>
    <contour>
      <point x="816" y="166" type="line"/>
      <point x="816" y="751" type="line"/>
      <point x="705" y="751" type="line"/>
      <point x="705" y="166" type="line"/>
    </contour>
    <contour>
      <point x="957" y="46" type="curve" smooth="yes"/>
      <point x="957" y="840" type="line"/>
      <point x="840" y="840" type="line"/>
      <point x="840" y="46" type="line" smooth="yes"/>
      <point x="840" y="32"/>
      <point x="836" y="28"/>
      <point x="823" y="28" type="curve" smooth="yes"/>
      <point x="809" y="28"/>
      <point x="769" y="28"/>
      <point x="731" y="29" type="curve"/>
      <point x="746" y="-6"/>
      <point x="761" y="-60"/>
      <point x="765" y="-93" type="curve"/>
      <point x="832" y="-93"/>
      <point x="881" y="-88"/>
      <point x="914" y="-68" type="curve" smooth="yes"/>
      <point x="947" y="-48"/>
      <point x="957" y="-15"/>
    </contour>
    <contour>
      <point x="319" y="699" type="line"/>
      <point x="319" y="813" type="line"/>
      <point x="26" y="813" type="line"/>
      <point x="26" y="699" type="line"/>
    </contour>
    <contour>
      <point x="309" y="27" type="line"/>
      <point x="309" y="501" type="line"/>
      <point x="128" y="501" type="line"/>
      <point x="128" y="390" type="line"/>
      <point x="213" y="390" type="line"/>
      <point x="213" y="138" type="line"/>
      <point x="128" y="138" type="line"/>
      <point x="128" y="27" type="line"/>
    </contour>
    <contour>
      <point x="228" y="726" type="curve"/>
      <point x="115" y="745" type="line"/>
      <point x="100" y="579"/>
      <point x="74" y="418"/>
      <point x="11" y="314" type="curve"/>
      <point x="29" y="279"/>
      <point x="52" y="200"/>
      <point x="57" y="166" type="curve"/>
      <point x="157" y="303"/>
      <point x="203" y="516"/>
    </contour>
    <contour>
      <point x="181" y="-39" type="line"/>
      <point x="181" y="501" type="line"/>
      <point x="81" y="501" type="line"/>
      <point x="81" y="-39" type="line"/>
    </contour>
    <contour>
      <point x="406" y="402" type="curve"/>
      <point x="319" y="353" type="line"/>
      <point x="343" y="309"/>
      <point x="367" y="251"/>
      <point x="375" y="214" type="curve"/>
      <point x="467" y="269" type="line"/>
      <point x="458" y="305"/>
      <point x="431" y="361"/>
    </contour>
    <contour>
      <point x="595" y="703" type="line"/>
      <point x="595" y="808" type="line"/>
      <point x="432" y="808" type="line"/>
      <point x="432" y="703" type="line"/>
    </contour>
    <contour>
      <point x="587" y="560" type="line"/>
      <point x="587" y="665" type="line"/>
      <point x="415" y="665" type="line"/>
      <point x="415" y="560" type="line"/>
    </contour>
    <contour>
      <point x="689" y="418" type="line"/>
      <point x="689" y="529" type="line"/>
      <point x="326" y="529" type="line"/>
      <point x="326" y="418" type="line"/>
    </contour>
    <contour>
      <point x="571" y="33" type="curve" smooth="yes"/>
      <point x="571" y="479" type="line"/>
      <point x="455" y="479" type="line"/>
      <point x="455" y="35" type="line" smooth="yes"/>
      <point x="455" y="24"/>
      <point x="452" y="22"/>
      <point x="442" y="22" type="curve" smooth="yes"/>
      <point x="431" y="21"/>
      <point x="401" y="21"/>
      <point x="372" y="23" type="curve"/>
      <point x="386" y="-12"/>
      <point x="400" y="-62"/>
      <point x="403" y="-96" type="curve"/>
      <point x="458" y="-96"/>
      <point x="500" y="-93"/>
      <point x="531" y="-74" type="curve" smooth="yes"/>
      <point x="564" y="-54"/>
      <point x="571" y="-21"/>
    </contour>
    <contour>
      <point x="282" y="114" type="curve"/>
      <point x="334" y="3" type="line"/>
      <point x="384" y="43"/>
      <point x="437" y="87"/>
      <point x="486" y="130" type="curve"/>
      <point x="445" y="223" type="line"/>
      <point x="384" y="180"/>
      <point x="324" y="138"/>
    </contour>
    <contour>
      <point x="510" y="843" type="curve"/>
      <point x="400" y="855" type="line"/>
      <point x="383" y="758"/>
      <point x="356" y="634"/>
      <point x="333" y="555" type="curve"/>
      <point x="444" y="545" type="line"/>
      <point x="465" y="622"/>
      <point x="491" y="744"/>
    </contour>
    <contour>
      <point x="605" y="813" type="line"/>
      <point x="584" y="808" type="line"/>
      <point x="575" y="808" type="line"/>
      <point x="575" y="795" type="line"/>
      <point x="567" y="722"/>
      <point x="547" y="586"/>
      <point x="527" y="483" type="curve"/>
      <point x="636" y="470" type="line"/>
      <point x="655" y="571"/>
      <point x="676" y="697"/>
      <point x="687" y="803" type="curve"/>
    </contour>
  </outline>
</glyph>
<glyph name="uni41F6" format="2">
  <advance width="1000" height="1000"/>
  <unicode hex="41F6"/>
  <note>
cid06289
</note>
  <outline>
    <contour>
      <point x="831" y="341" type="line"/>
      <point x="831" y="453" type="line"/>
      <point x="263" y="453" type="line"/>
      <point x="263" y="341" type="line"/>
    </contour>
    <contour>
      <point x="815" y="205" type="line"/>
      <point x="815" y="313" type="line"/>
      <point x="270" y="313" type="line"/>
      <point x="270" y="205" type="line"/>
    </contour>
    <contour>
      <point x="813" y="66" type="line"/>
      <point x="813" y="176" type="line"/>
      <point x="250" y="176" type="line"/>
      <point x="250" y="66" type="line"/>
    </contour>
    <contour>
      <point x="319" y="256" type="curve" smooth="yes"/>
      <point x="319" y="453" type="line"/>
      <point x="179" y="453" type="line"/>
      <point x="179" y="258" type="line" smooth="yes"/>
      <point x="179" y="170"/>
      <point x="169" y="66"/>
      <point x="49" y="-6" type="curve"/>
      <point x="77" y="-23"/>
      <point x="132" y="-71"/>
      <point x="152" y="-96" type="curve"/>
      <point x="292" y="-11"/>
      <point x="319" y="139"/>
    </contour>
    <contour>
      <point x="890" y="39" type="curve" smooth="yes"/>
      <point x="890" y="453" type="line"/>
      <point x="746" y="453" type="line"/>
      <point x="746" y="42" type="line" smooth="yes"/>
      <point x="746" y="28"/>
      <point x="739" y="24"/>
      <point x="720" y="23" type="curve" smooth="yes"/>
      <point x="702" y="23"/>
      <point x="630" y="23"/>
      <point x="578" y="26" type="curve"/>
      <point x="598" y="-6"/>
      <point x="621" y="-60"/>
      <point x="628" y="-95" type="curve"/>
      <point x="714" y="-96"/>
      <point x="778" y="-94"/>
      <point x="826" y="-75" type="curve" smooth="yes"/>
      <point x="875" y="-56"/>
      <point x="890" y="-22"/>
    </contour>
    <contour>
      <point x="593" y="124" type="line"/>
      <point x="593" y="407" type="line"/>
      <point x="456" y="407" type="line"/>
      <point x="456" y="124" type="line"/>
    </contour>
    <contour>
      <point x="605" y="480" type="line"/>
      <point x="605" y="585" type="line"/>
      <point x="318" y="585" type="line"/>
      <point x="318" y="480" type="line"/>
    </contour>
    <contour>
      <point x="438" y="614" type="curve"/>
      <point x="283" y="639" type="line"/>
      <point x="238" y="551"/>
      <point x="157" y="453"/>
      <point x="32" y="380" type="curve"/>
      <point x="65" y="361"/>
      <point x="113" y="315"/>
      <point x="135" y="285" type="curve"/>
      <point x="276" y="379"/>
      <point x="368" y="491"/>
    </contour>
    <contour>
      <point x="610" y="590" type="line"/>
      <point x="587" y="585" type="line"/>
      <point x="554" y="585" type="line"/>
      <point x="554" y="561" type="line"/>
      <point x="536" y="519"/>
      <point x="490" y="445"/>
      <point x="450" y="399" type="curve"/>
      <point x="480" y="384"/>
      <point x="525" y="357"/>
      <point x="551" y="339" type="curve"/>
      <point x="603" y="390"/>
      <point x="669" y="472"/>
      <point x="709" y="532" type="curve"/>
    </contour>
    <contour>
      <point x="485" y="680" type="line"/>
      <point x="485" y="790" type="line"/>
      <point x="174" y="790" type="line"/>
      <point x="174" y="680" type="line"/>
    </contour>
    <contour>
      <point x="962" y="680" type="line"/>
      <point x="962" y="790" type="line"/>
      <point x="583" y="790" type="line"/>
      <point x="583" y="680" type="line"/>
    </contour>
    <contour>
      <point x="305" y="828" type="curve"/>
      <point x="170" y="865" type="line"/>
      <point x="138" y="789"/>
      <point x="79" y="709"/>
      <point x="15" y="660" type="curve"/>
      <point x="48" y="643"/>
      <point x="106" y="605"/>
      <point x="133" y="582" type="curve"/>
      <point x="195" y="640"/>
      <point x="263" y="735"/>
    </contour>
    <contour>
      <point x="713" y="831" type="curve"/>
      <point x="575" y="865" type="line"/>
      <point x="548" y="792"/>
      <point x="495" y="718"/>
      <point x="434" y="672" type="curve"/>
      <point x="469" y="657"/>
      <point x="531" y="627"/>
      <point x="561" y="605" type="curve"/>
      <point x="617" y="658"/>
      <point x="678" y="744"/>
    </contour>
    <contour>
      <point x="336" y="727" type="curve"/>
      <point x="216" y="688" type="line"/>
      <point x="236" y="662"/>
      <point x="259" y="624"/>
      <point x="268" y="601" type="curve"/>
      <point x="395" y="643" type="line"/>
      <point x="383" y="668"/>
      <point x="357" y="703"/>
    </contour>
    <contour>
      <point x="787" y="735" type="curve"/>
      <point x="660" y="702" type="line"/>
      <point x="688" y="666"/>
      <point x="720" y="615"/>
      <point x="733" y="583" type="curve"/>
      <point x="867" y="619" type="line"/>
      <point x="851" y="652"/>
      <point x="816" y="700"/>
    </contour>
  </outline>
</glyph>
<glyph name="uni4599" format="2">
  <advance width="1000" height="1000"/>
  <unicode hex="4599"/>
  <note>
cid07322
</note>
  <outline>
    <contour>
      <point x="900" y="346" type="line"/>
      <point x="900" y="402" type="line"/>
      <point x="584" y="402" type="line"/>
      <point x="584" y="346" type="line"/>
    </contour>
    <contour>
      <point x="854" y="265" type="line"/>
      <point x="854" y="331" type="line"/>
      <point x="336" y="331" type="line"/>
      <point x="336" y="265" type="line"/>
    </contour>
    <contour>
      <point x="658" y="305" type="line"/>
      <point x="658" y="429" type="line"/>
      <point x="519" y="429" type="line"/>
      <point x="519" y="305" type="line"/>
    </contour>
    <contour>
      <point x="817" y="197" type="line"/>
      <point x="811" y="253" type="line"/>
      <point x="415" y="235" type="line"/>
      <point x="421" y="176" type="line"/>
    </contour>
    <contour>
      <point x="641" y="200" type="curve" smooth="yes"/>
      <point x="641" y="276" type="line"/>
      <point x="519" y="276" type="line"/>
      <point x="519" y="200" type="line" smooth="yes"/>
      <point x="519" y="126"/>
      <point x="551" y="107"/>
      <point x="671" y="107" type="curve" smooth="yes"/>
      <point x="697" y="107"/>
      <point x="796" y="107"/>
      <point x="822" y="107" type="curve" smooth="yes"/>
      <point x="900" y="107"/>
      <point x="932" y="122"/>
      <point x="942" y="179" type="curve"/>
      <point x="912" y="184"/>
      <point x="869" y="194"/>
      <point x="845" y="206" type="curve"/>
      <point x="841" y="180"/>
      <point x="834" y="175"/>
      <point x="807" y="175" type="curve" smooth="yes"/>
      <point x="784" y="175"/>
      <point x="705" y="175"/>
      <point x="687" y="175" type="curve" smooth="yes"/>
      <point x="649" y="175"/>
      <point x="641" y="178"/>
    </contour>
    <contour>
      <point x="413" y="240" type="curve" smooth="yes"/>
      <point x="413" y="331" type="line"/>
      <point x="284" y="331" type="line"/>
      <point x="284" y="242" type="line" smooth="yes"/>
      <point x="284" y="164"/>
      <point x="276" y="55"/>
      <point x="194" y="-25" type="curve"/>
      <point x="220" y="-38"/>
      <point x="274" y="-79"/>
      <point x="294" y="-100" type="curve"/>
      <point x="392" y="-6"/>
      <point x="413" y="141"/>
    </contour>
    <contour>
      <point x="856" y="336" type="line"/>
      <point x="836" y="331" type="line"/>
      <point x="817" y="331" type="line"/>
      <point x="817" y="320" type="line"/>
      <point x="811" y="295"/>
      <point x="798" y="264"/>
      <point x="787" y="243" type="curve"/>
      <point x="893" y="212" type="line"/>
      <point x="913" y="238"/>
      <point x="935" y="279"/>
      <point x="950" y="315" type="curve"/>
    </contour>
    <contour>
      <point x="609" y="89" type="curve"/>
      <point x="481" y="89" type="line"/>
      <point x="480" y="27"/>
      <point x="474" y="6"/>
      <point x="359" y="-9" type="curve"/>
      <point x="384" y="-28"/>
      <point x="414" y="-67"/>
      <point x="423" y="-92" type="curve"/>
      <point x="587" y="-66"/>
      <point x="608" y="-11"/>
    </contour>
    <contour>
      <point x="793" y="21" type="curve" smooth="yes"/>
      <point x="793" y="89" type="line"/>
      <point x="664" y="89" type="line"/>
      <point x="664" y="20" type="line" smooth="yes"/>
      <point x="664" y="-58"/>
      <point x="684" y="-84"/>
      <point x="780" y="-84" type="curve" smooth="yes"/>
      <point x="798" y="-84"/>
      <point x="830" y="-84"/>
      <point x="849" y="-84" type="curve" smooth="yes"/>
      <point x="917" y="-84"/>
      <point x="947" y="-61"/>
      <point x="958" y="21" type="curve"/>
      <point x="925" y="27"/>
      <point x="874" y="42"/>
      <point x="851" y="56" type="curve"/>
      <point x="848" y="8"/>
      <point x="845" y="-1"/>
      <point x="833" y="-1" type="curve" smooth="yes"/>
      <point x="829" y="-1"/>
      <point x="809" y="-1"/>
      <point x="805" y="-1" type="curve" smooth="yes"/>
      <point x="794" y="-1"/>
      <point x="793" y="1"/>
    </contour>
    <contour>
      <point x="894" y="436" type="curve"/>
      <point x="810" y="511" type="line"/>
      <point x="646" y="489"/>
      <point x="387" y="472"/>
      <point x="138" y="467" type="curve"/>
      <point x="148" y="446"/>
      <point x="161" y="413"/>
      <point x="162" y="390" type="curve"/>
      <point x="421" y="391"/>
      <point x="703" y="409"/>
    </contour>
    <contour>
      <point x="248" y="277" type="curve" smooth="yes"/>
      <point x="248" y="466" type="line"/>
      <point x="118" y="491" type="line"/>
      <point x="118" y="279" type="line" smooth="yes"/>
      <point x="118" y="178"/>
      <point x="108" y="66"/>
      <point x="25" y="-22" type="curve"/>
      <point x="57" y="-38"/>
      <point x="107" y="-75"/>
      <point x="130" y="-98" type="curve"/>
      <point x="235" y="9"/>
      <point x="248" y="151"/>
    </contour>
    <contour>
      <point x="518" y="765" type="line"/>
      <point x="518" y="837" type="line"/>
      <point x="76" y="837" type="line"/>
      <point x="76" y="515" type="line"/>
      <point x="197" y="515" type="line"/>
      <point x="197" y="765" type="line"/>
    </contour>
    <contour>
      <point x="494" y="596" type="line"/>
      <point x="494" y="740" type="line"/>
      <point x="136" y="740" type="line"/>
      <point x="136" y="679" type="line"/>
      <point x="386" y="679" type="line"/>
      <point x="386" y="657" type="line"/>
      <point x="136" y="657" type="line"/>
      <point x="136" y="596" type="line"/>
    </contour>
    <contour>
      <point x="384" y="714" type="line"/>
      <point x="384" y="814" type="line"/>
      <point x="276" y="814" type="line"/>
      <point x="276" y="714" type="line"/>
    </contour>
    <contour>
      <point x="384" y="536" type="line"/>
      <point x="384" y="640" type="line"/>
      <point x="276" y="640" type="line"/>
      <point x="276" y="536" type="line"/>
    </contour>
    <contour>
      <point x="527" y="497" type="line"/>
      <point x="527" y="571" type="line"/>
      <point x="76" y="571" type="line"/>
      <point x="76" y="497" type="line"/>
    </contour>
    <contour>
      <point x="816" y="824" type="curve"/>
      <point x="681" y="850" type="line"/>
      <point x="651" y="739"/>
      <point x="580" y="636"/>
      <point x="498" y="583" type="curve"/>
      <point x="530" y="559"/>
      <point x="578" y="513"/>
      <point x="601" y="487" type="curve"/>
      <point x="695" y="556"/>
      <point x="778" y="686"/>
    </contour>
    <contour>
      <point x="752" y="718" type="curve"/>
      <point x="672" y="635" type="line"/>
      <point x="739" y="596"/>
      <point x="821" y="534"/>
      <point x="869" y="484" type="curve"/>
      <point x="954" y="576" type="line"/>
      <point x="905" y="622"/>
      <point x="821" y="680"/>
    </contour>
  </outline>
</glyph>
<glyph name="uni48A2" format="2">
  <advance width="1000" height="1000"/>
  <unicode hex="48A2"/>
  <note>
cid08133
</note>
  <outline>
    <contour>
      <point x="144" y="75" type="line"/>
      <point x="286" y="75" type="line"/>
      <point x="286" y="406" type="line"/>
      <point x="41" y="406" type="line"/>
      <point x="41" y="273" type="line"/>
      <point x="144" y="273" type="line"/>
    </contour>
    <contour>
      <point x="286" y="153" type="curve"/>
      <point x="156" y="153" type="line"/>
      <point x="111" y="120"/>
      <point x="60" y="89"/>
      <point x="15" y="64" type="curve"/>
      <point x="84" y="-84" type="line"/>
      <point x="138" y="-41"/>
      <point x="182" y="-5"/>
      <point x="224" y="32" type="curve"/>
      <point x="288" y="-45"/>
      <point x="368" y="-71"/>
      <point x="487" y="-77" type="curve" smooth="yes"/>
      <point x="611" y="-82"/>
      <point x="812" y="-80"/>
      <point x="938" y="-73" type="curve"/>
      <point x="945" y="-31"/>
      <point x="967" y="37"/>
      <point x="983" y="71" type="curve"/>
      <point x="840" y="58"/>
      <point x="611" y="55"/>
      <point x="489" y="60" type="curve" smooth="yes"/>
      <point x="391" y="65"/>
      <point x="324" y="90"/>
    </contour>
    <contour>
      <point x="178" y="852" type="curve"/>
      <point x="81" y="764" type="line"/>
      <point x="133" y="729"/>
      <point x="198" y="677"/>
      <point x="226" y="640" type="curve"/>
      <point x="329" y="737" type="line"/>
      <point x="297" y="774"/>
      <point x="229" y="821"/>
    </contour>
    <contour>
      <point x="135" y="654" type="curve"/>
      <point x="40" y="561" type="line"/>
      <point x="96" y="527"/>
      <point x="167" y="475"/>
      <point x="198" y="438" type="curve"/>
      <point x="300" y="540" type="line"/>
      <point x="264" y="577"/>
      <point x="190" y="624"/>
    </contour>
    <contour>
      <point x="797" y="431" type="line"/>
      <point x="797" y="500" type="line"/>
      <point x="481" y="500" type="line"/>
      <point x="481" y="431" type="line"/>
    </contour>
    <contour>
      <point x="890" y="328" type="line"/>
      <point x="890" y="602" type="line"/>
      <point x="488" y="602" type="line"/>
      <point x="488" y="527" type="line"/>
      <point x="754" y="527" type="line"/>
      <point x="754" y="403" type="line"/>
      <point x="483" y="403" type="line"/>
      <point x="483" y="328" type="line"/>
    </contour>
    <contour>
      <point x="517" y="483" type="curve" smooth="yes"/>
      <point x="517" y="602" type="line"/>
      <point x="386" y="602" type="line"/>
      <point x="386" y="485" type="line" smooth="yes"/>
      <point x="386" y="387"/>
      <point x="376" y="262"/>
      <point x="279" y="174" type="curve"/>
      <point x="308" y="159"/>
      <point x="365" y="115"/>
      <point x="387" y="91" type="curve"/>
      <point x="493" y="191"/>
      <point x="517" y="358"/>
    </contour>
    <contour>
      <point x="770" y="176" type="line"/>
      <point x="582" y="176" type="line"/>
      <point x="582" y="211" type="line"/>
      <point x="770" y="211" type="line"/>
    </contour>
    <contour>
      <point x="906" y="90" type="line"/>
      <point x="906" y="296" type="line"/>
      <point x="453" y="296" type="line"/>
      <point x="453" y="90" type="line"/>
    </contour>
    <contour>
      <point x="638" y="751" type="curve"/>
      <point x="694" y="683"/>
      <point x="803" y="614"/>
      <point x="921" y="572" type="curve"/>
      <point x="936" y="605"/>
      <point x="967" y="657"/>
      <point x="992" y="691" type="curve"/>
      <point x="886" y="720"/>
      <point x="761" y="792"/>
      <point x="708" y="855" type="curve"/>
      <point x="562" y="855" type="line"/>
      <point x="514" y="790"/>
      <point x="394" y="716"/>
      <point x="290" y="686" type="curve"/>
      <point x="312" y="657"/>
      <point x="339" y="606"/>
      <point x="352" y="570" type="curve"/>
      <point x="472" y="612"/>
      <point x="582" y="682"/>
    </contour>
    <contour>
      <point x="747" y="626" type="line"/>
      <point x="747" y="705" type="line"/>
      <point x="531" y="705" type="line"/>
      <point x="531" y="626" type="line"/>
    </contour>
  </outline>
</glyph>
<glyph name="uni4BCB" format="2">
  <advance width="1000" height="1000"/>
  <unicode hex="4BCB"/>
  <note>
cid08985
</note>
  <outline>
    <contour>
      <point x="958" y="545" type="line"/>
      <point x="958" y="666" type="line"/>
      <point x="492" y="666" type="line"/>
      <point x="492" y="545" type="line"/>
    </contour>
    <contour>
      <point x="802" y="857" type="curve"/>
      <point x="718" y="770" type="line"/>
      <point x="772" y="738"/>
      <point x="840" y="688"/>
      <point x="871" y="653" type="curve"/>
      <point x="961" y="749" type="line"/>
      <point x="926" y="784"/>
      <point x="855" y="829"/>
    </contour>
    <contour>
      <point x="714" y="852" type="curve"/>
      <point x="579" y="852" type="line"/>
      <point x="584" y="487"/>
      <point x="571" y="175"/>
      <point x="440" y="0" type="curve"/>
      <point x="473" y="-20"/>
      <point x="541" y="-70"/>
      <point x="562" y="-92" type="curve"/>
      <point x="697" y="117"/>
      <point x="714" y="449"/>
    </contour>
    <contour>
      <point x="943" y="486" type="curve"/>
      <point x="810" y="501" type="line"/>
      <point x="786" y="280"/>
      <point x="722" y="104"/>
      <point x="584" y="5" type="curve"/>
      <point x="614" y="-16"/>
      <point x="667" y="-65"/>
      <point x="687" y="-89" type="curve"/>
      <point x="832" y="32"/>
      <point x="908" y="231"/>
    </contour>
    <contour>
      <point x="705" y="556" type="curve"/>
      <point x="597" y="541" type="line"/>
      <point x="638" y="246"/>
      <point x="711" y="19"/>
      <point x="905" y="-98" type="curve"/>
      <point x="924" y="-63"/>
      <point x="964" y="-11"/>
      <point x="992" y="13" type="curve"/>
      <point x="814" y="104"/>
      <point x="739" y="310"/>
    </contour>
    <contour>
      <point x="391" y="198" type="line"/>
      <point x="391" y="290" type="line"/>
      <point x="174" y="290" type="line"/>
      <point x="174" y="198" type="line"/>
    </contour>
    <contour>
      <point x="391" y="73" type="line"/>
      <point x="391" y="168" type="line"/>
      <point x="174" y="168" type="line"/>
      <point x="174" y="73" type="line"/>
    </contour>
    <contour>
      <point x="392" y="319" type="line"/>
      <point x="392" y="414" type="line"/>
      <point x="107" y="414" type="line"/>
      <point x="107" y="-96" type="line"/>
      <point x="233" y="-96" type="line"/>
      <point x="233" y="319" type="line"/>
    </contour>
    <contour>
      <point x="459" y="27" type="curve" smooth="yes"/>
      <point x="459" y="414" type="line"/>
      <point x="330" y="414" type="line"/>
      <point x="330" y="29" type="line" smooth="yes"/>
      <point x="330" y="20"/>
      <point x="327" y="17"/>
      <point x="318" y="17" type="curve" smooth="yes"/>
      <point x="310" y="17"/>
      <point x="286" y="17"/>
      <point x="266" y="18" type="curve"/>
      <point x="281" y="-13"/>
      <point x="296" y="-61"/>
      <point x="301" y="-95" type="curve"/>
      <point x="349" y="-95"/>
      <point x="388" y="-94"/>
      <point x="419" y="-75" type="curve" smooth="yes"/>
      <point x="451" y="-56"/>
      <point x="459" y="-25"/>
    </contour>
    <contour>
      <point x="463" y="492" type="line"/>
      <point x="463" y="826" type="line"/>
      <point x="102" y="826" type="line"/>
      <point x="102" y="492" type="line"/>
      <point x="211" y="492" type="line"/>
      <point x="211" y="725" type="line"/>
      <point x="349" y="725" type="line"/>
      <point x="349" y="492" type="line"/>
    </contour>
    <contour>
      <point x="531" y="372" type="line"/>
      <point x="531" y="536" type="line"/>
      <point x="37" y="536" type="line"/>
      <point x="37" y="372" type="line"/>
      <point x="152" y="372" type="line"/>
      <point x="152" y="441" type="line"/>
      <point x="410" y="441" type="line"/>
      <point x="410" y="372" type="line"/>
    </contour>
    <contour>
      <point x="417" y="619" type="line"/>
      <point x="417" y="698" type="line"/>
      <point x="238" y="698" type="line"/>
      <point x="238" y="505" type="line"/>
      <point x="317" y="505" type="line"/>
      <point x="317" y="619" type="line"/>
    </contour>
  </outline>
</glyph>
<glyph name="uni4E22" format="2">
  <advance width="1000"/>
  <unicode hex="4E22"/>
  <note>
cid09530
</note>
  <outline>
    <contour>
      <point x="859" y="496" type="line"/>
      <point x="859" y="622" type="line"/>
      <point x="154" y="622" type="line"/>
      <point x="154" y="496" type="line"/>
    </contour>
    <contour>
      <point x="956" y="298" type="line"/>
      <point x="956" y="432" type="line"/>
      <point x="42" y="432" type="line"/>
      <point x="42" y="298" type="line"/>
    </contour>
    <contour>
      <point x="572" y="368" type="line"/>
      <point x="572" y="751" type="line"/>
      <point x="417" y="751" type="line"/>
      <point x="417" y="368" type="line"/>
    </contour>
    <contour>
      <point x="490" y="312" type="curve"/>
      <point x="312" y="359" type="line"/>
      <point x="287" y="260"/>
      <point x="239" y="134"/>
      <point x="193" y="48" type="curve"/>
      <point x="325" y="3" type="line"/>
      <point x="375" y="82"/>
      <point x="438" y="200"/>
    </contour>
    <contour>
      <point x="66" y="95" type="curve"/>
      <point x="84" y="-61" type="line"/>
      <point x="283" y="-52"/>
      <point x="573" y="-38"/>
      <point x="839" y="-22" type="curve"/>
      <point x="846" y="117" type="line"/>
      <point x="568" y="108"/>
      <point x="260" y="98"/>
    </contour>
    <contour>
      <point x="739" y="286" type="curve"/>
      <point x="602" y="221" type="line"/>
      <point x="688" y="125"/>
      <point x="782" y="-9"/>
      <point x="821" y="-98" type="curve"/>
      <point x="967" y="-17" type="line"/>
      <point x="921" y="71"/>
      <point x="829" y="194"/>
    </contour>
    <contour>
      <point x="879" y="740" type="curve"/>
      <point x="776" y="855" type="line"/>
      <point x="610" y="820"/>
      <point x="349" y="800"/>
      <point x="111" y="797" type="curve"/>
      <point x="124" y="766"/>
      <point x="141" y="710"/>
      <point x="144" y="675" type="curve"/>
      <point x="384" y="677"/>
      <point x="662" y="694"/>
    </contour>
  </outline>
</glyph>
<glyph name="uni4E2B" format="2">
  <advance width="1000" height="1000"/>
  <unicode hex="4E2B"/>
  <note>
cid09542
</note>
  <outline>
    <contour>
      <point x="577" y="502" type="line"/>
      <point x="422" y="502" type="line"/>
      <point x="422" y="-95" type="line"/>
      <point x="577" y="-95" type="line"/>
    </contour>
    <contour>
      <point x="219" y="844" type="curve"/>
      <point x="98" y="766" type="line"/>
      <point x="183" y="691"/>
      <point x="275" y="576"/>
      <point x="320" y="488" type="curve"/>
      <point x="452" y="577" type="line"/>
      <point x="406" y="655"/>
      <point x="310" y="765"/>
    </contour>
    <contour>
      <point x="901" y="765" type="curve"/>
      <point x="755" y="843" type="line"/>
      <point x="680" y="719"/>
      <point x="553" y="567"/>
      <point x="447" y="473" type="curve"/>
      <point x="560" y="375" type="line"/>
      <point x="671" y="479"/>
      <point x="802" y="629"/>
    </contour>
  </outline>
</glyph>
<glyph name="uni4E93" format="2">
  <advance width="1000" height="1000"/>
  <unicode hex="4E93"/>
  <note>
cid09704
</note>
  <outline>
    <contour>
      <point x="857" y="651" type="line"/>
      <point x="857" y="796" type="line"/>
      <point x="154" y="796" type="line"/>
      <point x="154" y="651" type="line"/>
    </contour>
    <contour>
      <point x="933" y="387" type="line"/>
      <point x="933" y="534" type="line"/>
      <point x="68" y="534" type="line"/>
      <point x="68" y="387" type="line"/>
    </contour>
    <contour>
      <point x="405" y="342" type="curve" smooth="yes"/>
      <point x="405" y="435" type="line"/>
      <point x="253" y="435" type="line"/>
      <point x="253" y="346" type="line" smooth="yes"/>
      <point x="253" y="258"/>
      <point x="231" y="118"/>
      <point x="36" y="12" type="curve"/>
      <point x="69" y="-13"/>
      <point x="122" y="-66"/>
      <point x="144" y="-98" type="curve"/>
      <point x="364" y="28"/>
      <point x="405" y="219"/>
    </contour>
    <contour>
      <point x="754" y="-95" type="line"/>
      <point x="754" y="427" type="line"/>
      <point x="599" y="427" type="line"/>
      <point x="599" y="-95" type="line"/>
    </contour>
  </outline>
</glyph>
<glyph name="uni4F28" format="2">
  <advance width="1000" height="1000"/>
  <unicode hex="4F28"/>
  <note>
cid09931
</note>
  <outline>
    <contour>
      <point x="724" y="363" type="line"/>
      <point x="724" y="492" type="line"/>
      <point x="440" y="492" type="line"/>
      <point x="440" y="363" type="line"/>
    </contour>
    <contour>
      <point x="384" y="192" type="curve"/>
      <point x="439" y="54" type="line"/>
      <point x="534" y="92"/>
      <point x="652" y="140"/>
      <point x="760" y="186" type="curve"/>
      <point x="734" y="309" type="line"/>
      <point x="607" y="264"/>
      <point x="471" y="217"/>
    </contour>
    <contour>
      <point x="855" y="561" type="line"/>
      <point x="855" y="698" type="line"/>
      <point x="480" y="698" type="line"/>
      <point x="480" y="561" type="line"/>
    </contour>
    <contour>
      <point x="959" y="698" type="curve"/>
      <point x="812" y="698" type="line"/>
      <point x="812" y="667" type="line" smooth="yes"/>
      <point x="802" y="267"/>
      <point x="790" y="100"/>
      <point x="760" y="67" type="curve" smooth="yes"/>
      <point x="748" y="52"/>
      <point x="737" y="48"/>
      <point x="719" y="48" type="curve" smooth="yes"/>
      <point x="694" y="48"/>
      <point x="645" y="48"/>
      <point x="591" y="53" type="curve"/>
      <point x="617" y="11"/>
      <point x="637" y="-53"/>
      <point x="639" y="-95" type="curve"/>
      <point x="695" y="-96"/>
      <point x="752" y="-97"/>
      <point x="790" y="-89" type="curve" smooth="yes"/>
      <point x="832" y="-81"/>
      <point x="861" y="-68"/>
      <point x="892" y="-24" type="curve" smooth="yes"/>
      <point x="932" y="30"/>
      <point x="944" y="193"/>
      <point x="957" y="631" type="curve" smooth="yes"/>
      <point x="958" y="649"/>
      <point x="959" y="698"/>
    </contour>
    <contour>
      <point x="617" y="825" type="curve"/>
      <point x="468" y="858" type="line"/>
      <point x="435" y="725"/>
      <point x="371" y="594"/>
      <point x="290" y="517" type="curve"/>
      <point x="325" y="495"/>
      <point x="388" y="448"/>
      <point x="415" y="422" type="curve"/>
      <point x="498" y="516"/>
      <point x="574" y="669"/>
    </contour>
    <contour>
      <point x="156" y="549" type="line"/>
      <point x="156" y="-94" type="line"/>
      <point x="300" y="-94" type="line"/>
      <point x="300" y="689" type="line"/>
      <point x="298" y="691" type="line"/>
    </contour>
    <contour>
      <point x="395" y="803" type="curve"/>
      <point x="250" y="850" type="line"/>
      <point x="196" y="707"/>
      <point x="103" y="564"/>
      <point x="6" y="475" type="curve"/>
      <point x="33" y="438"/>
      <point x="76" y="356"/>
      <point x="91" y="319" type="curve"/>
      <point x="209" y="436"/>
      <point x="325" y="627"/>
    </contour>
  </outline>
</glyph>
<glyph name="uni4F4D" format="2">
  <advance width="1000" height="1000"/>
  <unicode hex="4F4D"/>
  <note>
cid09979
</note>
  <outline>
    <contour>
      <point x="722" y="602" type="line"/>
      <point x="722" y="841" type="line"/>
      <point x="575" y="841" type="line"/>
      <point x="575" y="602" type="line"/>
    </contour>
    <contour>
      <point x="961" y="546" type="line"/>
      <point x="961" y="683" type="line"/>
      <point x="353" y="683" type="line"/>
      <point x="353" y="546" type="line"/>
    </contour>
    <contour>
      <point x="546" y="512" type="curve"/>
      <point x="415" y="489" type="line"/>
      <point x="444" y="363"/>
      <point x="466" y="201"/>
      <point x="468" y="103" type="curve"/>
      <point x="611" y="133" type="line"/>
      <point x="606" y="232"/>
      <point x="578" y="389"/>
    </contour>
    <contour>
      <point x="895" y="492" type="curve"/>
      <point x="737" y="517" type="line"/>
      <point x="725" y="395"/>
      <point x="698" y="234"/>
      <point x="670" y="125" type="curve"/>
      <point x="802" y="98" type="line"/>
      <point x="834" y="203"/>
      <point x="872" y="366"/>
    </contour>
    <contour>
      <point x="979" y="-55" type="line"/>
      <point x="979" y="82" type="line"/>
      <point x="335" y="82" type="line"/>
      <point x="335" y="-55" type="line"/>
    </contour>
    <contour>
      <point x="378" y="808" type="curve"/>
      <point x="242" y="853" type="line"/>
      <point x="190" y="717"/>
      <point x="100" y="580"/>
      <point x="8" y="495" type="curve"/>
      <point x="32" y="459"/>
      <point x="71" y="377"/>
      <point x="83" y="342" type="curve"/>
      <point x="198" y="455"/>
      <point x="310" y="639"/>
    </contour>
    <contour>
      <point x="150" y="566" type="line"/>
      <point x="150" y="-92" type="line"/>
      <point x="288" y="-92" type="line"/>
      <point x="288" y="703" type="line"/>
      <point x="288" y="704" type="line"/>
    </contour>
  </outline>
</glyph>
<glyph name="uni4FDE" format="2">
  <advance width="1000" height="1000"/>
  <unicode hex="4FDE"/>
  <note>
cid10212
</note>
  <outline>
    <contour>
      <point x="715" y="488" type="line"/>
      <point x="715" y="609" type="line"/>
      <point x="242" y="609" type="line"/>
      <point x="242" y="488" type="line"/>
    </contour>
    <contour>
      <point x="490" y="725" type="curve"/>
      <point x="578" y="629"/>
      <point x="751" y="525"/>
      <point x="891" y="470" type="curve"/>
      <point x="916" y="513"/>
      <point x="949" y="566"/>
      <point x="984" y="603" type="curve"/>
      <point x="826" y="645"/>
      <point x="674" y="729"/>
      <point x="560" y="853" type="curve"/>
      <point x="408" y="853" type="line"/>
      <point x="329" y="756"/>
      <point x="170" y="647"/>
      <point x="6" y="592" type="curve"/>
      <point x="35" y="561"/>
      <point x="73" y="504"/>
      <point x="90" y="469" type="curve"/>
      <point x="246" y="530"/>
      <point x="404" y="630"/>
    </contour>
    <contour>
      <point x="675" y="67" type="line"/>
      <point x="675" y="423" type="line"/>
      <point x="546" y="423" type="line"/>
      <point x="546" y="67" type="line"/>
    </contour>
    <contour>
      <point x="498" y="19" type="curve" smooth="yes"/>
      <point x="498" y="442" type="line"/>
      <point x="370" y="442" type="line"/>
      <point x="370" y="21" type="line" smooth="yes"/>
      <point x="370" y="10"/>
      <point x="368" y="7"/>
      <point x="359" y="7" type="curve" smooth="yes"/>
      <point x="345" y="7"/>
      <point x="304" y="7"/>
      <point x="276" y="9" type="curve"/>
      <point x="291" y="-16"/>
      <point x="311" y="-66"/>
      <point x="317" y="-97" type="curve"/>
      <point x="372" y="-97"/>
      <point x="418" y="-95"/>
      <point x="452" y="-78" type="curve" smooth="yes"/>
      <point x="488" y="-59"/>
      <point x="498" y="-31"/>
    </contour>
    <contour>
      <point x="861" y="32" type="curve" smooth="yes"/>
      <point x="861" y="448" type="line"/>
      <point x="728" y="448" type="line"/>
      <point x="728" y="35" type="line" smooth="yes"/>
      <point x="728" y="23"/>
      <point x="724" y="19"/>
      <point x="709" y="19" type="curve" smooth="yes"/>
      <point x="695" y="19"/>
      <point x="650" y="19"/>
      <point x="611" y="20" type="curve"/>
      <point x="629" y="-12"/>
      <point x="648" y="-60"/>
      <point x="653" y="-94" type="curve"/>
      <point x="719" y="-94"/>
      <point x="772" y="-93"/>
      <point x="811" y="-75" type="curve" smooth="yes"/>
      <point x="851" y="-57"/>
      <point x="861" y="-27"/>
    </contour>
    <contour>
      <point x="446" y="330" type="line"/>
      <point x="446" y="442" type="line"/>
      <point x="126" y="442" type="line"/>
      <point x="126" y="-93" type="line"/>
      <point x="251" y="-93" type="line"/>
      <point x="251" y="330" type="line"/>
    </contour>
    <contour>
      <point x="429" y="199" type="line"/>
      <point x="429" y="297" type="line"/>
      <point x="183" y="297" type="line"/>
      <point x="183" y="199" type="line"/>
    </contour>
    <contour>
      <point x="433" y="66" type="line"/>
      <point x="433" y="164" type="line"/>
      <point x="187" y="164" type="line"/>
      <point x="187" y="66" type="line"/>
    </contour>
  </outline>
</glyph>
<glyph name="uni4FEC" format="2">
  <advance width="1000"/>
  <unicode hex="4FEC"/>
  <note>
cid10209
</note>
  <outline>
    <contour>
      <point x="815" y="820" type="curve"/>
      <point x="663" y="842" type="line"/>
      <point x="656" y="580"/>
      <point x="622" y="253"/>
      <point x="581" y="41" type="curve"/>
      <point x="710" y="17" type="line"/>
      <point x="755" y="225"/>
      <point x="796" y="544"/>
    </contour>
    <contour>
      <point x="878" y="413" type="curve"/>
      <point x="750" y="366" type="line"/>
      <point x="798" y="221"/>
      <point x="838" y="28"/>
      <point x="843" y="-97" type="curve"/>
      <point x="984" y="-48" type="line"/>
      <point x="973" y="79"/>
      <point x="932" y="265"/>
    </contour>
    <contour>
      <point x="524" y="79" type="curve"/>
      <point x="556" y="-66" type="line"/>
      <point x="659" y="-47"/>
      <point x="787" y="-23"/>
      <point x="908" y="2" type="curve"/>
      <point x="897" y="132" type="line"/>
      <point x="762" y="111"/>
      <point x="619" y="90"/>
    </contour>
    <contour>
      <point x="502" y="756" type="line"/>
      <point x="379" y="756" type="line"/>
      <point x="379" y="-95" type="line"/>
      <point x="502" y="-95" type="line"/>
    </contour>
    <contour>
      <point x="617" y="574" type="line"/>
      <point x="270" y="574" type="line"/>
      <point x="270" y="439" type="line"/>
      <point x="617" y="439" type="line"/>
    </contour>
    <contour>
      <point x="459" y="485" type="curve"/>
      <point x="385" y="519" type="line"/>
      <point x="359" y="409"/>
      <point x="305" y="297"/>
      <point x="238" y="228" type="curve"/>
      <point x="256" y="189"/>
      <point x="282" y="129"/>
      <point x="292" y="86" type="curve"/>
      <point x="370" y="171"/>
      <point x="425" y="331"/>
    </contour>
    <contour>
      <point x="628" y="741" type="curve"/>
      <point x="547" y="849" type="line"/>
      <point x="476" y="812"/>
      <point x="362" y="781"/>
      <point x="258" y="764" type="curve"/>
      <point x="271" y="735"/>
      <point x="285" y="684"/>
      <point x="289" y="652" type="curve"/>
      <point x="400" y="667"/>
      <point x="529" y="695"/>
    </contour>
    <contour>
      <point x="486" y="429" type="curve"/>
      <point x="428" y="376" type="line"/>
      <point x="458" y="329"/>
      <point x="507" y="239"/>
      <point x="530" y="186" type="curve"/>
      <point x="602" y="286" type="line"/>
      <point x="584" y="311"/>
      <point x="510" y="406"/>
    </contour>
    <contour>
      <point x="305" y="814" type="curve"/>
      <point x="176" y="853" type="line"/>
      <point x="139" y="721"/>
      <point x="76" y="589"/>
      <point x="6" y="502" type="curve"/>
      <point x="27" y="464"/>
      <point x="59" y="378"/>
      <point x="68" y="343" type="curve"/>
      <point x="165" y="460"/>
      <point x="252" y="647"/>
    </contour>
    <contour>
      <point x="233" y="668" type="line"/>
      <point x="109" y="544" type="line"/>
      <point x="109" y="-94" type="line"/>
      <point x="235" y="-94" type="line"/>
      <point x="235" y="666" type="line"/>
    </contour>
  </outline>
</glyph>
<glyph name="uni503C" format="2">
  <advance width="1000" height="1000"/>
  <unicode hex="503C"/>
  <note>
cid10373
</note>
  <outline>
    <contour>
      <point x="955" y="647" type="line"/>
      <point x="955" y="770" type="line"/>
      <point x="333" y="770" type="line"/>
      <point x="333" y="647" type="line"/>
    </contour>
    <contour>
      <point x="973" y="-82" type="line"/>
      <point x="973" y="39" type="line"/>
      <point x="293" y="39" type="line"/>
      <point x="293" y="-82" type="line"/>
    </contour>
    <contour>
      <point x="904" y="20" type="line"/>
      <point x="904" y="592" type="line"/>
      <point x="375" y="592" type="line"/>
      <point x="375" y="20" type="line"/>
      <point x="511" y="20" type="line"/>
      <point x="511" y="484" type="line"/>
      <point x="762" y="484" type="line"/>
      <point x="762" y="20" type="line"/>
    </contour>
    <contour>
      <point x="792" y="349" type="line"/>
      <point x="792" y="450" type="line"/>
      <point x="472" y="450" type="line"/>
      <point x="472" y="349" type="line"/>
    </contour>
    <contour>
      <point x="825" y="213" type="line"/>
      <point x="825" y="314" type="line"/>
      <point x="469" y="314" type="line"/>
      <point x="469" y="213" type="line"/>
    </contour>
    <contour>
      <point x="794" y="76" type="line"/>
      <point x="794" y="177" type="line"/>
      <point x="465" y="177" type="line"/>
      <point x="465" y="76" type="line"/>
    </contour>
    <contour>
      <point x="704" y="549" type="line"/>
      <point x="704" y="855" type="line"/>
      <point x="561" y="855" type="line"/>
      <point x="561" y="549" type="line"/>
    </contour>
    <contour>
      <point x="359" y="808" type="curve"/>
      <point x="222" y="851" type="line"/>
      <point x="174" y="714"/>
      <point x="91" y="576"/>
      <point x="5" y="488" type="curve"/>
      <point x="29" y="452"/>
      <point x="68" y="371"/>
      <point x="81" y="336" type="curve"/>
      <point x="190" y="451"/>
      <point x="295" y="638"/>
    </contour>
    <contour>
      <point x="268" y="701" type="line"/>
      <point x="268" y="702" type="line"/>
      <point x="130" y="564" type="line"/>
      <point x="130" y="-94" type="line"/>
      <point x="268" y="-94" type="line"/>
    </contour>
  </outline>
</glyph>
<glyph name="uni5077" format="2">
  <advance width="1000" height="1000"/>
  <unicode hex="5077"/>
  <note>
cid10476
</note>
  <outline>
    <contour>
      <point x="804" y="483" type="line"/>
      <point x="804" y="597" type="line"/>
      <point x="434" y="597" type="line"/>
      <point x="434" y="483" type="line"/>
    </contour>
    <contour>
      <point x="630" y="36" type="curve" smooth="yes"/>
      <point x="630" y="445" type="line"/>
      <point x="504" y="445" type="line"/>
      <point x="504" y="39" type="line" smooth="yes"/>
      <point x="504" y="30"/>
      <point x="501" y="27"/>
      <point x="492" y="27" type="curve" smooth="yes"/>
      <point x="484" y="27"/>
      <point x="459" y="26"/>
      <point x="437" y="28" type="curve"/>
      <point x="452" y="-6"/>
      <point x="466" y="-58"/>
      <point x="469" y="-93" type="curve"/>
      <point x="520" y="-93"/>
      <point x="559" y="-92"/>
      <point x="591" y="-71" type="curve" smooth="yes"/>
      <point x="623" y="-51"/>
      <point x="630" y="-17"/>
    </contour>
    <contour>
      <point x="550" y="337" type="line"/>
      <point x="550" y="445" type="line"/>
      <point x="305" y="445" type="line"/>
      <point x="305" y="-95" type="line"/>
      <point x="429" y="-95" type="line"/>
      <point x="429" y="337" type="line"/>
    </contour>
    <contour>
      <point x="779" y="66" type="line"/>
      <point x="779" y="422" type="line"/>
      <point x="663" y="422" type="line"/>
      <point x="663" y="66" type="line"/>
    </contour>
    <contour>
      <point x="619" y="726" type="curve"/>
      <point x="684" y="642"/>
      <point x="805" y="537"/>
      <point x="909" y="480" type="curve"/>
      <point x="931" y="523"/>
      <point x="963" y="574"/>
      <point x="992" y="609" type="curve"/>
      <point x="877" y="655"/>
      <point x="764" y="752"/>
      <point x="682" y="856" type="curve"/>
      <point x="546" y="856" type="line"/>
      <point x="489" y="769"/>
      <point x="372" y="658"/>
      <point x="254" y="601" type="curve"/>
      <point x="280" y="570"/>
      <point x="314" y="516"/>
      <point x="330" y="480" type="curve"/>
      <point x="444" y="541"/>
      <point x="555" y="642"/>
    </contour>
    <contour>
      <point x="931" y="30" type="curve" smooth="yes"/>
      <point x="931" y="454" type="line"/>
      <point x="811" y="454" type="line"/>
      <point x="811" y="32" type="line" smooth="yes"/>
      <point x="811" y="21"/>
      <point x="807" y="18"/>
      <point x="796" y="18" type="curve" smooth="yes"/>
      <point x="784" y="18"/>
      <point x="746" y="18"/>
      <point x="713" y="19" type="curve"/>
      <point x="727" y="-13"/>
      <point x="742" y="-62"/>
      <point x="746" y="-95" type="curve"/>
      <point x="807" y="-95"/>
      <point x="853" y="-93"/>
      <point x="887" y="-75" type="curve" smooth="yes"/>
      <point x="922" y="-56"/>
      <point x="931" y="-25"/>
    </contour>
    <contour>
      <point x="330" y="815" type="curve"/>
      <point x="197" y="855" type="line"/>
      <point x="156" y="713"/>
      <point x="85" y="571"/>
      <point x="7" y="480" type="curve"/>
      <point x="30" y="441"/>
      <point x="65" y="356"/>
      <point x="76" y="320" type="curve"/>
      <point x="180" y="442"/>
      <point x="274" y="639"/>
    </contour>
    <contour>
      <point x="256" y="696" type="line"/>
      <point x="252" y="698" type="line"/>
      <point x="118" y="564" type="line"/>
      <point x="118" y="-94" type="line"/>
      <point x="256" y="-94" type="line"/>
    </contour>
    <contour>
      <point x="566" y="206" type="line"/>
      <point x="566" y="307" type="line"/>
      <point x="396" y="307" type="line"/>
      <point x="396" y="206" type="line"/>
    </contour>
    <contour>
      <point x="566" y="74" type="line"/>
      <point x="566" y="175" type="line"/>
      <point x="396" y="175" type="line"/>
      <point x="396" y="74" type="line"/>
    </contour>
  </outline>
</glyph>
<glyph name="uni507A" format="2">
  <advance width="1000" height="1000"/>
  <unicode hex="507A"/>
  <note>
cid10459
</note>
  <outline>
    <contour>
      <point x="336" y="812" type="curve"/>
      <point x="203" y="853" type="line"/>
      <point x="160" y="714"/>
      <point x="86" y="575"/>
      <point x="6" y="486" type="curve"/>
      <point x="28" y="448"/>
      <point x="63" y="363"/>
      <point x="73" y="326" type="curve"/>
      <point x="180" y="446"/>
      <point x="278" y="638"/>
    </contour>
    <contour>
      <point x="259" y="699" type="line"/>
      <point x="122" y="562" type="line"/>
      <point x="122" y="-96" type="line"/>
      <point x="260" y="-96" type="line"/>
      <point x="260" y="698" type="line"/>
    </contour>
    <contour>
      <point x="450" y="664" type="curve"/>
      <point x="351" y="629" type="line"/>
      <point x="427" y="387"/>
      <point x="594" y="328"/>
      <point x="793" y="328" type="curve" smooth="yes"/>
      <point x="911" y="328" type="line"/>
      <point x="946" y="328" type="line"/>
      <point x="952" y="362"/>
      <point x="968" y="418"/>
      <point x="984" y="446" type="curve"/>
      <point x="942" y="444"/>
      <point x="846" y="444"/>
      <point x="804" y="444" type="curve" smooth="yes"/>
      <point x="653" y="444"/>
      <point x="504" y="484"/>
    </contour>
    <contour>
      <point x="529" y="829" type="curve"/>
      <point x="410" y="856" type="line"/>
      <point x="378" y="749"/>
      <point x="317" y="647"/>
      <point x="240" y="585" type="curve"/>
      <point x="268" y="568"/>
      <point x="318" y="530"/>
      <point x="339" y="510" type="curve"/>
      <point x="417" y="584"/>
      <point x="488" y="702"/>
    </contour>
    <contour>
      <point x="574" y="773" type="line"/>
      <point x="483" y="773" type="line"/>
      <point x="386" y="665" type="line"/>
      <point x="574" y="665" type="line"/>
    </contour>
    <contour>
      <point x="577" y="773" type="line"/>
      <point x="553" y="773" type="line"/>
      <point x="553" y="752" type="line"/>
      <point x="516" y="585"/>
      <point x="403" y="442"/>
      <point x="263" y="383" type="curve"/>
      <point x="288" y="363"/>
      <point x="329" y="311"/>
      <point x="345" y="282" type="curve"/>
      <point x="496" y="354"/>
      <point x="623" y="532"/>
      <point x="674" y="742" type="curve"/>
      <point x="598" y="777" type="line"/>
    </contour>
    <contour>
      <point x="890" y="312" type="line"/>
      <point x="381" y="312" type="line"/>
      <point x="381" y="-94" type="line"/>
      <point x="512" y="-94" type="line"/>
      <point x="512" y="199" type="line"/>
      <point x="752" y="199" type="line"/>
      <point x="752" y="-94" type="line"/>
      <point x="890" y="-94" type="line"/>
    </contour>
    <contour>
      <point x="812" y="38" type="line"/>
      <point x="458" y="38" type="line"/>
      <point x="458" y="-69" type="line"/>
      <point x="812" y="-69" type="line"/>
    </contour>
    <contour>
      <point x="812" y="168" type="line"/>
      <point x="458" y="168" type="line"/>
      <point x="458" y="71" type="line"/>
      <point x="812" y="71" type="line"/>
    </contour>
    <contour>
      <point x="795" y="708" type="curve"/>
      <point x="723" y="614" type="line"/>
      <point x="785" y="564"/>
      <point x="867" y="492"/>
      <point x="903" y="444" type="curve"/>
      <point x="980" y="550" type="line"/>
      <point x="941" y="596"/>
      <point x="856" y="662"/>
    </contour>
    <contour>
      <point x="877" y="827" type="curve"/>
      <point x="749" y="848" type="line"/>
      <point x="727" y="716"/>
      <point x="676" y="597"/>
      <point x="594" y="526" type="curve"/>
      <point x="623" y="508"/>
      <point x="675" y="466"/>
      <point x="696" y="444" type="curve"/>
      <point x="784" y="530"/>
      <point x="845" y="669"/>
    </contour>
  </outline>
</glyph>
<glyph name="uni50AF" format="2">
  <advance width="1000" height="1000"/>
  <unicode hex="50AF"/>
  <note>
cid10560
</note>
  <outline>
    <contour>
      <point x="472" y="371" type="line"/>
      <point x="472" y="651" type="line"/>
      <point x="809" y="651" type="line"/>
      <point x="809" y="371" type="line"/>
    </contour>
    <contour>
      <point x="940" y="765" type="line"/>
      <point x="350" y="765" type="line"/>
      <point x="350" y="256" type="line"/>
      <point x="940" y="256" type="line"/>
    </contour>
    <contour>
      <point x="750" y="849" type="curve"/>
      <point x="590" y="860" type="line"/>
      <point x="585" y="823"/>
      <point x="573" y="773"/>
      <point x="562" y="735" type="curve"/>
      <point x="696" y="720" type="line"/>
      <point x="711" y="752"/>
      <point x="730" y="797"/>
    </contour>
    <contour>
      <point x="616" y="312" type="curve"/>
      <point x="535" y="235" type="line"/>
      <point x="589" y="203"/>
      <point x="652" y="153"/>
      <point x="678" y="115" type="curve"/>
      <point x="766" y="200" type="line"/>
      <point x="735" y="238"/>
      <point x="671" y="284"/>
    </contour>
    <contour>
      <point x="878" y="204" type="curve"/>
      <point x="766" y="150" type="line"/>
      <point x="810" y="85"/>
      <point x="850" y="-5"/>
      <point x="863" y="-64" type="curve"/>
      <point x="983" y="-3" type="line"/>
      <point x="967" y="57"/>
      <point x="925" y="141"/>
    </contour>
    <contour>
      <point x="598" y="200" type="line"/>
      <point x="472" y="200" type="line"/>
      <point x="472" y="65" type="line" smooth="yes"/>
      <point x="472" y="-43"/>
      <point x="495" y="-80"/>
      <point x="607" y="-80" type="curve" smooth="yes"/>
      <point x="628" y="-80"/>
      <point x="677" y="-80"/>
      <point x="700" y="-80" type="curve" smooth="yes"/>
      <point x="779" y="-80"/>
      <point x="813" y="-52"/>
      <point x="827" y="57" type="curve"/>
      <point x="792" y="65"/>
      <point x="738" y="85"/>
      <point x="714" y="104" type="curve"/>
      <point x="711" y="45"/>
      <point x="706" y="38"/>
      <point x="686" y="38" type="curve" smooth="yes"/>
      <point x="673" y="38"/>
      <point x="637" y="38"/>
      <point x="626" y="38" type="curve" smooth="yes"/>
      <point x="602" y="38"/>
      <point x="598" y="40"/>
      <point x="598" y="67" type="curve" smooth="yes"/>
    </contour>
    <contour>
      <point x="743" y="632" type="line"/>
      <point x="616" y="632" type="line"/>
      <point x="582" y="564" type="line"/>
      <point x="743" y="564" type="line"/>
    </contour>
    <contour>
      <point x="728" y="632" type="line"/>
      <point x="712" y="632" type="line"/>
      <point x="712" y="618" type="line"/>
      <point x="686" y="535"/>
      <point x="611" y="467"/>
      <point x="504" y="430" type="curve"/>
      <point x="522" y="415"/>
      <point x="547" y="384"/>
      <point x="559" y="364" type="curve"/>
      <point x="676" y="405"/>
      <point x="764" y="494"/>
      <point x="804" y="612" type="curve"/>
      <point x="745" y="635" type="line"/>
    </contour>
    <contour>
      <point x="576" y="566" type="curve"/>
      <point x="509" y="510" type="line"/>
      <point x="595" y="476"/>
      <point x="690" y="421"/>
      <point x="740" y="375" type="curve"/>
      <point x="805" y="436" type="line"/>
      <point x="751" y="483"/>
      <point x="656" y="537"/>
    </contour>
    <contour>
      <point x="664" y="657" type="curve"/>
      <point x="583" y="677" type="line"/>
      <point x="563" y="618"/>
      <point x="515" y="567"/>
      <point x="459" y="544" type="curve"/>
      <point x="481" y="527"/>
      <point x="506" y="501"/>
      <point x="517" y="483" type="curve"/>
      <point x="584" y="517"/>
      <point x="641" y="584"/>
    </contour>
    <contour>
      <point x="458" y="169" type="curve"/>
      <point x="340" y="202" type="line"/>
      <point x="330" y="125"/>
      <point x="306" y="52"/>
      <point x="264" y="5" type="curve"/>
      <point x="373" y="-65" type="line"/>
      <point x="425" y="-7"/>
      <point x="445" y="81"/>
    </contour>
    <contour>
      <point x="359" y="808" type="curve"/>
      <point x="222" y="851" type="line"/>
      <point x="174" y="713"/>
      <point x="91" y="575"/>
      <point x="5" y="488" type="curve"/>
      <point x="29" y="452"/>
      <point x="68" y="371"/>
      <point x="81" y="335" type="curve"/>
      <point x="190" y="451"/>
      <point x="295" y="637"/>
    </contour>
    <contour>
      <point x="268" y="702" type="line"/>
      <point x="130" y="564" type="line"/>
      <point x="130" y="-94" type="line"/>
      <point x="268" y="-94" type="line"/>
      <point x="268" y="701" type="line"/>
    </contour>
  </outline>
</glyph>
<glyph name="uni519A" format="2">
  <advance width="1000" height="1000"/>
  <unicode hex="519A"/>
  <note>
cid10975
</note>
  <outline>
    <contour>
      <point x="826" y="111" type="line"/>
      <point x="175" y="111" type="line"/>
      <point x="175" y="-31" type="line"/>
      <point x="826" y="-31" type="line"/>
    </contour>
    <contour>
      <point x="256" y="421" type="line"/>
      <point x="104" y="421" type="line"/>
      <point x="104" y="-95" type="line"/>
      <point x="256" y="-95" type="line"/>
    </contour>
    <contour>
      <point x="901" y="421" type="line"/>
      <point x="749" y="421" type="line"/>
      <point x="749" y="-95" type="line"/>
      <point x="901" y="-95" type="line"/>
    </contour>
    <contour>
      <point x="573" y="593" type="line"/>
      <point x="421" y="593" type="line"/>
      <point x="421" y="47" type="line"/>
      <point x="573" y="47" type="line"/>
    </contour>
    <contour>
      <point x="939" y="802" type="line"/>
      <point x="65" y="802" type="line"/>
      <point x="65" y="535" type="line"/>
      <point x="216" y="535" type="line"/>
      <point x="216" y="660" type="line"/>
      <point x="781" y="660" type="line"/>
      <point x="781" y="535" type="line"/>
      <point x="939" y="535" type="line"/>
    </contour>
  </outline>
</glyph>
<glyph name="uni51A2" format="2">
  <advance width="1000" height="1000"/>
  <unicode hex="51A2"/>
  <note>
cid11010
</note>
  <outline>
    <contour>
      <point x="940" y="564" type="line"/>
      <point x="940" y="808" type="line"/>
      <point x="62" y="808" type="line"/>
      <point x="62" y="564" type="line"/>
      <point x="202" y="564" type="line"/>
      <point x="202" y="683" type="line"/>
      <point x="793" y="683" type="line"/>
      <point x="793" y="564" type="line"/>
    </contour>
    <contour>
      <point x="769" y="526" type="line"/>
      <point x="769" y="642" type="line"/>
      <point x="228" y="642" type="line"/>
      <point x="228" y="526" type="line"/>
    </contour>
    <contour>
      <point x="379" y="483" type="curve"/>
      <point x="277" y="414" type="line"/>
      <point x="525" y="274"/>
      <point x="533" y="94"/>
      <point x="465" y="51" type="curve"/>
      <point x="448" y="36"/>
      <point x="427" y="34"/>
      <point x="401" y="34" type="curve" smooth="yes"/>
      <point x="373" y="34"/>
      <point x="341" y="35"/>
      <point x="306" y="40" type="curve"/>
      <point x="331" y="0"/>
      <point x="342" y="-55"/>
      <point x="343" y="-93" type="curve"/>
      <point x="372" y="-95"/>
      <point x="402" y="-96"/>
      <point x="428" y="-96" type="curve" smooth="yes"/>
      <point x="482" y="-95"/>
      <point x="516" y="-87"/>
      <point x="557" y="-58" type="curve"/>
      <point x="691" y="25"/>
      <point x="692" y="311"/>
    </contour>
    <contour>
      <point x="590" y="555" type="curve"/>
      <point x="472" y="612" type="line"/>
      <point x="377" y="532"/>
      <point x="204" y="465"/>
      <point x="45" y="430" type="curve"/>
      <point x="71" y="404"/>
      <point x="112" y="349"/>
      <point x="130" y="321" type="curve"/>
      <point x="288" y="370"/>
      <point x="474" y="453"/>
    </contour>
    <contour>
      <point x="492" y="339" type="curve"/>
      <point x="402" y="407" type="line"/>
      <point x="324" y="349"/>
      <point x="167" y="285"/>
      <point x="49" y="260" type="curve"/>
      <point x="77" y="232"/>
      <point x="109" y="187"/>
      <point x="127" y="154" type="curve"/>
      <point x="244" y="194"/>
      <point x="403" y="271"/>
    </contour>
    <contour>
      <point x="577" y="226" type="curve"/>
      <point x="485" y="299" type="line"/>
      <point x="389" y="208"/>
      <point x="198" y="122"/>
      <point x="33" y="91" type="curve"/>
      <point x="61" y="60"/>
      <point x="90" y="12"/>
      <point x="106" y="-24" type="curve"/>
      <point x="270" y="23"/>
      <point x="467" y="122"/>
    </contour>
    <contour>
      <point x="648" y="588" type="curve"/>
      <point x="529" y="569" type="line"/>
      <point x="580" y="286"/>
      <point x="664" y="78"/>
      <point x="879" y="-27" type="curve"/>
      <point x="900" y="13"/>
      <point x="945" y="74"/>
      <point x="978" y="103" type="curve"/>
      <point x="779" y="181"/>
      <point x="690" y="361"/>
    </contour>
    <contour>
      <point x="941" y="424" type="curve"/>
      <point x="827" y="506" type="line"/>
      <point x="775" y="448"/>
      <point x="689" y="377"/>
      <point x="624" y="336" type="curve"/>
      <point x="721" y="259" type="line"/>
      <point x="786" y="299"/>
      <point x="872" y="362"/>
    </contour>
    <contour>
      <point x="263" y="364" type="curve"/>
      <point x="153" y="312" type="line"/>
      <point x="235" y="226"/>
      <point x="317" y="114"/>
      <point x="353" y="39" type="curve"/>
      <point x="474" y="101" type="line"/>
      <point x="433" y="175"/>
      <point x="345" y="284"/>
    </contour>
  </outline>
</glyph>
<glyph name="uni5241" format="2">
  <advance width="1000" height="1000"/>
  <unicode hex="5241"/>
  <note>
cid11222
</note>
  <outline>
    <contour>
      <point x="580" y="395" type="line"/>
      <point x="40" y="395" type="line"/>
      <point x="40" y="266" type="line"/>
      <point x="580" y="266" type="line"/>
    </contour>
    <contour>
      <point x="377" y="471" type="line"/>
      <point x="233" y="471" type="line"/>
      <point x="233" y="-95" type="line"/>
      <point x="377" y="-95" type="line"/>
    </contour>
    <contour>
      <point x="347" y="291" type="curve"/>
      <point x="236" y="327" type="line"/>
      <point x="186" y="220"/>
      <point x="98" y="121"/>
      <point x="8" y="70" type="curve"/>
      <point x="39" y="45"/>
      <point x="83" y="-6"/>
      <point x="104" y="-39" type="curve"/>
      <point x="197" y="26"/>
      <point x="291" y="154"/>
    </contour>
    <contour>
      <point x="754" y="746" type="line"/>
      <point x="619" y="746" type="line"/>
      <point x="619" y="179" type="line"/>
      <point x="754" y="179" type="line"/>
    </contour>
    <contour>
      <point x="943" y="832" type="line"/>
      <point x="802" y="832" type="line"/>
      <point x="802" y="72" type="line" smooth="yes"/>
      <point x="802" y="55"/>
      <point x="796" y="50"/>
      <point x="779" y="50" type="curve" smooth="yes"/>
      <point x="760" y="50"/>
      <point x="705" y="50"/>
      <point x="652" y="53" type="curve"/>
      <point x="671" y="11"/>
      <point x="692" y="-55"/>
      <point x="697" y="-96" type="curve"/>
      <point x="781" y="-96"/>
      <point x="845" y="-91"/>
      <point x="887" y="-67" type="curve" smooth="yes"/>
      <point x="930" y="-43"/>
      <point x="943" y="-4"/>
      <point x="943" y="71" type="curve" smooth="yes"/>
    </contour>
    <contour>
      <point x="405" y="822" type="line"/>
      <point x="215" y="822" type="line"/>
      <point x="215" y="694" type="line"/>
      <point x="405" y="694" type="line"/>
    </contour>
    <contour>
      <point x="271" y="822" type="line"/>
      <point x="134" y="822" type="line"/>
      <point x="134" y="720" type="line" smooth="yes"/>
      <point x="134" y="651"/>
      <point x="124" y="569"/>
      <point x="25" y="508" type="curve"/>
      <point x="52" y="489"/>
      <point x="107" y="433"/>
      <point x="125" y="405" type="curve"/>
      <point x="245" y="483"/>
      <point x="271" y="613"/>
      <point x="271" y="717" type="curve" smooth="yes"/>
    </contour>
    <contour>
      <point x="365" y="256" type="curve"/>
      <point x="275" y="196" type="line"/>
      <point x="335" y="144"/>
      <point x="429" y="51"/>
      <point x="489" y="-16" type="curve"/>
      <point x="588" y="88" type="line"/>
      <point x="520" y="142"/>
      <point x="422" y="216"/>
    </contour>
    <contour>
      <point x="467" y="822" type="line"/>
      <point x="341" y="822" type="line"/>
      <point x="341" y="605" type="line" smooth="yes"/>
      <point x="341" y="487"/>
      <point x="372" y="450"/>
      <point x="465" y="450" type="curve" smooth="yes"/>
      <point x="475" y="450"/>
      <point x="486" y="450"/>
      <point x="496" y="450" type="curve" smooth="yes"/>
      <point x="553" y="450"/>
      <point x="587" y="490"/>
      <point x="596" y="633" type="curve"/>
      <point x="564" y="640"/>
      <point x="526" y="661"/>
      <point x="498" y="687" type="curve"/>
      <point x="496" y="588"/>
      <point x="493" y="573"/>
      <point x="483" y="573" type="curve" smooth="yes"/>
      <point x="482" y="573"/>
      <point x="479" y="573"/>
      <point x="478" y="573" type="curve" smooth="yes"/>
      <point x="471" y="573"/>
      <point x="467" y="577"/>
      <point x="467" y="607" type="curve" smooth="yes"/>
    </contour>
  </outline>
</glyph>
<glyph name="uni53A9" format="2">
  <advance width="1000" height="1000"/>
  <unicode hex="53A9"/>
  <note>
cid62160
</note>
  <outline>
    <contour>
      <point x="961" y="274" type="line"/>
      <point x="961" y="389" type="line"/>
      <point x="647" y="389" type="line"/>
      <point x="647" y="274" type="line"/>
    </contour>
    <contour>
      <point x="951" y="535" type="line"/>
      <point x="951" y="644" type="line"/>
      <point x="590" y="644" type="line"/>
      <point x="590" y="535" type="line"/>
    </contour>
    <contour>
      <point x="962" y="687" type="line"/>
      <point x="962" y="808" type="line"/>
      <point x="174" y="808" type="line"/>
      <point x="174" y="687" type="line"/>
    </contour>
    <contour>
      <point x="229" y="486" type="curve" smooth="yes"/>
      <point x="229" y="808" type="line"/>
      <point x="91" y="808" type="line"/>
      <point x="91" y="486" type="line" smooth="yes"/>
      <point x="91" y="335"/>
      <point x="86" y="121"/>
      <point x="14" y="-23" type="curve"/>
      <point x="49" y="-35"/>
      <point x="111" y="-70"/>
      <point x="138" y="-92" type="curve"/>
      <point x="217" y="65"/>
      <point x="229" y="318"/>
    </contour>
    <contour>
      <point x="451" y="375" type="line"/>
      <point x="369" y="375" type="line"/>
      <point x="369" y="415" type="line"/>
      <point x="451" y="415" type="line"/>
    </contour>
    <contour>
      <point x="451" y="496" type="line"/>
      <point x="369" y="496" type="line"/>
      <point x="369" y="535" type="line"/>
      <point x="451" y="535" type="line"/>
    </contour>
    <contour>
      <point x="568" y="288" type="line"/>
      <point x="568" y="622" type="line"/>
      <point x="257" y="622" type="line"/>
      <point x="257" y="288" type="line"/>
    </contour>
    <contour>
      <point x="496" y="669" type="curve"/>
      <point x="359" y="694" type="line"/>
      <point x="353" y="657"/>
      <point x="339" y="606"/>
      <point x="326" y="569" type="curve"/>
      <point x="433" y="544" type="line"/>
      <point x="450" y="575"/>
      <point x="472" y="621"/>
    </contour>
    <contour>
      <point x="376" y="78" type="curve" smooth="yes"/>
      <point x="376" y="272" type="line"/>
      <point x="254" y="272" type="line"/>
      <point x="254" y="77" type="line" smooth="yes"/>
      <point x="254" y="-27"/>
      <point x="277" y="-62"/>
      <point x="382" y="-62" type="curve" smooth="yes"/>
      <point x="402" y="-62"/>
      <point x="450" y="-62"/>
      <point x="471" y="-62" type="curve" smooth="yes"/>
      <point x="549" y="-62"/>
      <point x="581" y="-29"/>
      <point x="593" y="91" type="curve"/>
      <point x="560" y="98"/>
      <point x="510" y="117"/>
      <point x="486" y="136" type="curve"/>
      <point x="483" y="59"/>
      <point x="478" y="47"/>
      <point x="458" y="47" type="curve" smooth="yes"/>
      <point x="446" y="47"/>
      <point x="411" y="47"/>
      <point x="402" y="47" type="curve" smooth="yes"/>
      <point x="379" y="47"/>
      <point x="376" y="50"/>
    </contour>
    <contour>
      <point x="579" y="186" type="curve"/>
      <point x="487" y="270" type="line"/>
      <point x="442" y="242"/>
      <point x="369" y="212"/>
      <point x="301" y="192" type="curve"/>
      <point x="315" y="169"/>
      <point x="331" y="130"/>
      <point x="337" y="106" type="curve"/>
      <point x="414" y="123"/>
      <point x="507" y="150"/>
    </contour>
    <contour>
      <point x="883" y="551" type="curve"/>
      <point x="762" y="556" type="line"/>
      <point x="754" y="275"/>
      <point x="702" y="89"/>
      <point x="519" y="-10" type="curve"/>
      <point x="546" y="-29"/>
      <point x="597" y="-75"/>
      <point x="614" y="-96" type="curve"/>
      <point x="802" y="27"/>
      <point x="867" y="232"/>
    </contour>
    <contour>
      <point x="867" y="55" type="curve" smooth="yes"/>
      <point x="867" y="289" type="line"/>
      <point x="749" y="289" type="line"/>
      <point x="749" y="54" type="line" smooth="yes"/>
      <point x="749" y="-49"/>
      <point x="767" y="-84"/>
      <point x="849" y="-84" type="curve" smooth="yes"/>
      <point x="864" y="-84"/>
      <point x="877" y="-84"/>
      <point x="891" y="-84" type="curve" smooth="yes"/>
      <point x="960" y="-84"/>
      <point x="982" y="-47"/>
      <point x="987" y="89" type="curve"/>
      <point x="957" y="98"/>
      <point x="919" y="119"/>
      <point x="900" y="137" type="curve"/>
      <point x="897" y="30"/>
      <point x="895" y="16"/>
      <point x="885" y="16" type="curve" smooth="yes"/>
      <point x="882" y="16"/>
      <point x="878" y="16"/>
      <point x="875" y="16" type="curve" smooth="yes"/>
      <point x="868" y="16"/>
      <point x="867" y="19"/>
    </contour>
    <contour>
      <point x="724" y="506" type="curve"/>
      <point x="611" y="516" type="line"/>
      <point x="602" y="425"/>
      <point x="587" y="317"/>
      <point x="574" y="253" type="curve"/>
      <point x="685" y="241" type="line"/>
      <point x="697" y="304"/>
      <point x="713" y="413"/>
    </contour>
  </outline>
</glyph>
<glyph name="uni53F6" format="2">
  <advance width="1000" height="1000"/>
  <unicode hex="53F6"/>
  <note>
cid11952
</note>
  <outline>
    <contour>
      <point x="977" y="392" type="line"/>
      <point x="977" y="535" type="line"/>
      <point x="421" y="535" type="line"/>
      <point x="421" y="392" type="line"/>
    </contour>
    <contour>
      <point x="772" y="-95" type="line"/>
      <point x="772" y="837" type="line"/>
      <point x="620" y="837" type="line"/>
      <point x="620" y="-95" type="line"/>
    </contour>
    <contour>
      <point x="403" y="162" type="line"/>
      <point x="403" y="757" type="line"/>
      <point x="138" y="757" type="line"/>
      <point x="138" y="623" type="line"/>
      <point x="265" y="623" type="line"/>
      <point x="265" y="296" type="line"/>
      <point x="138" y="296" type="line"/>
      <point x="138" y="162" type="line"/>
    </contour>
    <contour>
      <point x="197" y="86" type="line"/>
      <point x="197" y="757" type="line"/>
      <point x="63" y="757" type="line"/>
      <point x="63" y="86" type="line"/>
    </contour>
  </outline>
</glyph>
<glyph name="uni5416" format="2">
  <advance width="1000" height="1000"/>
  <unicode hex="5416"/>
  <note>
cid11992
</note>
  <outline>
    <contour>
      <point x="384" y="163" type="line"/>
      <point x="384" y="758" type="line"/>
      <point x="148" y="758" type="line"/>
      <point x="148" y="624" type="line"/>
      <point x="247" y="624" type="line"/>
      <point x="247" y="297" type="line"/>
      <point x="148" y="297" type="line"/>
      <point x="148" y="163" type="line"/>
    </contour>
    <contour>
      <point x="192" y="87" type="line"/>
      <point x="192" y="758" type="line"/>
      <point x="59" y="758" type="line"/>
      <point x="59" y="87" type="line"/>
    </contour>
    <contour>
      <point x="517" y="847" type="curve"/>
      <point x="388" y="794" type="line"/>
      <point x="441" y="707"/>
      <point x="493" y="584"/>
      <point x="514" y="497" type="curve"/>
      <point x="653" y="556" type="line"/>
      <point x="628" y="641"/>
      <point x="572" y="761"/>
    </contour>
    <contour>
      <point x="973" y="798" type="curve"/>
      <point x="824" y="851" type="line"/>
      <point x="782" y="728"/>
      <point x="701" y="564"/>
      <point x="629" y="456" type="curve"/>
      <point x="748" y="389" type="line"/>
      <point x="818" y="496"/>
      <point x="905" y="653"/>
    </contour>
    <contour>
      <point x="748" y="-94" type="line"/>
      <point x="748" y="482" type="line"/>
      <point x="598" y="482" type="line"/>
      <point x="598" y="-94" type="line"/>
    </contour>
  </outline>
</glyph>
<glyph name="uni5433" format="2">
  <advance width="1000" height="1000"/>
  <unicode hex="5433"/>
  <note>
cid12040
</note>
  <outline>
    <contour>
      <point x="958" y="131" type="line"/>
      <point x="958" y="263" type="line"/>
      <point x="44" y="263" type="line"/>
      <point x="44" y="131" type="line"/>
    </contour>
    <contour>
      <point x="834" y="188" type="line"/>
      <point x="834" y="460" type="line"/>
      <point x="265" y="460" type="line"/>
      <point x="265" y="757" type="line"/>
      <point x="118" y="757" type="line"/>
      <point x="118" y="330" type="line"/>
      <point x="686" y="330" type="line"/>
      <point x="686" y="188" type="line"/>
    </contour>
    <contour>
      <point x="706" y="623" type="line"/>
      <point x="468" y="623" type="line"/>
      <point x="468" y="690" type="line"/>
      <point x="706" y="690" type="line"/>
    </contour>
    <contour>
      <point x="852" y="500" type="line"/>
      <point x="852" y="812" type="line"/>
      <point x="331" y="812" type="line"/>
      <point x="331" y="500" type="line"/>
    </contour>
    <contour>
      <point x="560" y="345" type="curve"/>
      <point x="415" y="345" type="line"/>
      <point x="402" y="145"/>
      <point x="382" y="68"/>
      <point x="22" y="24" type="curve"/>
      <point x="47" y="-6"/>
      <point x="78" y="-61"/>
      <point x="87" y="-97" type="curve"/>
      <point x="496" y="-35"/>
      <point x="543" y="89"/>
    </contour>
    <contour>
      <point x="584" y="198" type="curve"/>
      <point x="445" y="179" type="line"/>
      <point x="523" y="-1"/>
      <point x="635" y="-76"/>
      <point x="891" y="-99" type="curve"/>
      <point x="909" y="-57"/>
      <point x="946" y="5"/>
      <point x="977" y="36" type="curve"/>
      <point x="756" y="42"/>
      <point x="639" y="86"/>
    </contour>
  </outline>
</glyph>
<glyph name="uni5454" format="2">
  <advance width="1000" height="1000"/>
  <unicode hex="5454"/>
  <note>
cid12088
</note>
  <outline>
    <contour>
      <point x="963" y="469" type="line"/>
      <point x="963" y="609" type="line"/>
      <point x="384" y="609" type="line"/>
      <point x="384" y="469" type="line"/>
    </contour>
    <contour>
      <point x="638" y="151" type="curve"/>
      <point x="537" y="69" type="line"/>
      <point x="587" y="27"/>
      <point x="641" y="-30"/>
      <point x="667" y="-71" type="curve"/>
      <point x="772" y="26" type="line"/>
      <point x="745" y="63"/>
      <point x="689" y="115"/>
    </contour>
    <contour>
      <point x="732" y="855" type="curve"/>
      <point x="590" y="855" type="line"/>
      <point x="586" y="568"/>
      <point x="603" y="206"/>
      <point x="267" y="16" type="curve"/>
      <point x="307" y="-12"/>
      <point x="349" y="-57"/>
      <point x="371" y="-94" type="curve"/>
      <point x="725" y="125"/>
      <point x="728" y="531"/>
    </contour>
    <contour>
      <point x="729" y="534" type="curve"/>
      <point x="600" y="509" type="line"/>
      <point x="650" y="249"/>
      <point x="733" y="33"/>
      <point x="892" y="-95" type="curve"/>
      <point x="914" y="-58"/>
      <point x="960" y="-5"/>
      <point x="992" y="21" type="curve"/>
      <point x="851" y="123"/>
      <point x="768" y="322"/>
    </contour>
    <contour>
      <point x="360" y="162" type="line"/>
      <point x="360" y="758" type="line"/>
      <point x="141" y="758" type="line"/>
      <point x="141" y="623" type="line"/>
      <point x="238" y="623" type="line"/>
      <point x="238" y="296" type="line"/>
      <point x="141" y="296" type="line"/>
      <point x="141" y="162" type="line"/>
    </contour>
    <contour>
      <point x="184" y="83" type="line"/>
      <point x="184" y="758" type="line"/>
      <point x="59" y="758" type="line"/>
      <point x="59" y="83" type="line"/>
    </contour>
  </outline>
</glyph>
<glyph name="uni5463" format="2">
  <advance width="1000" height="1000"/>
  <unicode hex="5463"/>
  <note>
cid12107
</note>
  <outline>
    <contour>
      <point x="566" y="812" type="curve"/>
      <point x="433" y="812" type="line"/>
      <point x="428" y="551"/>
      <point x="405" y="226"/>
      <point x="379" y="19" type="curve"/>
      <point x="514" y="10" type="line"/>
      <point x="535" y="215"/>
      <point x="556" y="545"/>
    </contour>
    <contour>
      <point x="813" y="691" type="line"/>
      <point x="813" y="812" type="line"/>
      <point x="494" y="812" type="line"/>
      <point x="494" y="691" type="line"/>
    </contour>
    <contour>
      <point x="923" y="812" type="curve"/>
      <point x="789" y="812" type="line"/>
      <point x="789" y="776" type="line" smooth="yes"/>
      <point x="785" y="277"/>
      <point x="778" y="90"/>
      <point x="756" y="55" type="curve" smooth="yes"/>
      <point x="747" y="38"/>
      <point x="731" y="33"/>
      <point x="715" y="33" type="curve" smooth="yes"/>
      <point x="693" y="33"/>
      <point x="661" y="34"/>
      <point x="623" y="37" type="curve"/>
      <point x="644" y="0"/>
      <point x="660" y="-58"/>
      <point x="662" y="-94" type="curve"/>
      <point x="710" y="-95"/>
      <point x="758" y="-96"/>
      <point x="793" y="-87" type="curve" smooth="yes"/>
      <point x="830" y="-78"/>
      <point x="854" y="-63"/>
      <point x="879" y="-20" type="curve" smooth="yes"/>
      <point x="911" y="35"/>
      <point x="917" y="214"/>
      <point x="923" y="742" type="curve" smooth="yes"/>
      <point x="923" y="760"/>
      <point x="923" y="812"/>
    </contour>
    <contour>
      <point x="975" y="391" type="line"/>
      <point x="975" y="512" type="line"/>
      <point x="359" y="512" type="line"/>
      <point x="359" y="391" type="line"/>
    </contour>
    <contour>
      <point x="961" y="83" type="line"/>
      <point x="961" y="207" type="line"/>
      <point x="471" y="207" type="line"/>
      <point x="455" y="83" type="line"/>
    </contour>
    <contour>
      <point x="663" y="700" type="curve"/>
      <point x="574" y="642" type="line"/>
      <point x="613" y="601"/>
      <point x="655" y="544"/>
      <point x="672" y="506" type="curve"/>
      <point x="766" y="569" type="line"/>
      <point x="748" y="608"/>
      <point x="702" y="662"/>
    </contour>
    <contour>
      <point x="637" y="397" type="curve"/>
      <point x="553" y="331" type="line"/>
      <point x="597" y="292"/>
      <point x="647" y="236"/>
      <point x="668" y="198" type="curve"/>
      <point x="757" y="271" type="line"/>
      <point x="734" y="309"/>
      <point x="681" y="361"/>
    </contour>
    <contour>
      <point x="339" y="177" type="line"/>
      <point x="339" y="756" type="line"/>
      <point x="144" y="756" type="line"/>
      <point x="144" y="627" type="line"/>
      <point x="219" y="627" type="line"/>
      <point x="219" y="306" type="line"/>
      <point x="144" y="306" type="line"/>
      <point x="144" y="177" type="line"/>
    </contour>
    <contour>
      <point x="176" y="94" type="line"/>
      <point x="176" y="756" type="line"/>
      <point x="60" y="756" type="line"/>
      <point x="60" y="94" type="line"/>
    </contour>
  </outline>
</glyph>
<glyph name="uni5478" format="2">
  <advance width="1000" height="1000"/>
  <unicode hex="5478"/>
  <note>
cid12142
</note>
  <outline>
    <contour>
      <point x="954" y="670" type="line"/>
      <point x="954" y="805" type="line"/>
      <point x="391" y="805" type="line"/>
      <point x="391" y="670" type="line"/>
    </contour>
    <contour>
      <point x="973" y="-67" type="line"/>
      <point x="973" y="68" type="line"/>
      <point x="365" y="68" type="line"/>
      <point x="365" y="-67" type="line"/>
    </contour>
    <contour>
      <point x="777" y="672" type="curve"/>
      <point x="637" y="714" type="line"/>
      <point x="579" y="580"/>
      <point x="470" y="460"/>
      <point x="347" y="390" type="curve"/>
      <point x="377" y="363"/>
      <point x="428" y="305"/>
      <point x="449" y="275" type="curve"/>
      <point x="579" y="364"/>
      <point x="703" y="511"/>
    </contour>
    <contour>
      <point x="783" y="576" type="curve"/>
      <point x="680" y="496" type="line"/>
      <point x="745" y="430"/>
      <point x="831" y="337"/>
      <point x="868" y="278" type="curve"/>
      <point x="979" y="369" type="line"/>
      <point x="938" y="428"/>
      <point x="847" y="515"/>
    </contour>
    <contour>
      <point x="724" y="607" type="line"/>
      <point x="653" y="611" type="line"/>
      <point x="582" y="540" type="line"/>
      <point x="582" y="89" type="line"/>
      <point x="724" y="89" type="line"/>
    </contour>
    <contour>
      <point x="363" y="182" type="line"/>
      <point x="363" y="758" type="line"/>
      <point x="124" y="758" type="line"/>
      <point x="124" y="624" type="line"/>
      <point x="230" y="624" type="line"/>
      <point x="230" y="316" type="line"/>
      <point x="124" y="316" type="line"/>
      <point x="124" y="182" type="line"/>
    </contour>
    <contour>
      <point x="184" y="96" type="line"/>
      <point x="184" y="758" type="line"/>
      <point x="53" y="758" type="line"/>
      <point x="53" y="96" type="line"/>
    </contour>
  </outline>
</glyph>
<glyph name="uni54B4" format="2">
  <advance width="1000" height="1000"/>
  <unicode hex="54B4"/>
  <note>
cid12228
</note>
  <outline>
    <contour>
      <point x="339" y="172" type="line"/>
      <point x="339" y="757" type="line"/>
      <point x="144" y="757" type="line"/>
      <point x="144" y="628" type="line"/>
      <point x="219" y="628" type="line"/>
      <point x="219" y="301" type="line"/>
      <point x="144" y="301" type="line"/>
      <point x="144" y="172" type="line"/>
    </contour>
    <contour>
      <point x="171" y="86" type="line"/>
      <point x="171" y="757" type="line"/>
      <point x="55" y="757" type="line"/>
      <point x="55" y="86" type="line"/>
    </contour>
    <contour>
      <point x="975" y="629" type="line"/>
      <point x="975" y="760" type="line"/>
      <point x="357" y="760" type="line"/>
      <point x="357" y="629" type="line"/>
    </contour>
    <contour>
      <point x="540" y="595" type="curve" smooth="yes"/>
      <point x="540" y="855" type="line"/>
      <point x="407" y="855" type="line"/>
      <point x="407" y="595" type="line" smooth="yes"/>
      <point x="407" y="427"/>
      <point x="398" y="154"/>
      <point x="278" y="-16" type="curve"/>
      <point x="312" y="-32"/>
      <point x="367" y="-71"/>
      <point x="393" y="-95" type="curve"/>
      <point x="527" y="98"/>
      <point x="540" y="401"/>
    </contour>
    <contour>
      <point x="813" y="348" type="curve" smooth="yes"/>
      <point x="813" y="595" type="line"/>
      <point x="685" y="595" type="line"/>
      <point x="685" y="348" type="line" smooth="yes"/>
      <point x="685" y="264"/>
      <point x="644" y="108"/>
      <point x="482" y="14" type="curve"/>
      <point x="506" y="-12"/>
      <point x="540" y="-65"/>
      <point x="555" y="-96" type="curve"/>
      <point x="667" y="-30"/>
      <point x="734" y="95"/>
      <point x="749" y="163" type="curve"/>
      <point x="763" y="95"/>
      <point x="816" y="-32"/>
      <point x="913" y="-96" type="curve"/>
      <point x="932" y="-63"/>
      <point x="966" y="-10"/>
      <point x="990" y="20" type="curve"/>
      <point x="849" y="113"/>
      <point x="813" y="266"/>
    </contour>
    <contour>
      <point x="676" y="439" type="curve"/>
      <point x="578" y="466" type="line"/>
      <point x="568" y="388"/>
      <point x="546" y="305"/>
      <point x="509" y="252" type="curve"/>
      <point x="606" y="208" type="line"/>
      <point x="646" y="264"/>
      <point x="664" y="355"/>
    </contour>
    <contour>
      <point x="982" y="456" type="curve"/>
      <point x="868" y="479" type="line"/>
      <point x="857" y="410"/>
      <point x="832" y="314"/>
      <point x="810" y="254" type="curve"/>
      <point x="908" y="231" type="line"/>
      <point x="931" y="288"/>
      <point x="958" y="376"/>
    </contour>
  </outline>
</glyph>
<glyph name="uni54CF" format="2">
  <advance width="1000"/>
  <unicode hex="54CF"/>
  <note>
cid12242
</note>
  <outline>
    <contour>
      <point x="562" y="809" type="line"/>
      <point x="414" y="809" type="line"/>
      <point x="414" y="-9" type="line"/>
      <point x="562" y="25" type="line"/>
    </contour>
    <contour>
      <point x="909" y="809" type="line"/>
      <point x="478" y="809" type="line"/>
      <point x="478" y="683" type="line"/>
      <point x="761" y="683" type="line"/>
      <point x="761" y="446" type="line"/>
      <point x="478" y="446" type="line"/>
      <point x="478" y="321" type="line"/>
      <point x="909" y="321" type="line"/>
    </contour>
    <contour>
      <point x="822" y="627" type="line"/>
      <point x="478" y="627" type="line"/>
      <point x="478" y="506" type="line"/>
      <point x="822" y="506" type="line"/>
    </contour>
    <contour>
      <point x="332" y="55" type="curve"/>
      <point x="367" y="-81" type="line"/>
      <point x="461" y="-66"/>
      <point x="580" y="-46"/>
      <point x="690" y="-26" type="curve"/>
      <point x="681" y="104" type="line"/>
      <point x="555" y="85"/>
      <point x="423" y="66"/>
    </contour>
    <contour>
      <point x="729" y="376" type="curve"/>
      <point x="603" y="356" type="line"/>
      <point x="648" y="140"/>
      <point x="720" y="-16"/>
      <point x="891" y="-94" type="curve"/>
      <point x="911" y="-55"/>
      <point x="954" y="4"/>
      <point x="986" y="32" type="curve"/>
      <point x="836" y="87"/>
      <point x="763" y="215"/>
    </contour>
    <contour>
      <point x="964" y="229" type="curve"/>
      <point x="861" y="308" type="line"/>
      <point x="821" y="264"/>
      <point x="754" y="208"/>
      <point x="706" y="176" type="curve"/>
      <point x="797" y="101" type="line"/>
      <point x="846" y="132"/>
      <point x="912" y="180"/>
    </contour>
    <contour>
      <point x="372" y="769" type="line"/>
      <point x="142" y="769" type="line"/>
      <point x="142" y="635" type="line"/>
      <point x="235" y="635" type="line"/>
      <point x="235" y="299" type="line"/>
      <point x="142" y="299" type="line"/>
      <point x="142" y="165" type="line"/>
      <point x="372" y="165" type="line"/>
    </contour>
    <contour>
      <point x="192" y="769" type="line"/>
      <point x="59" y="769" type="line"/>
      <point x="59" y="80" type="line"/>
      <point x="192" y="80" type="line"/>
    </contour>
  </outline>
</glyph>
<glyph name="uni54D6" format="2">
  <advance width="1000" height="1000"/>
  <unicode hex="54D6"/>
  <note>
cid12272
</note>
  <outline>
    <contour>
      <point x="618" y="827" type="curve"/>
      <point x="481" y="858" type="line"/>
      <point x="450" y="733"/>
      <point x="384" y="607"/>
      <point x="310" y="531" type="curve"/>
      <point x="346" y="502"/>
      <point x="391" y="458"/>
      <point x="417" y="425" type="curve"/>
      <point x="503" y="532"/>
      <point x="580" y="687"/>
    </contour>
    <contour>
      <point x="956" y="616" type="line"/>
      <point x="956" y="751" type="line"/>
      <point x="528" y="751" type="line"/>
      <point x="460" y="616" type="line"/>
    </contour>
    <contour>
      <point x="927" y="383" type="line"/>
      <point x="927" y="518" type="line"/>
      <point x="446" y="518" type="line"/>
      <point x="446" y="188" type="line"/>
      <point x="579" y="188" type="line"/>
      <point x="579" y="383" type="line"/>
    </contour>
    <contour>
      <point x="974" y="119" type="line"/>
      <point x="974" y="259" type="line"/>
      <point x="365" y="259" type="line"/>
      <point x="365" y="119" type="line"/>
    </contour>
    <contour>
      <point x="785" y="-95" type="line"/>
      <point x="785" y="679" type="line"/>
      <point x="641" y="679" type="line"/>
      <point x="641" y="-95" type="line"/>
    </contour>
    <contour>
      <point x="347" y="168" type="line"/>
      <point x="347" y="758" type="line"/>
      <point x="134" y="758" type="line"/>
      <point x="134" y="627" type="line"/>
      <point x="225" y="627" type="line"/>
      <point x="225" y="300" type="line"/>
      <point x="134" y="300" type="line"/>
      <point x="134" y="168" type="line"/>
    </contour>
    <contour>
      <point x="180" y="87" type="line"/>
      <point x="180" y="758" type="line"/>
      <point x="59" y="758" type="line"/>
      <point x="59" y="87" type="line"/>
    </contour>
  </outline>
</glyph>
<glyph name="uni54DE" format="2">
  <advance width="1000"/>
  <unicode hex="54DE"/>
  <note>
cid12257
</note>
  <outline>
    <contour>
      <point x="349" y="180" type="line"/>
      <point x="349" y="770" type="line"/>
      <point x="136" y="770" type="line"/>
      <point x="136" y="639" type="line"/>
      <point x="227" y="639" type="line"/>
      <point x="227" y="312" type="line"/>
      <point x="136" y="312" type="line"/>
      <point x="136" y="180" type="line"/>
    </contour>
    <contour>
      <point x="175" y="108" type="line"/>
      <point x="175" y="770" type="line"/>
      <point x="54" y="770" type="line"/>
      <point x="54" y="108" type="line"/>
    </contour>
    <contour>
      <point x="975" y="84" type="line"/>
      <point x="975" y="213" type="line"/>
      <point x="360" y="213" type="line"/>
      <point x="360" y="84" type="line"/>
    </contour>
    <contour>
      <point x="693" y="824" type="curve"/>
      <point x="536" y="857" type="line"/>
      <point x="518" y="782"/>
      <point x="483" y="682"/>
      <point x="449" y="614" type="curve"/>
      <point x="560" y="581" type="line"/>
      <point x="599" y="642"/>
      <point x="650" y="737"/>
    </contour>
    <contour>
      <point x="376" y="651" type="curve"/>
      <point x="396" y="528" type="line"/>
      <point x="519" y="532"/>
      <point x="689" y="538"/>
      <point x="847" y="546" type="curve"/>
      <point x="849" y="671" type="line"/>
      <point x="683" y="663"/>
      <point x="502" y="655"/>
    </contour>
    <contour>
      <point x="578" y="481" type="curve"/>
      <point x="441" y="510" type="line"/>
      <point x="424" y="421"/>
      <point x="389" y="326"/>
      <point x="346" y="267" type="curve"/>
      <point x="380" y="253"/>
      <point x="440" y="221"/>
      <point x="469" y="200" type="curve"/>
      <point x="512" y="268"/>
      <point x="555" y="377"/>
    </contour>
    <contour>
      <point x="942" y="293" type="line"/>
      <point x="942" y="419" type="line"/>
      <point x="488" y="419" type="line"/>
      <point x="450" y="293" type="line"/>
    </contour>
    <contour>
      <point x="742" y="-95" type="line"/>
      <point x="742" y="517" type="line"/>
      <point x="599" y="517" type="line"/>
      <point x="599" y="-95" type="line"/>
    </contour>
    <contour>
      <point x="804" y="788" type="curve"/>
      <point x="693" y="725" type="line"/>
      <point x="759" y="655"/>
      <point x="830" y="558"/>
      <point x="857" y="492" type="curve"/>
      <point x="977" y="563" type="line"/>
      <point x="946" y="631"/>
      <point x="870" y="722"/>
    </contour>
  </outline>
</glyph>
<glyph name="uni54E7" format="2">
  <advance width="1000" height="1000"/>
  <unicode hex="54E7"/>
  <note>
cid12293
</note>
  <outline>
    <contour>
      <point x="718" y="481" type="line"/>
      <point x="718" y="855" type="line"/>
      <point x="573" y="855" type="line"/>
      <point x="573" y="481" type="line"/>
    </contour>
    <contour>
      <point x="957" y="402" type="line"/>
      <point x="957" y="534" type="line"/>
      <point x="362" y="534" type="line"/>
      <point x="362" y="402" type="line"/>
    </contour>
    <contour>
      <point x="909" y="615" type="line"/>
      <point x="909" y="742" type="line"/>
      <point x="391" y="742" type="line"/>
      <point x="391" y="615" type="line"/>
    </contour>
    <contour>
      <point x="644" y="454" type="curve"/>
      <point x="517" y="454" type="line"/>
      <point x="513" y="232"/>
      <point x="508" y="94"/>
      <point x="363" y="9" type="curve"/>
      <point x="393" y="-16"/>
      <point x="431" y="-66"/>
      <point x="447" y="-100" type="curve"/>
      <point x="622" y="8"/>
      <point x="639" y="190"/>
    </contour>
    <contour>
      <point x="889" y="363" type="curve"/>
      <point x="787" y="323" type="line"/>
      <point x="822" y="246"/>
      <point x="849" y="144"/>
      <point x="853" y="77" type="curve"/>
      <point x="963" y="120" type="line"/>
      <point x="956" y="187"/>
      <point x="927" y="287"/>
    </contour>
    <contour>
      <point x="505" y="340" type="curve"/>
      <point x="392" y="360" type="line"/>
      <point x="379" y="273"/>
      <point x="353" y="188"/>
      <point x="307" y="134" type="curve"/>
      <point x="332" y="116"/>
      <point x="375" y="77"/>
      <point x="393" y="57" type="curve"/>
      <point x="449" y="124"/>
      <point x="486" y="230"/>
    </contour>
    <contour>
      <point x="796" y="42" type="curve" smooth="yes"/>
      <point x="796" y="470" type="line"/>
      <point x="671" y="470" type="line"/>
      <point x="671" y="44" type="line" smooth="yes"/>
      <point x="671" y="33"/>
      <point x="668" y="30"/>
      <point x="656" y="30" type="curve" smooth="yes"/>
      <point x="644" y="30"/>
      <point x="609" y="30"/>
      <point x="577" y="31" type="curve"/>
      <point x="592" y="-6"/>
      <point x="607" y="-60"/>
      <point x="611" y="-96" type="curve"/>
      <point x="671" y="-96"/>
      <point x="717" y="-93"/>
      <point x="752" y="-73" type="curve" smooth="yes"/>
      <point x="788" y="-52"/>
      <point x="796" y="-17"/>
    </contour>
    <contour>
      <point x="343" y="179" type="line"/>
      <point x="343" y="757" type="line"/>
      <point x="139" y="757" type="line"/>
      <point x="139" y="626" type="line"/>
      <point x="221" y="626" type="line"/>
      <point x="221" y="311" type="line"/>
      <point x="139" y="311" type="line"/>
      <point x="139" y="179" type="line"/>
    </contour>
    <contour>
      <point x="175" y="95" type="line"/>
      <point x="175" y="757" type="line"/>
      <point x="55" y="757" type="line"/>
      <point x="55" y="95" type="line"/>
    </contour>
  </outline>
</glyph>
<glyph name="uni5511" format="2">
  <advance width="1000" height="1000"/>
  <unicode hex="5511"/>
  <note>
cid12361
</note>
  <outline>
    <contour>
      <point x="923" y="170" type="line"/>
      <point x="923" y="297" type="line"/>
      <point x="424" y="297" type="line"/>
      <point x="424" y="170" type="line"/>
    </contour>
    <contour>
      <point x="974" y="-70" type="line"/>
      <point x="974" y="59" type="line"/>
      <point x="366" y="59" type="line"/>
      <point x="366" y="-70" type="line"/>
    </contour>
    <contour>
      <point x="739" y="-17" type="line"/>
      <point x="739" y="856" type="line"/>
      <point x="604" y="856" type="line"/>
      <point x="604" y="-17" type="line"/>
    </contour>
    <contour>
      <point x="557" y="783" type="curve"/>
      <point x="436" y="792" type="line"/>
      <point x="430" y="636"/>
      <point x="410" y="495"/>
      <point x="339" y="411" type="curve"/>
      <point x="365" y="393"/>
      <point x="412" y="350"/>
      <point x="430" y="329" type="curve"/>
      <point x="515" y="433"/>
      <point x="546" y="595"/>
    </contour>
    <contour>
      <point x="918" y="783" type="curve"/>
      <point x="794" y="793" type="line"/>
      <point x="788" y="646"/>
      <point x="769" y="512"/>
      <point x="698" y="432" type="curve"/>
      <point x="724" y="411"/>
      <point x="768" y="364"/>
      <point x="784" y="341" type="curve"/>
      <point x="874" y="442"/>
      <point x="906" y="601"/>
    </contour>
    <contour>
      <point x="536" y="604" type="curve"/>
      <point x="454" y="545" type="line"/>
      <point x="478" y="500"/>
      <point x="518" y="413"/>
      <point x="538" y="359" type="curve"/>
      <point x="629" y="458" type="line"/>
      <point x="616" y="480"/>
      <point x="554" y="581"/>
    </contour>
    <contour>
      <point x="875" y="622" type="curve"/>
      <point x="786" y="570" type="line"/>
      <point x="816" y="515"/>
      <point x="866" y="413"/>
      <point x="889" y="349" type="curve"/>
      <point x="992" y="435" type="line"/>
      <point x="976" y="462"/>
      <point x="897" y="593"/>
    </contour>
    <contour>
      <point x="354" y="181" type="line"/>
      <point x="354" y="758" type="line"/>
      <point x="141" y="758" type="line"/>
      <point x="141" y="627" type="line"/>
      <point x="232" y="627" type="line"/>
      <point x="232" y="312" type="line"/>
      <point x="141" y="312" type="line"/>
      <point x="141" y="181" type="line"/>
    </contour>
    <contour>
      <point x="180" y="96" type="line"/>
      <point x="180" y="758" type="line"/>
      <point x="59" y="758" type="line"/>
      <point x="59" y="96" type="line"/>
    </contour>
  </outline>
</glyph>
<glyph name="uni551E" format="2">
  <advance width="1000" height="1000"/>
  <unicode hex="551E"/>
  <note>
cid12354
</note>
  <outline>
    <contour>
      <point x="889" y="850" type="line"/>
      <point x="755" y="850" type="line"/>
      <point x="755" y="-95" type="line"/>
      <point x="889" y="-95" type="line"/>
    </contour>
    <contour>
      <point x="953" y="326" type="line"/>
      <point x="550" y="230" type="line"/>
      <point x="581" y="102" type="line"/>
      <point x="984" y="198" type="line"/>
    </contour>
    <contour>
      <point x="654" y="542" type="curve"/>
      <point x="555" y="477" type="line"/>
      <point x="602" y="428"/>
      <point x="649" y="360"/>
      <point x="665" y="313" type="curve"/>
      <point x="772" y="384" type="line"/>
      <point x="753" y="433"/>
      <point x="702" y="496"/>
    </contour>
    <contour>
      <point x="659" y="788" type="curve"/>
      <point x="560" y="725" type="line"/>
      <point x="605" y="677"/>
      <point x="650" y="609"/>
      <point x="666" y="563" type="curve"/>
      <point x="773" y="633" type="line"/>
      <point x="754" y="680"/>
      <point x="706" y="743"/>
    </contour>
    <contour>
      <point x="320" y="757" type="line"/>
      <point x="127" y="757" type="line"/>
      <point x="127" y="628" type="line"/>
      <point x="200" y="628" type="line"/>
      <point x="200" y="298" type="line"/>
      <point x="127" y="298" type="line"/>
      <point x="127" y="169" type="line"/>
      <point x="320" y="169" type="line"/>
    </contour>
    <contour>
      <point x="167" y="757" type="line"/>
      <point x="49" y="757" type="line"/>
      <point x="49" y="77" type="line"/>
      <point x="167" y="77" type="line"/>
    </contour>
    <contour>
      <point x="576" y="662" type="line"/>
      <point x="329" y="662" type="line"/>
      <point x="329" y="536" type="line"/>
      <point x="576" y="536" type="line"/>
    </contour>
    <contour>
      <point x="310" y="359" type="curve"/>
      <point x="347" y="225" type="line"/>
      <point x="423" y="253"/>
      <point x="512" y="286"/>
      <point x="594" y="319" type="curve"/>
      <point x="572" y="436" type="line"/>
      <point x="475" y="406"/>
      <point x="377" y="376"/>
    </contour>
    <contour>
      <point x="520" y="852" type="line"/>
      <point x="396" y="852" type="line"/>
      <point x="396" y="47" type="line" smooth="yes"/>
      <point x="396" y="35"/>
      <point x="392" y="31"/>
      <point x="381" y="31" type="curve" smooth="yes"/>
      <point x="370" y="31"/>
      <point x="340" y="31"/>
      <point x="310" y="32" type="curve"/>
      <point x="327" y="-3"/>
      <point x="344" y="-60"/>
      <point x="347" y="-94" type="curve"/>
      <point x="406" y="-95"/>
      <point x="448" y="-88"/>
      <point x="479" y="-67" type="curve" smooth="yes"/>
      <point x="511" y="-45"/>
      <point x="520" y="-11"/>
      <point x="520" y="47" type="curve" smooth="yes"/>
    </contour>
  </outline>
</glyph>
<glyph name="uni552C" format="2">
  <advance width="1000" height="1000"/>
  <unicode hex="552C"/>
  <note>
cid12373
</note>
  <outline>
    <contour>
      <point x="708" y="856" type="line"/>
      <point x="565" y="856" type="line"/>
      <point x="565" y="617" type="line"/>
      <point x="708" y="617" type="line"/>
    </contour>
    <contour>
      <point x="918" y="802" type="line"/>
      <point x="634" y="802" type="line"/>
      <point x="634" y="690" type="line"/>
      <point x="918" y="690" type="line"/>
    </contour>
    <contour>
      <point x="878" y="657" type="line"/>
      <point x="432" y="657" type="line"/>
      <point x="432" y="545" type="line"/>
      <point x="878" y="545" type="line"/>
    </contour>
    <contour>
      <point x="854" y="657" type="line"/>
      <point x="834" y="657" type="line"/>
      <point x="834" y="641" type="line"/>
      <point x="827" y="589"/>
      <point x="813" y="522"/>
      <point x="802" y="479" type="curve"/>
      <point x="920" y="447" type="line"/>
      <point x="938" y="497"/>
      <point x="960" y="571"/>
      <point x="976" y="637" type="curve"/>
      <point x="875" y="662" type="line"/>
    </contour>
    <contour>
      <point x="801" y="514" type="line"/>
      <point x="507" y="477" type="line"/>
      <point x="520" y="375" type="line"/>
      <point x="815" y="416" type="line"/>
    </contour>
    <contour>
      <point x="509" y="657" type="line"/>
      <point x="375" y="657" type="line"/>
      <point x="375" y="365" type="line" smooth="yes"/>
      <point x="375" y="246"/>
      <point x="369" y="91"/>
      <point x="287" y="-14" type="curve"/>
      <point x="317" y="-30"/>
      <point x="375" y="-74"/>
      <point x="397" y="-98" type="curve"/>
      <point x="493" y="22"/>
      <point x="509" y="222"/>
      <point x="509" y="364" type="curve" smooth="yes"/>
    </contour>
    <contour>
      <point x="693" y="554" type="line"/>
      <point x="571" y="554" type="line"/>
      <point x="571" y="399" type="line" smooth="yes"/>
      <point x="571" y="299"/>
      <point x="598" y="269"/>
      <point x="714" y="269" type="curve" smooth="yes"/>
      <point x="738" y="269"/>
      <point x="814" y="269"/>
      <point x="838" y="269" type="curve" smooth="yes"/>
      <point x="919" y="269"/>
      <point x="951" y="294"/>
      <point x="963" y="387" type="curve"/>
      <point x="931" y="395"/>
      <point x="885" y="415"/>
      <point x="860" y="433" type="curve"/>
      <point x="856" y="379"/>
      <point x="850" y="370"/>
      <point x="825" y="370" type="curve" smooth="yes"/>
      <point x="806" y="370"/>
      <point x="747" y="370"/>
      <point x="732" y="370" type="curve" smooth="yes"/>
      <point x="699" y="370"/>
      <point x="693" y="373"/>
      <point x="693" y="400" type="curve" smooth="yes"/>
    </contour>
    <contour>
      <point x="674" y="255" type="curve"/>
      <point x="549" y="255" type="line"/>
      <point x="545" y="129"/>
      <point x="535" y="49"/>
      <point x="424" y="1" type="curve"/>
      <point x="450" y="-22"/>
      <point x="483" y="-68"/>
      <point x="496" y="-98" type="curve"/>
      <point x="645" y="-30"/>
      <point x="668" y="87"/>
    </contour>
    <contour>
      <point x="840" y="255" type="line"/>
      <point x="710" y="255" type="line"/>
      <point x="710" y="55" type="line" smooth="yes"/>
      <point x="710" y="-51"/>
      <point x="728" y="-88"/>
      <point x="822" y="-88" type="curve" smooth="yes"/>
      <point x="839" y="-88"/>
      <point x="852" y="-88"/>
      <point x="869" y="-88" type="curve" smooth="yes"/>
      <point x="937" y="-88"/>
      <point x="968" y="-53"/>
      <point x="978" y="86" type="curve"/>
      <point x="945" y="94"/>
      <point x="893" y="114"/>
      <point x="869" y="134" type="curve"/>
      <point x="867" y="38"/>
      <point x="864" y="25"/>
      <point x="854" y="25" type="curve" smooth="yes"/>
      <point x="852" y="25"/>
      <point x="849" y="25"/>
      <point x="847" y="25" type="curve" smooth="yes"/>
      <point x="841" y="25"/>
      <point x="840" y="28"/>
      <point x="840" y="56" type="curve" smooth="yes"/>
    </contour>
    <contour>
      <point x="339" y="757" type="line"/>
      <point x="142" y="757" type="line"/>
      <point x="142" y="628" type="line"/>
      <point x="217" y="628" type="line"/>
      <point x="217" y="301" type="line"/>
      <point x="142" y="301" type="line"/>
      <point x="142" y="172" type="line"/>
      <point x="339" y="172" type="line"/>
    </contour>
    <contour>
      <point x="178" y="757" type="line"/>
      <point x="60" y="757" type="line"/>
      <point x="60" y="86" type="line"/>
      <point x="178" y="86" type="line"/>
    </contour>
  </outline>
</glyph>
<glyph name="uni552D" format="2">
  <advance width="1000" height="1000"/>
  <unicode hex="552D"/>
  <note>
cid12397
</note>
  <outline>
    <contour>
      <point x="964" y="601" type="line"/>
      <point x="964" y="730" type="line"/>
      <point x="397" y="730" type="line"/>
      <point x="397" y="601" type="line"/>
    </contour>
    <contour>
      <point x="804" y="453" type="line"/>
      <point x="804" y="562" type="line"/>
      <point x="543" y="562" type="line"/>
      <point x="543" y="453" type="line"/>
    </contour>
    <contour>
      <point x="804" y="303" type="line"/>
      <point x="804" y="412" type="line"/>
      <point x="543" y="412" type="line"/>
      <point x="543" y="303" type="line"/>
    </contour>
    <contour>
      <point x="976" y="133" type="line"/>
      <point x="976" y="262" type="line"/>
      <point x="377" y="262" type="line"/>
      <point x="377" y="133" type="line"/>
    </contour>
    <contour>
      <point x="610" y="210" type="line"/>
      <point x="610" y="854" type="line"/>
      <point x="472" y="854" type="line"/>
      <point x="472" y="210" type="line"/>
    </contour>
    <contour>
      <point x="882" y="210" type="line"/>
      <point x="882" y="854" type="line"/>
      <point x="741" y="854" type="line"/>
      <point x="741" y="210" type="line"/>
    </contour>
    <contour>
      <point x="804" y="151" type="curve"/>
      <point x="697" y="78" type="line"/>
      <point x="758" y="27"/>
      <point x="836" y="-47"/>
      <point x="871" y="-94" type="curve"/>
      <point x="985" y="-12" type="line"/>
      <point x="946" y="35"/>
      <point x="864" y="104"/>
    </contour>
    <contour>
      <point x="658" y="79" type="curve"/>
      <point x="532" y="158" type="line"/>
      <point x="490" y="106"/>
      <point x="407" y="35"/>
      <point x="333" y="0" type="curve"/>
      <point x="366" y="-26"/>
      <point x="411" y="-69"/>
      <point x="436" y="-97" type="curve"/>
      <point x="513" y="-58"/>
      <point x="604" y="16"/>
    </contour>
    <contour>
      <point x="360" y="160" type="line"/>
      <point x="360" y="758" type="line"/>
      <point x="124" y="758" type="line"/>
      <point x="124" y="624" type="line"/>
      <point x="227" y="624" type="line"/>
      <point x="227" y="294" type="line"/>
      <point x="124" y="294" type="line"/>
      <point x="124" y="160" type="line"/>
    </contour>
    <contour>
      <point x="186" y="75" type="line"/>
      <point x="186" y="758" type="line"/>
      <point x="56" y="758" type="line"/>
      <point x="56" y="75" type="line"/>
    </contour>
  </outline>
</glyph>
<glyph name="uni5530" format="2">
  <advance width="1000" height="1000"/>
  <unicode hex="5530"/>
  <note>
cid12402
</note>
  <outline>
    <contour>
      <point x="812" y="151" type="line"/>
      <point x="812" y="761" type="line"/>
      <point x="708" y="761" type="line"/>
      <point x="708" y="151" type="line"/>
    </contour>
    <contour>
      <point x="950" y="44" type="curve" smooth="yes"/>
      <point x="950" y="838" type="line"/>
      <point x="836" y="838" type="line"/>
      <point x="836" y="44" type="line" smooth="yes"/>
      <point x="836" y="30"/>
      <point x="832" y="26"/>
      <point x="819" y="26" type="curve" smooth="yes"/>
      <point x="805" y="26"/>
      <point x="765" y="26"/>
      <point x="727" y="27" type="curve"/>
      <point x="742" y="-8"/>
      <point x="757" y="-62"/>
      <point x="761" y="-95" type="curve"/>
      <point x="827" y="-95"/>
      <point x="876" y="-90"/>
      <point x="908" y="-70" type="curve" smooth="yes"/>
      <point x="940" y="-50"/>
      <point x="950" y="-17"/>
    </contour>
    <contour>
      <point x="288" y="120" type="line"/>
      <point x="288" y="768" type="line"/>
      <point x="113" y="768" type="line"/>
      <point x="113" y="639" type="line"/>
      <point x="183" y="639" type="line"/>
      <point x="183" y="249" type="line"/>
      <point x="113" y="249" type="line"/>
      <point x="113" y="120" type="line"/>
    </contour>
    <contour>
      <point x="158" y="48" type="line"/>
      <point x="158" y="768" type="line"/>
      <point x="53" y="768" type="line"/>
      <point x="53" y="48" type="line"/>
    </contour>
    <contour>
      <point x="651" y="319" type="line"/>
      <point x="651" y="427" type="line"/>
      <point x="399" y="427" type="line"/>
      <point x="399" y="0" type="line"/>
      <point x="481" y="0" type="line"/>
      <point x="481" y="319" type="line"/>
    </contour>
    <contour>
      <point x="694" y="114" type="curve" smooth="yes"/>
      <point x="694" y="427" type="line"/>
      <point x="610" y="427" type="line"/>
      <point x="610" y="118" type="line" smooth="yes"/>
      <point x="610" y="111"/>
      <point x="609" y="109"/>
      <point x="604" y="109" type="curve" smooth="yes"/>
      <point x="600" y="109"/>
      <point x="591" y="109"/>
      <point x="579" y="109" type="curve"/>
      <point x="593" y="80"/>
      <point x="605" y="35"/>
      <point x="607" y="5" type="curve"/>
      <point x="634" y="5"/>
      <point x="652" y="9"/>
      <point x="672" y="28" type="curve" smooth="yes"/>
      <point x="691" y="47"/>
      <point x="694" y="79"/>
    </contour>
    <contour>
      <point x="427" y="523" type="curve" smooth="yes"/>
      <point x="427" y="816" type="line"/>
      <point x="310" y="816" type="line"/>
      <point x="310" y="523" type="line" smooth="yes"/>
      <point x="310" y="364"/>
      <point x="302" y="139"/>
      <point x="205" y="-15" type="curve"/>
      <point x="234" y="-26"/>
      <point x="286" y="-56"/>
      <point x="309" y="-74" type="curve"/>
      <point x="411" y="90"/>
      <point x="427" y="349"/>
    </contour>
    <contour>
      <point x="690" y="531" type="line"/>
      <point x="690" y="816" type="line"/>
      <point x="391" y="816" type="line"/>
      <point x="391" y="707" type="line"/>
      <point x="569" y="707" type="line"/>
      <point x="569" y="641" type="line"/>
      <point x="391" y="641" type="line"/>
      <point x="391" y="531" type="line"/>
    </contour>
    <contour>
      <point x="599" y="351" type="line"/>
      <point x="599" y="514" type="line"/>
      <point x="491" y="514" type="line"/>
      <point x="491" y="351" type="line"/>
      <point x="502" y="351" type="line"/>
      <point x="502" y="-96" type="line"/>
      <point x="588" y="-96" type="line"/>
      <point x="588" y="351" type="line"/>
    </contour>
  </outline>
</glyph>
<glyph name="uni5537" format="2">
  <advance width="1000"/>
  <unicode hex="5537"/>
  <note>
cid12393
</note>
  <outline>
    <contour>
      <point x="345" y="773" type="line"/>
      <point x="135" y="773" type="line"/>
      <point x="135" y="640" type="line"/>
      <point x="224" y="640" type="line"/>
      <point x="224" y="298" type="line"/>
      <point x="135" y="298" type="line"/>
      <point x="135" y="165" type="line"/>
      <point x="345" y="165" type="line"/>
    </contour>
    <contour>
      <point x="178" y="773" type="line"/>
      <point x="59" y="773" type="line"/>
      <point x="59" y="80" type="line"/>
      <point x="178" y="80" type="line"/>
    </contour>
    <contour>
      <point x="972" y="767" type="line"/>
      <point x="362" y="767" type="line"/>
      <point x="362" y="644" type="line"/>
      <point x="972" y="644" type="line"/>
    </contour>
    <contour>
      <point x="817" y="271" type="line"/>
      <point x="501" y="271" type="line"/>
      <point x="501" y="175" type="line"/>
      <point x="817" y="175" type="line"/>
    </contour>
    <contour>
      <point x="817" y="145" type="line"/>
      <point x="501" y="145" type="line"/>
      <point x="501" y="49" type="line"/>
      <point x="817" y="49" type="line"/>
    </contour>
    <contour>
      <point x="734" y="854" type="line"/>
      <point x="590" y="854" type="line"/>
      <point x="590" y="705" type="line"/>
      <point x="734" y="705" type="line"/>
    </contour>
    <contour>
      <point x="651" y="650" type="curve"/>
      <point x="506" y="700" type="line"/>
      <point x="496" y="646"/>
      <point x="474" y="574"/>
      <point x="454" y="525" type="curve"/>
      <point x="565" y="481" type="line"/>
      <point x="589" y="523"/>
      <point x="618" y="588"/>
    </contour>
    <contour>
      <point x="360" y="555" type="curve"/>
      <point x="374" y="431" type="line"/>
      <point x="508" y="437"/>
      <point x="694" y="447"/>
      <point x="869" y="458" type="curve"/>
      <point x="872" y="571" type="line"/>
      <point x="687" y="564"/>
      <point x="490" y="558"/>
    </contour>
    <contour>
      <point x="846" y="676" type="curve"/>
      <point x="730" y="620" type="line"/>
      <point x="782" y="554"/>
      <point x="837" y="464"/>
      <point x="856" y="405" type="curve"/>
      <point x="982" y="467" type="line"/>
      <point x="959" y="529"/>
      <point x="899" y="613"/>
    </contour>
    <contour>
      <point x="824" y="407" type="line"/>
      <point x="428" y="407" type="line"/>
      <point x="428" y="-97" type="line"/>
      <point x="559" y="-97" type="line"/>
      <point x="559" y="300" type="line"/>
      <point x="824" y="300" type="line"/>
    </contour>
    <contour>
      <point x="897" y="407" type="line"/>
      <point x="759" y="407" type="line"/>
      <point x="759" y="29" type="line" smooth="yes"/>
      <point x="759" y="18"/>
      <point x="755" y="15"/>
      <point x="742" y="14" type="curve" smooth="yes"/>
      <point x="732" y="14"/>
      <point x="691" y="14"/>
      <point x="661" y="16" type="curve"/>
      <point x="677" y="-15"/>
      <point x="693" y="-62"/>
      <point x="698" y="-96" type="curve"/>
      <point x="761" y="-96"/>
      <point x="811" y="-95"/>
      <point x="848" y="-77" type="curve" smooth="yes"/>
      <point x="886" y="-59"/>
      <point x="897" y="-30"/>
      <point x="897" y="28" type="curve" smooth="yes"/>
    </contour>
  </outline>
</glyph>
<glyph name="uni5543" format="2">
  <advance width="1000" height="1000"/>
  <unicode hex="5543"/>
  <note>
cid12441
</note>
  <outline>
    <contour>
      <point x="359" y="163" type="line"/>
      <point x="359" y="758" type="line"/>
      <point x="135" y="758" type="line"/>
      <point x="135" y="624" type="line"/>
      <point x="228" y="624" type="line"/>
      <point x="228" y="297" type="line"/>
      <point x="135" y="297" type="line"/>
      <point x="135" y="163" type="line"/>
    </contour>
    <contour>
      <point x="185" y="87" type="line"/>
      <point x="185" y="758" type="line"/>
      <point x="57" y="758" type="line"/>
      <point x="57" y="87" type="line"/>
    </contour>
    <contour>
      <point x="765" y="550" type="line"/>
      <point x="765" y="856" type="line"/>
      <point x="624" y="856" type="line"/>
      <point x="624" y="550" type="line"/>
    </contour>
    <contour>
      <point x="571" y="548" type="line"/>
      <point x="571" y="800" type="line"/>
      <point x="441" y="800" type="line"/>
      <point x="441" y="548" type="line"/>
    </contour>
    <contour>
      <point x="862" y="356" type="line"/>
      <point x="862" y="470" type="line"/>
      <point x="423" y="470" type="line"/>
      <point x="423" y="-94" type="line"/>
      <point x="562" y="-94" type="line"/>
      <point x="562" y="356" type="line"/>
    </contour>
    <contour>
      <point x="925" y="46" type="curve" smooth="yes"/>
      <point x="925" y="470" type="line"/>
      <point x="785" y="470" type="line"/>
      <point x="785" y="48" type="line" smooth="yes"/>
      <point x="785" y="34"/>
      <point x="779" y="30"/>
      <point x="763" y="30" type="curve" smooth="yes"/>
      <point x="748" y="30"/>
      <point x="688" y="29"/>
      <point x="646" y="32" type="curve"/>
      <point x="663" y="-2"/>
      <point x="682" y="-56"/>
      <point x="687" y="-93" type="curve"/>
      <point x="766" y="-93"/>
      <point x="824" y="-92"/>
      <point x="868" y="-72" type="curve" smooth="yes"/>
      <point x="912" y="-52"/>
      <point x="925" y="-18"/>
    </contour>
    <contour>
      <point x="856" y="220" type="line"/>
      <point x="856" y="323" type="line"/>
      <point x="477" y="323" type="line"/>
      <point x="477" y="220" type="line"/>
    </contour>
    <contour>
      <point x="860" y="76" type="line"/>
      <point x="860" y="186" type="line"/>
      <point x="477" y="186" type="line"/>
      <point x="477" y="76" type="line"/>
    </contour>
    <contour>
      <point x="934" y="672" type="line"/>
      <point x="934" y="786" type="line"/>
      <point x="708" y="786" type="line"/>
      <point x="708" y="672" type="line"/>
    </contour>
    <contour>
      <point x="974" y="502" type="line"/>
      <point x="974" y="622" type="line"/>
      <point x="374" y="622" type="line"/>
      <point x="374" y="502" type="line"/>
    </contour>
  </outline>
</glyph>
<glyph name="uni5544" format="2">
  <advance width="1000" height="1000"/>
  <unicode hex="5544"/>
  <note>
cid62176
</note>
  <outline>
    <contour>
      <point x="333" y="176" type="line"/>
      <point x="333" y="761" type="line"/>
      <point x="136" y="761" type="line"/>
      <point x="136" y="632" type="line"/>
      <point x="211" y="632" type="line"/>
      <point x="211" y="305" type="line"/>
      <point x="136" y="305" type="line"/>
      <point x="136" y="176" type="line"/>
    </contour>
    <contour>
      <point x="174" y="90" type="line"/>
      <point x="174" y="761" type="line"/>
      <point x="54" y="761" type="line"/>
      <point x="54" y="90" type="line"/>
    </contour>
    <contour>
      <point x="962" y="679" type="line"/>
      <point x="962" y="813" type="line"/>
      <point x="349" y="813" type="line"/>
      <point x="349" y="679" type="line"/>
    </contour>
    <contour>
      <point x="552" y="639" type="curve"/>
      <point x="452" y="576" type="line"/>
      <point x="633" y="429"/>
      <point x="631" y="127"/>
      <point x="590" y="65" type="curve" smooth="yes"/>
      <point x="572" y="38"/>
      <point x="555" y="33"/>
      <point x="533" y="33" type="curve" smooth="yes"/>
      <point x="513" y="33"/>
      <point x="482" y="34"/>
      <point x="454" y="38" type="curve"/>
      <point x="476" y="-1"/>
      <point x="484" y="-55"/>
      <point x="485" y="-94" type="curve"/>
      <point x="511" y="-95"/>
      <point x="542" y="-95"/>
      <point x="564" y="-95" type="curve" smooth="yes"/>
      <point x="619" y="-94"/>
      <point x="661" y="-74"/>
      <point x="698" y="-30" type="curve" smooth="yes"/>
      <point x="784" y="74"/>
      <point x="778" y="458"/>
    </contour>
    <contour>
      <point x="683" y="711" type="curve"/>
      <point x="551" y="749" type="line"/>
      <point x="504" y="661"/>
      <point x="407" y="590"/>
      <point x="300" y="549" type="curve"/>
      <point x="326" y="522"/>
      <point x="369" y="463"/>
      <point x="385" y="435" type="curve"/>
      <point x="507" y="493"/>
      <point x="619" y="591"/>
    </contour>
    <contour>
      <point x="777" y="744" type="curve"/>
      <point x="656" y="730" type="line"/>
      <point x="684" y="429"/>
      <point x="732" y="177"/>
      <point x="886" y="33" type="curve"/>
      <point x="908" y="72"/>
      <point x="955" y="129"/>
      <point x="988" y="156" type="curve"/>
      <point x="850" y="268"/>
      <point x="800" y="497"/>
    </contour>
    <contour>
      <point x="980" y="503" type="curve"/>
      <point x="876" y="607" type="line"/>
      <point x="847" y="554"/>
      <point x="793" y="483"/>
      <point x="756" y="442" type="curve"/>
      <point x="830" y="361" type="line"/>
      <point x="873" y="396"/>
      <point x="923" y="454"/>
    </contour>
    <contour>
      <point x="655" y="458" type="curve"/>
      <point x="546" y="501" type="line"/>
      <point x="497" y="437"/>
      <point x="400" y="376"/>
      <point x="306" y="344" type="curve"/>
      <point x="333" y="320"/>
      <point x="371" y="274"/>
      <point x="390" y="245" type="curve"/>
      <point x="492" y="288"/>
      <point x="594" y="371"/>
    </contour>
    <contour>
      <point x="722" y="305" type="curve"/>
      <point x="604" y="352" type="line"/>
      <point x="538" y="266"/>
      <point x="404" y="181"/>
      <point x="256" y="132" type="curve"/>
      <point x="286" y="104"/>
      <point x="329" y="51"/>
      <point x="350" y="17" type="curve"/>
      <point x="497" y="78"/>
      <point x="640" y="189"/>
    </contour>
    <contour>
      <point x="460" y="451" type="curve"/>
      <point x="354" y="408" type="line"/>
      <point x="415" y="303"/>
      <point x="465" y="154"/>
      <point x="476" y="47" type="curve"/>
      <point x="593" y="97" type="line"/>
      <point x="580" y="197"/>
      <point x="525" y="343"/>
    </contour>
  </outline>
</glyph>
<glyph name="uni555D" format="2">
  <advance width="1000" height="1000"/>
  <unicode hex="555D"/>
  <note>
cid12484
</note>
  <outline>
    <contour>
      <point x="956" y="-74" type="line"/>
      <point x="956" y="782" type="line"/>
      <point x="659" y="782" type="line"/>
      <point x="659" y="-83" type="line"/>
      <point x="782" y="-83" type="line"/>
      <point x="782" y="655" type="line"/>
      <point x="826" y="655" type="line"/>
      <point x="826" y="-74" type="line"/>
    </contour>
    <contour>
      <point x="902" y="-13" type="line"/>
      <point x="902" y="113" type="line"/>
      <point x="708" y="113" type="line"/>
      <point x="708" y="-13" type="line"/>
    </contour>
    <contour>
      <point x="670" y="739" type="curve"/>
      <point x="568" y="842" type="line"/>
      <point x="503" y="815"/>
      <point x="403" y="788"/>
      <point x="312" y="771" type="curve"/>
      <point x="327" y="744"/>
      <point x="346" y="698"/>
      <point x="352" y="669" type="curve"/>
      <point x="453" y="682"/>
      <point x="573" y="706"/>
    </contour>
    <contour>
      <point x="643" y="440" type="line"/>
      <point x="643" y="567" type="line"/>
      <point x="327" y="567" type="line"/>
      <point x="327" y="440" type="line"/>
    </contour>
    <contour>
      <point x="556" y="-94" type="line"/>
      <point x="556" y="802" type="line"/>
      <point x="427" y="747" type="line"/>
      <point x="427" y="-94" type="line"/>
    </contour>
    <contour>
      <point x="526" y="453" type="curve"/>
      <point x="433" y="485" type="line"/>
      <point x="400" y="346"/>
      <point x="335" y="203"/>
      <point x="265" y="115" type="curve"/>
      <point x="288" y="79"/>
      <point x="322" y="22"/>
      <point x="336" y="-20" type="curve"/>
      <point x="415" y="92"/>
      <point x="488" y="275"/>
    </contour>
    <contour>
      <point x="312" y="163" type="line"/>
      <point x="312" y="757" type="line"/>
      <point x="133" y="757" type="line"/>
      <point x="133" y="628" type="line"/>
      <point x="203" y="628" type="line"/>
      <point x="203" y="292" type="line"/>
      <point x="133" y="292" type="line"/>
      <point x="133" y="163" type="line"/>
    </contour>
    <contour>
      <point x="162" y="77" type="line"/>
      <point x="162" y="757" type="line"/>
      <point x="55" y="757" type="line"/>
      <point x="55" y="77" type="line"/>
    </contour>
    <contour>
      <point x="552" y="427" type="curve"/>
      <point x="491" y="363" type="line"/>
      <point x="522" y="316"/>
      <point x="575" y="222"/>
      <point x="599" y="166" type="curve"/>
      <point x="677" y="289" type="line"/>
      <point x="659" y="311"/>
      <point x="576" y="405"/>
    </contour>
  </outline>
</glyph>
<glyph name="uni556A" format="2">
  <advance width="1000" height="1000"/>
  <unicode hex="556A"/>
  <note>
cid12502
</note>
  <outline>
    <contour>
      <point x="882" y="-50" type="line"/>
      <point x="882" y="84" type="line"/>
      <point x="678" y="84" type="line"/>
      <point x="678" y="-50" type="line"/>
    </contour>
    <contour>
      <point x="882" y="252" type="line"/>
      <point x="882" y="379" type="line"/>
      <point x="678" y="379" type="line"/>
      <point x="678" y="252" type="line"/>
    </contour>
    <contour>
      <point x="944" y="-87" type="line"/>
      <point x="944" y="676" type="line"/>
      <point x="618" y="676" type="line"/>
      <point x="618" y="-95" type="line"/>
      <point x="733" y="-95" type="line"/>
      <point x="733" y="542" type="line"/>
      <point x="823" y="542" type="line"/>
      <point x="823" y="-87" type="line"/>
    </contour>
    <contour>
      <point x="856" y="842" type="curve"/>
      <point x="719" y="859" type="line"/>
      <point x="716" y="792"/>
      <point x="704" y="701"/>
      <point x="692" y="641" type="curve"/>
      <point x="812" y="624" type="line"/>
      <point x="826" y="678"/>
      <point x="840" y="761"/>
    </contour>
    <contour>
      <point x="322" y="169" type="line"/>
      <point x="322" y="757" type="line"/>
      <point x="131" y="757" type="line"/>
      <point x="131" y="628" type="line"/>
      <point x="203" y="628" type="line"/>
      <point x="203" y="298" type="line"/>
      <point x="131" y="298" type="line"/>
      <point x="131" y="169" type="line"/>
    </contour>
    <contour>
      <point x="169" y="77" type="line"/>
      <point x="169" y="757" type="line"/>
      <point x="52" y="757" type="line"/>
      <point x="52" y="77" type="line"/>
    </contour>
    <contour>
      <point x="605" y="539" type="line"/>
      <point x="605" y="672" type="line"/>
      <point x="335" y="672" type="line"/>
      <point x="335" y="539" type="line"/>
    </contour>
    <contour>
      <point x="320" y="366" type="curve"/>
      <point x="356" y="227" type="line"/>
      <point x="434" y="253"/>
      <point x="534" y="289"/>
      <point x="616" y="321" type="curve"/>
      <point x="595" y="442" type="line"/>
      <point x="504" y="415"/>
      <point x="398" y="386"/>
    </contour>
    <contour>
      <point x="536" y="54" type="curve" smooth="yes"/>
      <point x="536" y="855" type="line"/>
      <point x="407" y="855" type="line"/>
      <point x="407" y="55" type="line" smooth="yes"/>
      <point x="407" y="41"/>
      <point x="402" y="37"/>
      <point x="389" y="36" type="curve" smooth="yes"/>
      <point x="376" y="36"/>
      <point x="338" y="36"/>
      <point x="300" y="38" type="curve"/>
      <point x="318" y="1"/>
      <point x="337" y="-58"/>
      <point x="341" y="-94" type="curve"/>
      <point x="407" y="-94"/>
      <point x="456" y="-88"/>
      <point x="491" y="-66" type="curve" smooth="yes"/>
      <point x="525" y="-44"/>
      <point x="536" y="-8"/>
    </contour>
  </outline>
</glyph>
<glyph name="uni5575" format="2">
  <advance width="1000" height="1000"/>
  <unicode hex="5575"/>
  <note>
cid12513
</note>
  <outline>
    <contour>
      <point x="318" y="169" type="line"/>
      <point x="318" y="757" type="line"/>
      <point x="132" y="757" type="line"/>
      <point x="132" y="628" type="line"/>
      <point x="202" y="628" type="line"/>
      <point x="202" y="298" type="line"/>
      <point x="132" y="298" type="line"/>
      <point x="132" y="169" type="line"/>
    </contour>
    <contour>
      <point x="165" y="77" type="line"/>
      <point x="165" y="757" type="line"/>
      <point x="50" y="757" type="line"/>
      <point x="50" y="77" type="line"/>
    </contour>
    <contour>
      <point x="409" y="840" type="curve"/>
      <point x="332" y="742" type="line"/>
      <point x="378" y="720"/>
      <point x="436" y="684"/>
      <point x="464" y="656" type="curve"/>
      <point x="546" y="763" type="line"/>
      <point x="515" y="790"/>
      <point x="456" y="821"/>
    </contour>
    <contour>
      <point x="370" y="584" type="curve"/>
      <point x="296" y="486" type="line"/>
      <point x="342" y="464"/>
      <point x="398" y="429"/>
      <point x="425" y="403" type="curve"/>
      <point x="505" y="511" type="line"/>
      <point x="474" y="537"/>
      <point x="416" y="566"/>
    </contour>
    <contour>
      <point x="280" y="-19" type="curve"/>
      <point x="404" y="-77" type="line"/>
      <point x="439" y="32"/>
      <point x="475" y="152"/>
      <point x="503" y="263" type="curve"/>
      <point x="394" y="324" type="line"/>
      <point x="360" y="200"/>
      <point x="313" y="67"/>
    </contour>
    <contour>
      <point x="650" y="462" type="curve" smooth="yes"/>
      <point x="650" y="725" type="line"/>
      <point x="521" y="725" type="line"/>
      <point x="521" y="462" type="line" smooth="yes"/>
      <point x="521" y="323"/>
      <point x="515" y="124"/>
      <point x="443" y="-11" type="curve"/>
      <point x="475" y="-29"/>
      <point x="520" y="-65"/>
      <point x="547" y="-93" type="curve"/>
      <point x="635" y="60"/>
      <point x="650" y="303"/>
    </contour>
    <contour>
      <point x="896" y="605" type="line"/>
      <point x="896" y="725" type="line"/>
      <point x="576" y="725" type="line"/>
      <point x="576" y="605" type="line"/>
    </contour>
    <contour>
      <point x="896" y="728" type="line"/>
      <point x="878" y="725" type="line"/>
      <point x="861" y="725" type="line"/>
      <point x="861" y="709" type="line" smooth="yes"/>
      <point x="857" y="649"/>
      <point x="849" y="572"/>
      <point x="840" y="525" type="curve"/>
      <point x="939" y="504" type="line"/>
      <point x="956" y="556"/>
      <point x="971" y="640"/>
      <point x="978" y="714" type="curve"/>
    </contour>
    <contour>
      <point x="817" y="441" type="line"/>
      <point x="817" y="851" type="line"/>
      <point x="688" y="851" type="line"/>
      <point x="688" y="441" type="line"/>
    </contour>
    <contour>
      <point x="883" y="366" type="line"/>
      <point x="883" y="484" type="line"/>
      <point x="554" y="484" type="line"/>
      <point x="554" y="366" type="line"/>
    </contour>
    <contour>
      <point x="882" y="488" type="line"/>
      <point x="860" y="484" type="line"/>
      <point x="837" y="484" type="line"/>
      <point x="837" y="462" type="line"/>
      <point x="806" y="267"/>
      <point x="705" y="85"/>
      <point x="560" y="12" type="curve"/>
      <point x="586" y="-13"/>
      <point x="622" y="-61"/>
      <point x="639" y="-93" type="curve"/>
      <point x="809" y="8"/>
      <point x="919" y="200"/>
      <point x="963" y="461" type="curve"/>
    </contour>
    <contour>
      <point x="699" y="431" type="curve"/>
      <point x="585" y="410" type="line"/>
      <point x="636" y="173"/>
      <point x="721" y="-4"/>
      <point x="903" y="-95" type="curve"/>
      <point x="922" y="-60"/>
      <point x="961" y="-8"/>
      <point x="990" y="17" type="curve"/>
      <point x="825" y="86"/>
      <point x="739" y="241"/>
    </contour>
  </outline>
</glyph>
<glyph name="uni5576" format="2">
  <advance width="1000" height="1000"/>
  <unicode hex="5576"/>
  <note>
cid12514
</note>
  <outline>
    <contour>
      <point x="345" y="179" type="line"/>
      <point x="345" y="757" type="line"/>
      <point x="141" y="757" type="line"/>
      <point x="141" y="626" type="line"/>
      <point x="223" y="626" type="line"/>
      <point x="223" y="311" type="line"/>
      <point x="141" y="311" type="line"/>
      <point x="141" y="179" type="line"/>
    </contour>
    <contour>
      <point x="177" y="95" type="line"/>
      <point x="177" y="757" type="line"/>
      <point x="57" y="757" type="line"/>
      <point x="57" y="95" type="line"/>
    </contour>
    <contour>
      <point x="730" y="689" type="line"/>
      <point x="730" y="856" type="line"/>
      <point x="587" y="856" type="line"/>
      <point x="587" y="689" type="line"/>
    </contour>
    <contour>
      <point x="961" y="542" type="line"/>
      <point x="961" y="744" type="line"/>
      <point x="369" y="744" type="line"/>
      <point x="369" y="542" type="line"/>
      <point x="501" y="542" type="line"/>
      <point x="501" y="620" type="line"/>
      <point x="822" y="620" type="line"/>
      <point x="822" y="542" type="line"/>
    </contour>
    <contour>
      <point x="906" y="395" type="line"/>
      <point x="906" y="526" type="line"/>
      <point x="424" y="526" type="line"/>
      <point x="424" y="395" type="line"/>
    </contour>
    <contour>
      <point x="886" y="179" type="line"/>
      <point x="886" y="308" type="line"/>
      <point x="656" y="308" type="line"/>
      <point x="656" y="179" type="line"/>
    </contour>
    <contour>
      <point x="728" y="-15" type="line"/>
      <point x="728" y="469" type="line"/>
      <point x="589" y="469" type="line"/>
      <point x="589" y="33" type="line"/>
    </contour>
    <contour>
      <point x="523" y="240" type="curve"/>
      <point x="426" y="212" type="line"/>
      <point x="486" y="-31"/>
      <point x="600" y="-73"/>
      <point x="765" y="-73" type="curve" smooth="yes"/>
      <point x="903" y="-73" type="line"/>
      <point x="944" y="-73" type="line"/>
      <point x="950" y="-35"/>
      <point x="967" y="28"/>
      <point x="985" y="59" type="curve"/>
      <point x="934" y="57"/>
      <point x="814" y="56"/>
      <point x="773" y="56" type="curve" smooth="yes"/>
      <point x="658" y="57"/>
      <point x="567" y="78"/>
    </contour>
    <contour>
      <point x="548" y="339" type="curve"/>
      <point x="412" y="351" type="line"/>
      <point x="401" y="196"/>
      <point x="363" y="66"/>
      <point x="271" y="-8" type="curve"/>
      <point x="302" y="-28"/>
      <point x="358" y="-74"/>
      <point x="380" y="-98" type="curve"/>
      <point x="480" y="-3"/>
      <point x="529" y="149"/>
    </contour>
  </outline>
</glyph>
<glyph name="uni5577" format="2">
  <advance width="1000" height="1000"/>
  <unicode hex="5577"/>
  <note>
cid12515
</note>
  <outline>
    <contour>
      <point x="309" y="163" type="line"/>
      <point x="309" y="757" type="line"/>
      <point x="130" y="757" type="line"/>
      <point x="130" y="628" type="line"/>
      <point x="200" y="628" type="line"/>
      <point x="200" y="292" type="line"/>
      <point x="130" y="292" type="line"/>
      <point x="130" y="163" type="line"/>
    </contour>
    <contour>
      <point x="162" y="77" type="line"/>
      <point x="162" y="757" type="line"/>
      <point x="55" y="757" type="line"/>
      <point x="55" y="77" type="line"/>
    </contour>
    <contour>
      <point x="551" y="695" type="line"/>
      <point x="551" y="853" type="line"/>
      <point x="432" y="853" type="line"/>
      <point x="432" y="695" type="line"/>
    </contour>
    <contour>
      <point x="639" y="336" type="line"/>
      <point x="639" y="752" type="line"/>
      <point x="388" y="752" type="line"/>
      <point x="388" y="644" type="line"/>
      <point x="525" y="644" type="line"/>
      <point x="525" y="444" type="line"/>
      <point x="388" y="444" type="line"/>
      <point x="388" y="336" type="line"/>
    </contour>
    <contour>
      <point x="869" y="667" type="line"/>
      <point x="869" y="788" type="line"/>
      <point x="664" y="788" type="line"/>
      <point x="664" y="-94" type="line"/>
      <point x="784" y="-94" type="line"/>
      <point x="784" y="667" type="line"/>
    </contour>
    <contour>
      <point x="875" y="793" type="line"/>
      <point x="859" y="788" type="line"/>
      <point x="838" y="788" type="line"/>
      <point x="838" y="776" type="line"/>
      <point x="828" y="683"/>
      <point x="811" y="567"/>
      <point x="789" y="441" type="curve"/>
      <point x="834" y="347"/>
      <point x="849" y="296"/>
      <point x="849" y="248" type="curve" smooth="yes"/>
      <point x="849" y="214"/>
      <point x="845" y="189"/>
      <point x="835" y="179" type="curve"/>
      <point x="829" y="175"/>
      <point x="821" y="173"/>
      <point x="811" y="173" type="curve" smooth="yes"/>
      <point x="801" y="173"/>
      <point x="786" y="173"/>
      <point x="772" y="174" type="curve"/>
      <point x="792" y="138"/>
      <point x="803" y="83"/>
      <point x="804" y="47" type="curve"/>
      <point x="827" y="46"/>
      <point x="851" y="47"/>
      <point x="868" y="49" type="curve" smooth="yes"/>
      <point x="890" y="54"/>
      <point x="910" y="62"/>
      <point x="926" y="74" type="curve" smooth="yes"/>
      <point x="962" y="105"/>
      <point x="979" y="160"/>
      <point x="979" y="241" type="curve" smooth="yes"/>
      <point x="979" y="297"/>
      <point x="960" y="364"/>
      <point x="911" y="459" type="curve"/>
      <point x="936" y="562"/>
      <point x="957" y="656"/>
      <point x="976" y="743" type="curve"/>
    </contour>
    <contour>
      <point x="560" y="493" type="line"/>
      <point x="560" y="599" type="line"/>
      <point x="390" y="599" type="line"/>
      <point x="390" y="493" type="line"/>
    </contour>
    <contour>
      <point x="270" y="75" type="curve"/>
      <point x="301" y="-58" type="line"/>
      <point x="387" y="-30"/>
      <point x="492" y="3"/>
      <point x="588" y="36" type="curve"/>
      <point x="567" y="161" type="line"/>
      <point x="459" y="128"/>
      <point x="347" y="94"/>
    </contour>
    <contour>
      <point x="544" y="311" type="curve"/>
      <point x="446" y="254" type="line"/>
      <point x="497" y="166"/>
      <point x="548" y="46"/>
      <point x="567" y="-31" type="curve"/>
      <point x="671" y="32" type="line"/>
      <point x="650" y="109"/>
      <point x="597" y="223"/>
    </contour>
    <contour>
      <point x="675" y="227" type="curve"/>
      <point x="600" y="307" type="line"/>
      <point x="581" y="280"/>
      <point x="544" y="240"/>
      <point x="520" y="219" type="curve"/>
      <point x="583" y="148" type="line"/>
      <point x="608" y="167"/>
      <point x="643" y="197"/>
    </contour>
    <contour>
      <point x="452" y="84" type="line"/>
      <point x="452" y="752" type="line"/>
      <point x="333" y="752" type="line"/>
      <point x="333" y="31" type="line"/>
    </contour>
  </outline>
</glyph>
<glyph name="uni559A" format="2">
  <advance width="1000" height="1000"/>
  <unicode hex="559A"/>
  <note>
cid12577
</note>
  <outline>
    <contour>
      <point x="633" y="831" type="curve"/>
      <point x="497" y="854" type="line"/>
      <point x="465" y="766"/>
      <point x="402" y="669"/>
      <point x="300" y="597" type="curve"/>
      <point x="329" y="578"/>
      <point x="372" y="532"/>
      <point x="392" y="502" type="curve"/>
      <point x="511" y="595"/>
      <point x="583" y="708"/>
    </contour>
    <contour>
      <point x="732" y="663" type="line"/>
      <point x="732" y="774" type="line"/>
      <point x="529" y="774" type="line"/>
      <point x="464" y="663" type="line"/>
    </contour>
    <contour>
      <point x="918" y="267" type="line"/>
      <point x="918" y="607" type="line"/>
      <point x="383" y="607" type="line"/>
      <point x="383" y="267" type="line"/>
      <point x="498" y="267" type="line"/>
      <point x="498" y="493" type="line"/>
      <point x="797" y="493" type="line"/>
      <point x="797" y="267" type="line"/>
    </contour>
    <contour>
      <point x="976" y="120" type="line"/>
      <point x="976" y="238" type="line"/>
      <point x="309" y="238" type="line"/>
      <point x="309" y="120" type="line"/>
    </contour>
    <contour>
      <point x="629" y="477" type="curve" smooth="yes"/>
      <point x="629" y="552" type="line"/>
      <point x="535" y="552" type="line"/>
      <point x="535" y="480" type="line" smooth="yes"/>
      <point x="535" y="440"/>
      <point x="528" y="395"/>
      <point x="476" y="366" type="curve"/>
      <point x="497" y="349"/>
      <point x="527" y="312"/>
      <point x="539" y="290" type="curve"/>
      <point x="617" y="335"/>
      <point x="629" y="411"/>
    </contour>
    <contour>
      <point x="705" y="171" type="curve"/>
      <point x="585" y="150" type="line"/>
      <point x="643" y="13"/>
      <point x="734" y="-65"/>
      <point x="906" y="-96" type="curve"/>
      <point x="924" y="-58"/>
      <point x="961" y="-2"/>
      <point x="990" y="26" type="curve"/>
      <point x="842" y="40"/>
      <point x="749" y="87"/>
    </contour>
    <contour>
      <point x="718" y="309" type="curve"/>
      <point x="574" y="309" type="line"/>
      <point x="564" y="144"/>
      <point x="547" y="63"/>
      <point x="264" y="22" type="curve"/>
      <point x="290" y="-7"/>
      <point x="323" y="-61"/>
      <point x="334" y="-96" type="curve"/>
      <point x="663" y="-36"/>
      <point x="704" y="90"/>
    </contour>
    <contour>
      <point x="755" y="435" type="curve" smooth="yes"/>
      <point x="755" y="552" type="line"/>
      <point x="658" y="552" type="line"/>
      <point x="658" y="434" type="line" smooth="yes"/>
      <point x="658" y="349"/>
      <point x="673" y="323"/>
      <point x="748" y="323" type="curve" smooth="yes"/>
      <point x="762" y="323"/>
      <point x="781" y="323"/>
      <point x="796" y="323" type="curve" smooth="yes"/>
      <point x="844" y="323"/>
      <point x="871" y="339"/>
      <point x="882" y="393" type="curve"/>
      <point x="854" y="399"/>
      <point x="814" y="414"/>
      <point x="797" y="428" type="curve"/>
      <point x="795" y="416"/>
      <point x="792" y="414"/>
      <point x="782" y="414" type="curve" smooth="yes"/>
      <point x="778" y="414"/>
      <point x="768" y="414"/>
      <point x="765" y="414" type="curve" smooth="yes"/>
      <point x="756" y="414"/>
      <point x="755" y="415"/>
    </contour>
    <contour>
      <point x="741" y="779" type="line"/>
      <point x="720" y="774" type="line"/>
      <point x="689" y="774" type="line"/>
      <point x="689" y="750" type="line"/>
      <point x="673" y="708"/>
      <point x="632" y="638"/>
      <point x="596" y="593" type="curve"/>
      <point x="625" y="577"/>
      <point x="669" y="549"/>
      <point x="694" y="529" type="curve"/>
      <point x="740" y="579"/>
      <point x="799" y="659"/>
      <point x="834" y="719" type="curve"/>
    </contour>
    <contour>
      <point x="339" y="208" type="line"/>
      <point x="339" y="765" type="line"/>
      <point x="144" y="765" type="line"/>
      <point x="144" y="636" type="line"/>
      <point x="219" y="636" type="line"/>
      <point x="219" y="337" type="line"/>
      <point x="144" y="337" type="line"/>
      <point x="144" y="208" type="line"/>
    </contour>
    <contour>
      <point x="176" y="121" type="line"/>
      <point x="176" y="765" type="line"/>
      <point x="60" y="765" type="line"/>
      <point x="60" y="121" type="line"/>
    </contour>
  </outline>
</glyph>
<glyph name="uni55B5" format="2">
  <advance width="1000" height="1000"/>
  <unicode hex="55B5"/>
  <note>
cid12629
</note>
  <outline>
    <contour>
      <point x="962" y="608" type="line"/>
      <point x="962" y="741" type="line"/>
      <point x="381" y="741" type="line"/>
      <point x="381" y="608" type="line"/>
    </contour>
    <contour>
      <point x="869" y="142" type="line"/>
      <point x="869" y="264" type="line"/>
      <point x="468" y="264" type="line"/>
      <point x="468" y="142" type="line"/>
    </contour>
    <contour>
      <point x="867" y="-56" type="line"/>
      <point x="867" y="71" type="line"/>
      <point x="466" y="71" type="line"/>
      <point x="466" y="-56" type="line"/>
    </contour>
    <contour>
      <point x="624" y="499" type="line"/>
      <point x="624" y="845" type="line"/>
      <point x="486" y="845" type="line"/>
      <point x="486" y="499" type="line"/>
    </contour>
    <contour>
      <point x="868" y="499" type="line"/>
      <point x="868" y="845" type="line"/>
      <point x="729" y="845" type="line"/>
      <point x="729" y="499" type="line"/>
    </contour>
    <contour>
      <point x="737" y="9" type="line"/>
      <point x="737" y="396" type="line"/>
      <point x="604" y="396" type="line"/>
      <point x="604" y="9" type="line"/>
    </contour>
    <contour>
      <point x="942" y="-89" type="line"/>
      <point x="942" y="460" type="line"/>
      <point x="403" y="460" type="line"/>
      <point x="403" y="-95" type="line"/>
      <point x="537" y="-95" type="line"/>
      <point x="537" y="333" type="line"/>
      <point x="802" y="333" type="line"/>
      <point x="802" y="-89" type="line"/>
    </contour>
    <contour>
      <point x="365" y="163" type="line"/>
      <point x="365" y="758" type="line"/>
      <point x="135" y="758" type="line"/>
      <point x="135" y="624" type="line"/>
      <point x="235" y="624" type="line"/>
      <point x="235" y="297" type="line"/>
      <point x="135" y="297" type="line"/>
      <point x="135" y="163" type="line"/>
    </contour>
    <contour>
      <point x="187" y="87" type="line"/>
      <point x="187" y="758" type="line"/>
      <point x="59" y="758" type="line"/>
      <point x="59" y="87" type="line"/>
    </contour>
  </outline>
</glyph>
<glyph name="uni55BA" format="2">
  <advance width="1000"/>
  <unicode hex="55BA"/>
  <note>
cid12636
</note>
  <outline>
    <contour>
      <point x="562" y="823" type="curve"/>
      <point x="436" y="853" type="line"/>
      <point x="405" y="716"/>
      <point x="347" y="585"/>
      <point x="270" y="502" type="curve"/>
      <point x="293" y="473"/>
      <point x="331" y="406"/>
      <point x="345" y="376" type="curve"/>
      <point x="443" y="483"/>
      <point x="519" y="654"/>
    </contour>
    <contour>
      <point x="316" y="138" type="line"/>
      <point x="316" y="757" type="line"/>
      <point x="133" y="757" type="line"/>
      <point x="133" y="628" type="line"/>
      <point x="203" y="628" type="line"/>
      <point x="203" y="267" type="line"/>
      <point x="133" y="267" type="line"/>
      <point x="133" y="138" type="line"/>
    </contour>
    <contour>
      <point x="167" y="68" type="line"/>
      <point x="167" y="757" type="line"/>
      <point x="55" y="757" type="line"/>
      <point x="55" y="68" type="line"/>
    </contour>
    <contour>
      <point x="501" y="679" type="line"/>
      <point x="488" y="684" type="line"/>
      <point x="377" y="573" type="line"/>
      <point x="377" y="-93" type="line"/>
      <point x="501" y="-93" type="line"/>
    </contour>
    <contour>
      <point x="806" y="-95" type="line"/>
      <point x="806" y="324" type="line"/>
      <point x="679" y="324" type="line"/>
      <point x="679" y="-95" type="line"/>
    </contour>
    <contour>
      <point x="520" y="358" type="curve"/>
      <point x="535" y="236" type="line"/>
      <point x="642" y="244"/>
      <point x="779" y="256"/>
      <point x="911" y="269" type="curve"/>
      <point x="911" y="375" type="line"/>
      <point x="766" y="368"/>
      <point x="618" y="361"/>
    </contour>
    <contour>
      <point x="941" y="608" type="curve"/>
      <point x="828" y="664" type="line"/>
      <point x="766" y="556"/>
      <point x="662" y="420"/>
      <point x="579" y="336" type="curve"/>
      <point x="669" y="285" type="line"/>
      <point x="754" y="368"/>
      <point x="859" y="496"/>
    </contour>
    <contour>
      <point x="806" y="691" type="curve"/>
      <point x="686" y="738" type="line"/>
      <point x="664" y="680"/>
      <point x="624" y="603"/>
      <point x="590" y="553" type="curve"/>
      <point x="681" y="512" type="line"/>
      <point x="718" y="557"/>
      <point x="763" y="627"/>
    </contour>
    <contour>
      <point x="911" y="212" type="curve"/>
      <point x="808" y="179" type="line"/>
      <point x="837" y="109"/>
      <point x="863" y="17"/>
      <point x="871" y="-41" type="curve"/>
      <point x="982" y="-4" type="line"/>
      <point x="973" y="54"/>
      <point x="943" y="143"/>
    </contour>
    <contour>
      <point x="896" y="478" type="curve"/>
      <point x="797" y="435" type="line"/>
      <point x="832" y="365"/>
      <point x="867" y="272"/>
      <point x="877" y="214" type="curve"/>
      <point x="984" y="263" type="line"/>
      <point x="972" y="321"/>
      <point x="934" y="410"/>
    </contour>
    <contour>
      <point x="601" y="624" type="curve"/>
      <point x="533" y="537" type="line"/>
      <point x="588" y="490"/>
      <point x="657" y="425"/>
      <point x="687" y="380" type="curve"/>
      <point x="760" y="479" type="line"/>
      <point x="728" y="521"/>
      <point x="656" y="582"/>
    </contour>
    <contour>
      <point x="682" y="182" type="curve"/>
      <point x="563" y="207" type="line"/>
      <point x="551" y="133"/>
      <point x="528" y="56"/>
      <point x="495" y="5" type="curve"/>
      <point x="524" y="-10"/>
      <point x="574" y="-41"/>
      <point x="597" y="-60" type="curve"/>
      <point x="633" y="-1"/>
      <point x="665" y="92"/>
    </contour>
    <contour>
      <point x="953" y="743" type="curve"/>
      <point x="854" y="844" type="line"/>
      <point x="776" y="814"/>
      <point x="649" y="788"/>
      <point x="526" y="775" type="curve"/>
      <point x="540" y="746"/>
      <point x="557" y="698"/>
      <point x="561" y="667" type="curve"/>
      <point x="697" y="679"/>
      <point x="848" y="708"/>
    </contour>
  </outline>
</glyph>
<glyph name="uni55BB" format="2">
  <advance width="1000"/>
  <unicode hex="55BB"/>
  <note>
cid12615
</note>
  <outline>
    <contour>
      <point x="346" y="168" type="line"/>
      <point x="346" y="758" type="line"/>
      <point x="134" y="758" type="line"/>
      <point x="134" y="626" type="line"/>
      <point x="221" y="626" type="line"/>
      <point x="221" y="300" type="line"/>
      <point x="134" y="300" type="line"/>
      <point x="134" y="168" type="line"/>
    </contour>
    <contour>
      <point x="178" y="87" type="line"/>
      <point x="178" y="758" type="line"/>
      <point x="54" y="758" type="line"/>
      <point x="54" y="87" type="line"/>
    </contour>
    <contour>
      <point x="811" y="483" type="line"/>
      <point x="811" y="597" type="line"/>
      <point x="486" y="597" type="line"/>
      <point x="486" y="483" type="line"/>
    </contour>
    <contour>
      <point x="608" y="204" type="line"/>
      <point x="608" y="305" type="line"/>
      <point x="450" y="305" type="line"/>
      <point x="450" y="204" type="line"/>
    </contour>
    <contour>
      <point x="608" y="67" type="line"/>
      <point x="608" y="168" type="line"/>
      <point x="450" y="168" type="line"/>
      <point x="450" y="67" type="line"/>
    </contour>
    <contour>
      <point x="654" y="18" type="curve" smooth="yes"/>
      <point x="654" y="445" type="line"/>
      <point x="541" y="445" type="line"/>
      <point x="541" y="20" type="line" smooth="yes"/>
      <point x="541" y="12"/>
      <point x="539" y="9"/>
      <point x="532" y="9" type="curve" smooth="yes"/>
      <point x="525" y="9"/>
      <point x="508" y="9"/>
      <point x="493" y="10" type="curve"/>
      <point x="506" y="-19"/>
      <point x="518" y="-65"/>
      <point x="520" y="-95" type="curve"/>
      <point x="562" y="-95"/>
      <point x="594" y="-94"/>
      <point x="621" y="-76" type="curve" smooth="yes"/>
      <point x="649" y="-58"/>
      <point x="654" y="-29"/>
    </contour>
    <contour>
      <point x="606" y="337" type="line"/>
      <point x="606" y="445" type="line"/>
      <point x="374" y="445" type="line"/>
      <point x="374" y="-95" type="line"/>
      <point x="485" y="-95" type="line"/>
      <point x="485" y="337" type="line"/>
    </contour>
    <contour>
      <point x="784" y="75" type="line"/>
      <point x="784" y="422" type="line"/>
      <point x="679" y="422" type="line"/>
      <point x="679" y="75" type="line"/>
    </contour>
    <contour>
      <point x="647" y="726" type="curve"/>
      <point x="705" y="643"/>
      <point x="811" y="539"/>
      <point x="906" y="482" type="curve"/>
      <point x="928" y="525"/>
      <point x="958" y="576"/>
      <point x="987" y="611" type="curve"/>
      <point x="882" y="657"/>
      <point x="781" y="757"/>
      <point x="709" y="858" type="curve"/>
      <point x="576" y="858" type="line"/>
      <point x="526" y="772"/>
      <point x="421" y="659"/>
      <point x="315" y="602" type="curve"/>
      <point x="340" y="571"/>
      <point x="373" y="518"/>
      <point x="388" y="481" type="curve"/>
      <point x="492" y="542"/>
      <point x="590" y="643"/>
    </contour>
    <contour>
      <point x="931" y="30" type="curve" smooth="yes"/>
      <point x="931" y="454" type="line"/>
      <point x="811" y="454" type="line"/>
      <point x="811" y="32" type="line" smooth="yes"/>
      <point x="811" y="21"/>
      <point x="807" y="18"/>
      <point x="796" y="18" type="curve" smooth="yes"/>
      <point x="784" y="18"/>
      <point x="746" y="18"/>
      <point x="713" y="19" type="curve"/>
      <point x="727" y="-13"/>
      <point x="742" y="-62"/>
      <point x="746" y="-95" type="curve"/>
      <point x="807" y="-95"/>
      <point x="853" y="-93"/>
      <point x="887" y="-75" type="curve" smooth="yes"/>
      <point x="922" y="-56"/>
      <point x="931" y="-25"/>
    </contour>
  </outline>
</glyph>
<glyph name="uni55D6" format="2">
  <advance width="1000" height="1000"/>
  <unicode hex="55D6"/>
  <note>
cid12691
</note>
  <outline>
    <contour>
      <point x="619" y="748" type="curve"/>
      <point x="521" y="842" type="line"/>
      <point x="491" y="814"/>
      <point x="443" y="783"/>
      <point x="398" y="762" type="curve"/>
      <point x="413" y="736"/>
      <point x="430" y="694"/>
      <point x="437" y="668" type="curve"/>
      <point x="493" y="686"/>
      <point x="561" y="713"/>
    </contour>
    <contour>
      <point x="497" y="421" type="line"/>
      <point x="497" y="757" type="line"/>
      <point x="372" y="796" type="line"/>
      <point x="372" y="421" type="line"/>
    </contour>
    <contour>
      <point x="807" y="688" type="line"/>
      <point x="807" y="485" type="line"/>
      <point x="737" y="485" type="line"/>
      <point x="737" y="372" type="line"/>
      <point x="935" y="372" type="line"/>
      <point x="935" y="801" type="line"/>
      <point x="739" y="801" type="line"/>
      <point x="739" y="688" type="line"/>
    </contour>
    <contour>
      <point x="562" y="541" type="line"/>
      <point x="562" y="642" type="line"/>
      <point x="426" y="642" type="line"/>
      <point x="426" y="541" type="line"/>
    </contour>
    <contour>
      <point x="562" y="375" type="line"/>
      <point x="562" y="488" type="line"/>
      <point x="372" y="488" type="line"/>
      <point x="372" y="375" type="line"/>
    </contour>
    <contour>
      <point x="876" y="541" type="line"/>
      <point x="876" y="642" type="line"/>
      <point x="740" y="642" type="line"/>
      <point x="740" y="541" type="line"/>
    </contour>
    <contour>
      <point x="716" y="310" type="line"/>
      <point x="716" y="855" type="line"/>
      <point x="587" y="855" type="line"/>
      <point x="587" y="310" type="line"/>
    </contour>
    <contour>
      <point x="860" y="207" type="line"/>
      <point x="860" y="325" type="line"/>
      <point x="367" y="325" type="line"/>
      <point x="367" y="207" type="line"/>
    </contour>
    <contour>
      <point x="855" y="330" type="line"/>
      <point x="832" y="325" type="line"/>
      <point x="805" y="325" type="line"/>
      <point x="805" y="307" type="line"/>
      <point x="737" y="137"/>
      <point x="541" y="53"/>
      <point x="293" y="25" type="curve"/>
      <point x="316" y="-5"/>
      <point x="343" y="-60"/>
      <point x="355" y="-95" type="curve"/>
      <point x="632" y="-49"/>
      <point x="849" y="51"/>
      <point x="944" y="290" type="curve"/>
    </contour>
    <contour>
      <point x="537" y="226" type="curve"/>
      <point x="408" y="185" type="line"/>
      <point x="511" y="30"/>
      <point x="674" y="-59"/>
      <point x="902" y="-95" type="curve"/>
      <point x="920" y="-57"/>
      <point x="959" y="2"/>
      <point x="990" y="32" type="curve"/>
      <point x="781" y="54"/>
      <point x="614" y="119"/>
    </contour>
    <contour>
      <point x="339" y="178" type="line"/>
      <point x="339" y="757" type="line"/>
      <point x="142" y="757" type="line"/>
      <point x="142" y="628" type="line"/>
      <point x="217" y="628" type="line"/>
      <point x="217" y="307" type="line"/>
      <point x="142" y="307" type="line"/>
      <point x="142" y="178" type="line"/>
    </contour>
    <contour>
      <point x="178" y="95" type="line"/>
      <point x="178" y="757" type="line"/>
      <point x="60" y="757" type="line"/>
      <point x="60" y="95" type="line"/>
    </contour>
  </outline>
</glyph>
<glyph name="uni55E1" format="2">
  <advance width="1000"/>
  <unicode hex="55E1"/>
  <note>
cid12691
</note>
  <outline>
    <contour>
      <point x="575" y="408" type="line"/>
      <point x="331" y="408" type="line"/>
      <point x="331" y="291" type="line"/>
      <point x="575" y="291" type="line"/>
    </contour>
    <contour>
      <point x="633" y="408" type="line"/>
      <point x="515" y="408" type="line"/>
      <point x="515" y="25" type="line" smooth="yes"/>
      <point x="515" y="14"/>
      <point x="511" y="11"/>
      <point x="502" y="11" type="curve" smooth="yes"/>
      <point x="492" y="11"/>
      <point x="449" y="11"/>
      <point x="424" y="12" type="curve"/>
      <point x="438" y="-17"/>
      <point x="452" y="-63"/>
      <point x="455" y="-95" type="curve"/>
      <point x="511" y="-95"/>
      <point x="556" y="-94"/>
      <point x="590" y="-76" type="curve" smooth="yes"/>
      <point x="623" y="-58"/>
      <point x="633" y="-30"/>
      <point x="633" y="23" type="curve" smooth="yes"/>
    </contour>
    <contour>
      <point x="378" y="555" type="curve"/>
      <point x="390" y="439" type="line"/>
      <point x="509" y="446"/>
      <point x="671" y="456"/>
      <point x="825" y="467" type="curve"/>
      <point x="827" y="572" type="line"/>
      <point x="664" y="565"/>
      <point x="492" y="558"/>
    </contour>
    <contour>
      <point x="568" y="783" type="curve"/>
      <point x="447" y="815" type="line"/>
      <point x="417" y="750"/>
      <point x="360" y="687"/>
      <point x="296" y="648" type="curve"/>
      <point x="324" y="630"/>
      <point x="373" y="591"/>
      <point x="395" y="569" type="curve"/>
      <point x="461" y="619"/>
      <point x="528" y="699"/>
    </contour>
    <contour>
      <point x="667" y="681" type="curve"/>
      <point x="528" y="703" type="line"/>
      <point x="515" y="649"/>
      <point x="489" y="575"/>
      <point x="464" y="525" type="curve"/>
      <point x="568" y="500" type="line"/>
      <point x="597" y="545"/>
      <point x="634" y="614"/>
    </contour>
    <contour>
      <point x="750" y="657" type="curve"/>
      <point x="648" y="607" type="line"/>
      <point x="705" y="556"/>
      <point x="774" y="477"/>
      <point x="807" y="425" type="curve"/>
      <point x="913" y="486" type="line"/>
      <point x="879" y="534"/>
      <point x="811" y="607"/>
    </contour>
    <contour>
      <point x="793" y="829" type="curve"/>
      <point x="661" y="829" type="line"/>
      <point x="661" y="768" type="line"/>
      <point x="685" y="768" type="line"/>
      <point x="730" y="694"/>
      <point x="811" y="619"/>
      <point x="903" y="571" type="curve"/>
      <point x="921" y="604"/>
      <point x="962" y="655"/>
      <point x="988" y="680" type="curve"/>
      <point x="905" y="711"/>
      <point x="829" y="767"/>
    </contour>
    <contour>
      <point x="755" y="829" type="line"/>
      <point x="575" y="829" type="line"/>
      <point x="575" y="721" type="line"/>
      <point x="755" y="721" type="line"/>
    </contour>
    <contour>
      <point x="502" y="276" type="curve"/>
      <point x="410" y="314" type="line"/>
      <point x="381" y="275"/>
      <point x="330" y="235"/>
      <point x="279" y="211" type="curve"/>
      <point x="300" y="191"/>
      <point x="331" y="155"/>
      <point x="348" y="131" type="curve"/>
      <point x="403" y="164"/>
      <point x="463" y="219"/>
    </contour>
    <contour>
      <point x="600" y="185" type="curve"/>
      <point x="495" y="228" type="line"/>
      <point x="449" y="154"/>
      <point x="366" y="85"/>
      <point x="281" y="50" type="curve"/>
      <point x="306" y="27"/>
      <point x="340" y="-13"/>
      <point x="358" y="-40" type="curve"/>
      <point x="450" y="8"/>
      <point x="543" y="95"/>
    </contour>
    <contour>
      <point x="904" y="408" type="line"/>
      <point x="652" y="408" type="line"/>
      <point x="652" y="291" type="line"/>
      <point x="904" y="291" type="line"/>
    </contour>
    <contour>
      <point x="950" y="408" type="line"/>
      <point x="832" y="408" type="line"/>
      <point x="832" y="25" type="line" smooth="yes"/>
      <point x="832" y="15"/>
      <point x="828" y="11"/>
      <point x="817" y="11" type="curve" smooth="yes"/>
      <point x="806" y="11"/>
      <point x="771" y="11"/>
      <point x="743" y="12" type="curve"/>
      <point x="756" y="-17"/>
      <point x="771" y="-63"/>
      <point x="776" y="-95" type="curve"/>
      <point x="825" y="-95"/>
      <point x="872" y="-94"/>
      <point x="906" y="-77" type="curve" smooth="yes"/>
      <point x="941" y="-59"/>
      <point x="950" y="-30"/>
      <point x="950" y="24" type="curve" smooth="yes"/>
    </contour>
    <contour>
      <point x="813" y="277" type="curve"/>
      <point x="722" y="314" type="line"/>
      <point x="699" y="279"/>
      <point x="658" y="240"/>
      <point x="615" y="213" type="curve"/>
      <point x="637" y="193"/>
      <point x="667" y="159"/>
      <point x="684" y="136" type="curve"/>
      <point x="730" y="167"/>
      <point x="780" y="221"/>
    </contour>
    <contour>
      <point x="915" y="188" type="curve"/>
      <point x="812" y="231" type="line"/>
      <point x="770" y="163"/>
      <point x="698" y="95"/>
      <point x="625" y="56" type="curve"/>
      <point x="650" y="34"/>
      <point x="684" y="-5"/>
      <point x="703" y="-33" type="curve"/>
      <point x="782" y="18"/>
      <point x="863" y="103"/>
    </contour>
    <contour>
      <point x="312" y="757" type="line"/>
      <point x="133" y="757" type="line"/>
      <point x="133" y="628" type="line"/>
      <point x="199" y="628" type="line"/>
      <point x="199" y="308" type="line"/>
      <point x="133" y="308" type="line"/>
      <point x="133" y="179" type="line"/>
      <point x="312" y="179" type="line"/>
    </contour>
    <contour>
      <point x="165" y="757" type="line"/>
      <point x="55" y="757" type="line"/>
      <point x="55" y="100" type="line"/>
      <point x="165" y="100" type="line"/>
    </contour>
  </outline>
</glyph>
<glyph name="uni55F2" format="2">
  <advance width="1000" height="1000"/>
  <unicode hex="55F2"/>
  <note>
cid12739
</note>
  <outline>
    <contour>
      <point x="834" y="688" type="curve"/>
      <point x="717" y="730" type="line"/>
      <point x="636" y="652"/>
      <point x="476" y="595"/>
      <point x="303" y="582" type="curve"/>
      <point x="324" y="554"/>
      <point x="355" y="494"/>
      <point x="366" y="464" type="curve"/>
      <point x="542" y="488"/>
      <point x="722" y="574"/>
    </contour>
    <contour>
      <point x="632" y="800" type="curve"/>
      <point x="518" y="854" type="line"/>
      <point x="475" y="810"/>
      <point x="404" y="768"/>
      <point x="336" y="745" type="curve"/>
      <point x="362" y="722"/>
      <point x="404" y="674"/>
      <point x="423" y="649" type="curve"/>
      <point x="492" y="682"/>
      <point x="577" y="740"/>
    </contour>
    <contour>
      <point x="568" y="725" type="curve"/>
      <point x="462" y="684" type="line"/>
      <point x="554" y="583"/>
      <point x="734" y="503"/>
      <point x="930" y="476" type="curve"/>
      <point x="942" y="511"/>
      <point x="968" y="567"/>
      <point x="991" y="598" type="curve"/>
      <point x="806" y="612"/>
      <point x="643" y="661"/>
    </contour>
    <contour>
      <point x="767" y="858" type="curve"/>
      <point x="662" y="794" type="line"/>
      <point x="731" y="754"/>
      <point x="812" y="696"/>
      <point x="858" y="654" type="curve"/>
      <point x="971" y="725" type="line"/>
      <point x="920" y="767"/>
      <point x="836" y="822"/>
    </contour>
    <contour>
      <point x="552" y="399" type="curve"/>
      <point x="449" y="353" type="line"/>
      <point x="472" y="335"/>
      <point x="497" y="308"/>
      <point x="509" y="288" type="curve"/>
      <point x="619" y="337" type="line"/>
      <point x="604" y="356"/>
      <point x="577" y="382"/>
    </contour>
    <contour>
      <point x="767" y="492" type="line"/>
      <point x="747" y="487" type="line"/>
      <point x="725" y="487" type="line"/>
      <point x="725" y="471" type="line"/>
      <point x="674" y="374"/>
      <point x="528" y="297"/>
      <point x="346" y="272" type="curve"/>
      <point x="363" y="245"/>
      <point x="382" y="201"/>
      <point x="389" y="171" type="curve"/>
      <point x="588" y="206"/>
      <point x="762" y="311"/>
      <point x="840" y="444" type="curve"/>
    </contour>
    <contour>
      <point x="764" y="400" type="line"/>
      <point x="764" y="487" type="line"/>
      <point x="628" y="487" type="line"/>
      <point x="560" y="400" type="line"/>
    </contour>
    <contour>
      <point x="649" y="141" type="curve"/>
      <point x="542" y="97" type="line"/>
      <point x="565" y="75"/>
      <point x="590" y="44"/>
      <point x="601" y="24" type="curve"/>
      <point x="715" y="70" type="line"/>
      <point x="702" y="91"/>
      <point x="675" y="120"/>
    </contour>
    <contour>
      <point x="894" y="239" type="line"/>
      <point x="872" y="234" type="line"/>
      <point x="847" y="234" type="line"/>
      <point x="847" y="218" type="line"/>
      <point x="789" y="103"/>
      <point x="623" y="30"/>
      <point x="383" y="15" type="curve"/>
      <point x="401" y="-17"/>
      <point x="418" y="-66"/>
      <point x="423" y="-97" type="curve"/>
      <point x="682" y="-76"/>
      <point x="878" y="27"/>
      <point x="969" y="189" type="curve"/>
    </contour>
    <contour>
      <point x="892" y="140" type="line"/>
      <point x="892" y="234" type="line"/>
      <point x="730" y="234" type="line"/>
      <point x="658" y="140" type="line"/>
    </contour>
    <contour>
      <point x="702" y="514" type="curve"/>
      <point x="601" y="552" type="line"/>
      <point x="556" y="492"/>
      <point x="462" y="440"/>
      <point x="357" y="416" type="curve"/>
      <point x="377" y="392"/>
      <point x="401" y="352"/>
      <point x="412" y="325" type="curve"/>
      <point x="531" y="358"/>
      <point x="643" y="431"/>
    </contour>
    <contour>
      <point x="840" y="278" type="curve"/>
      <point x="734" y="319" type="line"/>
      <point x="682" y="246"/>
      <point x="564" y="182"/>
      <point x="428" y="154" type="curve"/>
      <point x="450" y="127"/>
      <point x="475" y="86"/>
      <point x="485" y="60" type="curve"/>
      <point x="632" y="97"/>
      <point x="769" y="181"/>
    </contour>
    <contour>
      <point x="324" y="179" type="line"/>
      <point x="324" y="763" type="line"/>
      <point x="134" y="763" type="line"/>
      <point x="134" y="634" type="line"/>
      <point x="204" y="634" type="line"/>
      <point x="204" y="307" type="line"/>
      <point x="134" y="307" type="line"/>
      <point x="134" y="179" type="line"/>
    </contour>
    <contour>
      <point x="169" y="92" type="line"/>
      <point x="169" y="763" type="line"/>
      <point x="53" y="763" type="line"/>
      <point x="53" y="92" type="line"/>
    </contour>
  </outline>
</glyph>
<glyph name="uni560C" format="2">
  <advance width="1000" height="1000"/>
  <unicode hex="560C"/>
  <note>
cid12788
</note>
  <outline>
    <contour>
      <point x="815" y="504" type="line"/>
      <point x="499" y="504" type="line"/>
      <point x="499" y="571" type="line"/>
      <point x="815" y="571" type="line"/>
    </contour>
    <contour>
      <point x="946" y="409" type="line"/>
      <point x="946" y="666" type="line"/>
      <point x="377" y="666" type="line"/>
      <point x="377" y="409" type="line"/>
    </contour>
    <contour>
      <point x="905" y="283" type="line"/>
      <point x="905" y="386" type="line"/>
      <point x="416" y="386" type="line"/>
      <point x="416" y="283" type="line"/>
    </contour>
    <contour>
      <point x="975" y="148" type="line"/>
      <point x="975" y="256" type="line"/>
      <point x="344" y="256" type="line"/>
      <point x="344" y="148" type="line"/>
    </contour>
    <contour>
      <point x="550" y="104" type="curve"/>
      <point x="424" y="141" type="line"/>
      <point x="397" y="90"/>
      <point x="349" y="37"/>
      <point x="297" y="3" type="curve"/>
      <point x="326" y="-17"/>
      <point x="375" y="-61"/>
      <point x="397" y="-84" type="curve"/>
      <point x="453" y="-40"/>
      <point x="514" y="34"/>
    </contour>
    <contour>
      <point x="960" y="709" type="line"/>
      <point x="960" y="822" type="line"/>
      <point x="352" y="822" type="line"/>
      <point x="352" y="709" type="line"/>
    </contour>
    <contour>
      <point x="636" y="611" type="line"/>
      <point x="636" y="755" type="line"/>
      <point x="510" y="755" type="line"/>
      <point x="510" y="611" type="line"/>
    </contour>
    <contour>
      <point x="801" y="611" type="line"/>
      <point x="801" y="755" type="line"/>
      <point x="674" y="755" type="line"/>
      <point x="674" y="611" type="line"/>
    </contour>
    <contour>
      <point x="635" y="440" type="line"/>
      <point x="635" y="634" type="line"/>
      <point x="536" y="634" type="line"/>
      <point x="536" y="440" type="line"/>
    </contour>
    <contour>
      <point x="775" y="440" type="line"/>
      <point x="775" y="634" type="line"/>
      <point x="675" y="634" type="line"/>
      <point x="675" y="440" type="line"/>
    </contour>
    <contour>
      <point x="725" y="30" type="curve" smooth="yes"/>
      <point x="725" y="210" type="line"/>
      <point x="590" y="210" type="line"/>
      <point x="590" y="34" type="line" smooth="yes"/>
      <point x="590" y="24"/>
      <point x="586" y="21"/>
      <point x="574" y="21" type="curve" smooth="yes"/>
      <point x="562" y="21"/>
      <point x="520" y="21"/>
      <point x="488" y="22" type="curve"/>
      <point x="505" y="-10"/>
      <point x="525" y="-59"/>
      <point x="531" y="-94" type="curve"/>
      <point x="590" y="-94"/>
      <point x="636" y="-93"/>
      <point x="675" y="-75" type="curve" smooth="yes"/>
      <point x="715" y="-57"/>
      <point x="725" y="-27"/>
    </contour>
    <contour>
      <point x="842" y="140" type="curve"/>
      <point x="737" y="82" type="line"/>
      <point x="785" y="34"/>
      <point x="842" y="-34"/>
      <point x="868" y="-78" type="curve"/>
      <point x="977" y="-7" type="line"/>
      <point x="949" y="35"/>
      <point x="893" y="95"/>
    </contour>
    <contour>
      <point x="332" y="172" type="line"/>
      <point x="332" y="757" type="line"/>
      <point x="135" y="757" type="line"/>
      <point x="135" y="628" type="line"/>
      <point x="210" y="628" type="line"/>
      <point x="210" y="301" type="line"/>
      <point x="135" y="301" type="line"/>
      <point x="135" y="172" type="line"/>
    </contour>
    <contour>
      <point x="171" y="86" type="line"/>
      <point x="171" y="757" type="line"/>
      <point x="53" y="757" type="line"/>
      <point x="53" y="86" type="line"/>
    </contour>
  </outline>
</glyph>
<glyph name="uni5613" format="2">
  <advance width="1000" height="1000"/>
  <unicode hex="5613"/>
  <note>
cid12804
</note>
  <outline>
    <contour>
      <point x="461" y="243" type="curve"/>
      <point x="489" y="157" type="line"/>
      <point x="540" y="173"/>
      <point x="592" y="191"/>
      <point x="646" y="210" type="curve"/>
      <point x="635" y="284" type="line"/>
      <point x="569" y="268"/>
      <point x="508" y="252"/>
    </contour>
    <contour>
      <point x="954" y="-88" type="line"/>
      <point x="954" y="811" type="line"/>
      <point x="340" y="811" type="line"/>
      <point x="340" y="-88" type="line"/>
      <point x="461" y="-88" type="line"/>
      <point x="461" y="698" type="line"/>
      <point x="827" y="698" type="line"/>
      <point x="827" y="-88" type="line"/>
    </contour>
    <contour>
      <point x="812" y="527" type="line"/>
      <point x="812" y="609" type="line"/>
      <point x="474" y="609" type="line"/>
      <point x="474" y="527" type="line"/>
    </contour>
    <contour>
      <point x="892" y="-42" type="line"/>
      <point x="892" y="71" type="line"/>
      <point x="405" y="71" type="line"/>
      <point x="405" y="-42" type="line"/>
    </contour>
    <contour>
      <point x="770" y="695" type="curve"/>
      <point x="717" y="659" type="line"/>
      <point x="736" y="641"/>
      <point x="757" y="614"/>
      <point x="767" y="596" type="curve"/>
      <point x="823" y="636" type="line"/>
      <point x="812" y="653"/>
      <point x="790" y="678"/>
    </contour>
    <contour>
      <point x="537" y="279" type="line"/>
      <point x="537" y="500" type="line"/>
      <point x="478" y="500" type="line"/>
      <point x="478" y="279" type="line"/>
    </contour>
    <contour>
      <point x="826" y="498" type="curve"/>
      <point x="745" y="507" type="line"/>
      <point x="722" y="338"/>
      <point x="659" y="213"/>
      <point x="538" y="139" type="curve"/>
      <point x="556" y="126"/>
      <point x="586" y="95"/>
      <point x="597" y="80" type="curve"/>
      <point x="724" y="167"/>
      <point x="796" y="304"/>
    </contour>
    <contour>
      <point x="627" y="294" type="line"/>
      <point x="627" y="500" type="line"/>
      <point x="508" y="500" type="line"/>
      <point x="508" y="432" type="line"/>
      <point x="567" y="432" type="line"/>
      <point x="567" y="362" type="line"/>
      <point x="508" y="362" type="line"/>
      <point x="508" y="294" type="line"/>
    </contour>
    <contour>
      <point x="717" y="686" type="curve"/>
      <point x="631" y="686" type="line"/>
      <point x="637" y="351"/>
      <point x="666" y="85"/>
      <point x="771" y="84" type="curve" smooth="yes"/>
      <point x="798" y="83"/>
      <point x="830" y="109"/>
      <point x="849" y="207" type="curve"/>
      <point x="834" y="216"/>
      <point x="805" y="240"/>
      <point x="791" y="258" type="curve"/>
      <point x="787" y="211"/>
      <point x="780" y="185"/>
      <point x="772" y="185" type="curve" smooth="yes"/>
      <point x="739" y="186"/>
      <point x="717" y="409"/>
    </contour>
    <contour>
      <point x="312" y="173" type="line"/>
      <point x="312" y="757" type="line"/>
      <point x="133" y="757" type="line"/>
      <point x="133" y="628" type="line"/>
      <point x="203" y="628" type="line"/>
      <point x="203" y="301" type="line"/>
      <point x="133" y="301" type="line"/>
      <point x="133" y="173" type="line"/>
    </contour>
    <contour>
      <point x="162" y="86" type="line"/>
      <point x="162" y="757" type="line"/>
      <point x="55" y="757" type="line"/>
      <point x="55" y="86" type="line"/>
    </contour>
  </outline>
</glyph>
<glyph name="uni561C" format="2">
  <advance width="1000" height="1000"/>
  <unicode hex="561C"/>
  <note>
cid12818
</note>
  <outline>
    <contour>
      <point x="313" y="158" type="line"/>
      <point x="313" y="777" type="line"/>
      <point x="126" y="777" type="line"/>
      <point x="126" y="648" type="line"/>
      <point x="198" y="648" type="line"/>
      <point x="198" y="287" type="line"/>
      <point x="126" y="287" type="line"/>
      <point x="126" y="158" type="line"/>
    </contour>
    <contour>
      <point x="164" y="88" type="line"/>
      <point x="164" y="777" type="line"/>
      <point x="52" y="777" type="line"/>
      <point x="52" y="88" type="line"/>
    </contour>
    <contour>
      <point x="951" y="669" type="line"/>
      <point x="951" y="787" type="line"/>
      <point x="347" y="787" type="line"/>
      <point x="347" y="669" type="line"/>
    </contour>
    <contour>
      <point x="668" y="328" type="curve"/>
      <point x="555" y="364" type="line"/>
      <point x="516" y="291"/>
      <point x="431" y="219"/>
      <point x="333" y="176" type="curve"/>
      <point x="358" y="150"/>
      <point x="391" y="108"/>
      <point x="408" y="79" type="curve"/>
      <point x="518" y="136"/>
      <point x="618" y="232"/>
    </contour>
    <contour>
      <point x="527" y="652" type="curve"/>
      <point x="425" y="675" type="line"/>
      <point x="405" y="602"/>
      <point x="365" y="534"/>
      <point x="314" y="495" type="curve"/>
      <point x="336" y="479"/>
      <point x="375" y="443"/>
      <point x="391" y="424" type="curve"/>
      <point x="449" y="472"/>
      <point x="500" y="560"/>
    </contour>
    <contour>
      <point x="796" y="218" type="line"/>
      <point x="796" y="313" type="line"/>
      <point x="601" y="313" type="line"/>
      <point x="552" y="218" type="line"/>
    </contour>
    <contour>
      <point x="797" y="317" type="line"/>
      <point x="775" y="313" type="line"/>
      <point x="750" y="313" type="line"/>
      <point x="750" y="297" type="line"/>
      <point x="683" y="147"/>
      <point x="524" y="38"/>
      <point x="306" y="-5" type="curve"/>
      <point x="332" y="-27"/>
      <point x="374" y="-76"/>
      <point x="389" y="-104" type="curve"/>
      <point x="616" y="-51"/>
      <point x="791" y="83"/>
      <point x="875" y="271" type="curve"/>
    </contour>
    <contour>
      <point x="706" y="359" type="line"/>
      <point x="706" y="856" type="line"/>
      <point x="578" y="856" type="line"/>
      <point x="578" y="359" type="line"/>
    </contour>
    <contour>
      <point x="469" y="613" type="curve"/>
      <point x="418" y="539" type="line"/>
      <point x="449" y="515"/>
      <point x="486" y="480"/>
      <point x="504" y="458" type="curve"/>
      <point x="559" y="542" type="line"/>
      <point x="540" y="563"/>
      <point x="502" y="592"/>
    </contour>
    <contour>
      <point x="889" y="650" type="curve"/>
      <point x="783" y="674" type="line"/>
      <point x="773" y="625"/>
      <point x="754" y="580"/>
      <point x="722" y="548" type="curve"/>
      <point x="743" y="527"/>
      <point x="777" y="480"/>
      <point x="790" y="459" type="curve"/>
      <point x="838" y="504"/>
      <point x="871" y="577"/>
    </contour>
    <contour>
      <point x="842" y="638" type="curve"/>
      <point x="775" y="574" type="line"/>
      <point x="823" y="532"/>
      <point x="873" y="475"/>
      <point x="897" y="436" type="curve"/>
      <point x="966" y="512" type="line"/>
      <point x="939" y="549"/>
      <point x="888" y="601"/>
    </contour>
    <contour>
      <point x="673" y="530" type="curve"/>
      <point x="588" y="559" type="line"/>
      <point x="536" y="472"/>
      <point x="425" y="392"/>
      <point x="300" y="350" type="curve"/>
      <point x="324" y="328"/>
      <point x="357" y="286"/>
      <point x="374" y="258" type="curve"/>
      <point x="500" y="311"/>
      <point x="615" y="416"/>
    </contour>
    <contour>
      <point x="581" y="194" type="curve"/>
      <point x="500" y="104" type="line"/>
      <point x="628" y="51"/>
      <point x="777" y="-31"/>
      <point x="861" y="-95" type="curve"/>
      <point x="947" y="8" type="line"/>
      <point x="856" y="70"/>
      <point x="705" y="146"/>
    </contour>
    <contour>
      <point x="685" y="569" type="curve"/>
      <point x="599" y="541" type="line"/>
      <point x="661" y="422"/>
      <point x="782" y="320"/>
      <point x="912" y="276" type="curve"/>
      <point x="928" y="306"/>
      <point x="962" y="350"/>
      <point x="987" y="372" type="curve"/>
      <point x="856" y="405"/>
      <point x="740" y="481"/>
    </contour>
  </outline>
</glyph>
<glyph name="uni561E" format="2">
  <advance width="1000" height="1000"/>
  <unicode hex="561E"/>
  <note>
cid12823
</note>
  <outline>
    <contour>
      <point x="892" y="537" type="line"/>
      <point x="892" y="664" type="line"/>
      <point x="639" y="664" type="line"/>
      <point x="639" y="537" type="line"/>
    </contour>
    <contour>
      <point x="953" y="664" type="curve"/>
      <point x="838" y="664" type="line"/>
      <point x="838" y="635" type="line" smooth="yes"/>
      <point x="835" y="214"/>
      <point x="833" y="76"/>
      <point x="819" y="48" type="curve" smooth="yes"/>
      <point x="811" y="33"/>
      <point x="803" y="29"/>
      <point x="792" y="29" type="curve" smooth="yes"/>
      <point x="777" y="29"/>
      <point x="757" y="29"/>
      <point x="732" y="31" type="curve"/>
      <point x="751" y="-4"/>
      <point x="763" y="-57"/>
      <point x="765" y="-93" type="curve"/>
      <point x="801" y="-93"/>
      <point x="833" y="-93"/>
      <point x="858" y="-87" type="curve" smooth="yes"/>
      <point x="886" y="-80"/>
      <point x="903" y="-69"/>
      <point x="923" y="-35" type="curve" smooth="yes"/>
      <point x="948" y="6"/>
      <point x="949" y="168"/>
      <point x="952" y="609" type="curve" smooth="yes"/>
      <point x="953" y="624"/>
      <point x="953" y="664"/>
    </contour>
    <contour>
      <point x="804" y="475" type="curve" smooth="yes"/>
      <point x="804" y="855" type="line"/>
      <point x="692" y="855" type="line"/>
      <point x="692" y="475" type="line" smooth="yes"/>
      <point x="692" y="308"/>
      <point x="682" y="130"/>
      <point x="602" y="-32" type="curve"/>
      <point x="632" y="-51"/>
      <point x="671" y="-81"/>
      <point x="694" y="-106" type="curve"/>
      <point x="788" y="73"/>
      <point x="804" y="272"/>
    </contour>
    <contour>
      <point x="669" y="672" type="line"/>
      <point x="669" y="777" type="line"/>
      <point x="295" y="777" type="line"/>
      <point x="295" y="672" type="line"/>
    </contour>
    <contour>
      <point x="650" y="58" type="line"/>
      <point x="650" y="177" type="line"/>
      <point x="298" y="177" type="line"/>
      <point x="298" y="58" type="line"/>
    </contour>
    <contour>
      <point x="547" y="458" type="line"/>
      <point x="547" y="580" type="line"/>
      <point x="423" y="580" type="line"/>
      <point x="423" y="458" type="line"/>
    </contour>
    <contour>
      <point x="526" y="257" type="line"/>
      <point x="526" y="443" type="line"/>
      <point x="439" y="443" type="line"/>
      <point x="439" y="257" type="line"/>
      <point x="421" y="257" type="line"/>
      <point x="421" y="-96" type="line"/>
      <point x="544" y="-96" type="line"/>
      <point x="544" y="257" type="line"/>
    </contour>
    <contour>
      <point x="462" y="634" type="line"/>
      <point x="462" y="855" type="line"/>
      <point x="350" y="855" type="line"/>
      <point x="350" y="533" type="line"/>
      <point x="619" y="533" type="line"/>
      <point x="619" y="855" type="line"/>
      <point x="502" y="855" type="line"/>
      <point x="502" y="634" type="line"/>
    </contour>
    <contour>
      <point x="551" y="314" type="line"/>
      <point x="416" y="314" type="line"/>
      <point x="416" y="399" type="line"/>
      <point x="551" y="399" type="line"/>
    </contour>
    <contour>
      <point x="653" y="214" type="line"/>
      <point x="653" y="499" type="line"/>
      <point x="316" y="499" type="line"/>
      <point x="316" y="214" type="line"/>
    </contour>
    <contour>
      <point x="290" y="181" type="line"/>
      <point x="290" y="757" type="line"/>
      <point x="98" y="757" type="line"/>
      <point x="98" y="639" type="line"/>
      <point x="185" y="639" type="line"/>
      <point x="185" y="299" type="line"/>
      <point x="98" y="299" type="line"/>
      <point x="98" y="181" type="line"/>
    </contour>
    <contour>
      <point x="153" y="100" type="line"/>
      <point x="153" y="757" type="line"/>
      <point x="50" y="757" type="line"/>
      <point x="50" y="100" type="line"/>
    </contour>
  </outline>
</glyph>
